<svg version="1.2" xmlns="http://www.w3.org/2000/svg" viewBox="0 0 1667 618" width="256" height="95"><defs><clipPath clipPathUnits="userSpaceOnUse" id="cp1"><path d="m1037.05 523.8c0.37 0 1.22-0.02 1.59-0.03q10.41-0.16 20.55-1.29 10.69-1.2 21.04-3.42 10.35-2.23 20.31-5.41 9.95-3.19 19.45-7.29 9.51-4.11 18.51-9.08 9-4.98 17.45-10.76 8.45-5.78 16.29-12.33 7.84-6.55 15.02-13.79 7.18-7.26 13.65-15.16 6.48-7.91 12.18-16.42 5.7-8.51 10.58-17.57 4.89-9.04 8.91-18.6 4.01-9.55 7.1-19.56 3.09-9.99 5.21-20.37 2.11-10.39 3.2-21.11 1.09-10.72 1.09-21.73 0-11.01-1.09-21.74-1.09-10.72-3.2-21.1-2.12-10.4-5.21-20.39-3.09-10-7.1-19.55-4.02-9.56-8.91-18.61-4.88-9.06-10.58-17.57-5.7-8.5-12.18-16.41-6.47-7.91-13.65-15.16-7.18-7.25-15.02-13.8-7.84-6.54-16.29-12.33-8.45-5.79-17.45-10.76-9-4.98-18.51-9.09-9.5-4.1-19.45-7.3-9.96-3.19-20.31-5.4-10.35-2.23-21.04-3.42-10.07-1.13-20.41-1.3c-0.42-0.01-1.3-0.01-1.73-0.02h0.73q-1.14-0.01-2.3-0.01c-14.37 0-28.96 0-43.32 0q-22.67 0-45.35 0-22.68 0-45.35 0-22.68 0-45.36 0c-15.11 0-63.46 0-78.58 0q-22.67 0-45.35 0-22.68 0-45.35 0-18.63 0-37.25 0-4.08 0-8.1 0.14c-14.31 0.54-28.25 2.48-41.7 5.68-13.44 3.21-26.4 7.68-38.73 13.29-12.33 5.62-24.04 12.37-34.98 20.12-10.95 7.76-21.13 16.5-30.42 26.12-9.29 9.63-17.69 20.12-25.06 31.35-7.37 11.23-13.71 23.18-18.89 35.74-5.18 12.57-9.2 25.73-11.93 39.37-2.72 13.63-4.15 27.72-4.15 42.15 0 14.43 1.43 28.52 4.15 42.15 2.73 13.63 6.75 26.79 11.93 39.35 5.18 12.57 11.52 24.53 18.89 35.75 7.37 11.22 15.77 21.71 25.06 31.33 9.29 9.62 19.48 18.38 30.42 26.13 10.94 7.74 22.65 14.5 34.98 20.1 12.34 5.61 25.29 10.09 38.74 13.3 13.45 3.2 27.39 5.14 41.7 5.67q4.02 0.15 8.09 0.15 18.63 0 37.26 0 22.68 0 45.35 0 22.68 0 45.35 0c15.12 0 63.46 0 78.58 0q22.67 0 45.35 0 22.68 0 45.35 0 22.68 0 45.36 0 20.44 0 40.88 0c1.49 0 3.25 0 4.73-0.01z"/></clipPath><clipPath clipPathUnits="userSpaceOnUse" id="cp2"><path d="m1037.05 523.8c0.37 0 1.22-0.02 1.59-0.03q10.41-0.16 20.55-1.29 10.69-1.2 21.04-3.42 10.35-2.23 20.31-5.41 9.95-3.19 19.45-7.29 9.51-4.11 18.51-9.08 9-4.98 17.45-10.76 8.45-5.78 16.29-12.33 7.84-6.55 15.02-13.79 7.18-7.26 13.65-15.16 6.48-7.91 12.18-16.42 5.7-8.51 10.58-17.57 4.89-9.04 8.91-18.6 4.01-9.55 7.1-19.56 3.09-9.99 5.21-20.37 2.11-10.39 3.2-21.11 1.09-10.72 1.09-21.73 0-11.01-1.09-21.74-1.09-10.72-3.2-21.1-2.12-10.4-5.21-20.39-3.09-10-7.1-19.55-4.02-9.56-8.91-18.61-4.88-9.06-10.58-17.57-5.7-8.5-12.18-16.41-6.47-7.91-13.65-15.16-7.18-7.25-15.02-13.8-7.84-6.54-16.29-12.33-8.45-5.79-17.45-10.76-9-4.98-18.51-9.09-9.5-4.1-19.45-7.3-9.96-3.19-20.31-5.4-10.35-2.23-21.04-3.42-10.07-1.13-20.41-1.3c-0.42-0.01-1.3-0.01-1.73-0.02h0.73q-1.14-0.01-2.3-0.01c-14.37 0-28.96 0-43.32 0q-22.67 0-45.35 0-22.68 0-45.35 0-22.68 0-45.36 0c-15.11 0-63.46 0-78.58 0q-22.67 0-45.35 0-22.68 0-45.35 0-18.63 0-37.25 0-4.08 0-8.1 0.14c-14.31 0.54-28.25 2.48-41.7 5.68-13.44 3.21-26.4 7.68-38.73 13.29-12.33 5.62-24.04 12.37-34.98 20.12-10.95 7.76-21.13 16.5-30.42 26.12-9.29 9.63-17.69 20.12-25.06 31.35-7.37 11.23-13.71 23.18-18.89 35.74-5.18 12.57-9.2 25.73-11.93 39.37-2.72 13.63-4.15 27.72-4.15 42.15 0 14.43 1.43 28.52 4.15 42.15 2.73 13.63 6.75 26.79 11.93 39.35 5.18 12.57 11.52 24.53 18.89 35.75 7.37 11.22 15.77 21.71 25.06 31.33 9.29 9.62 19.48 18.38 30.42 26.13 10.94 7.74 22.65 14.5 34.98 20.1 12.34 5.61 25.29 10.09 38.74 13.3 13.45 3.2 27.39 5.14 41.7 5.67q4.02 0.15 8.09 0.15 18.63 0 37.26 0 22.68 0 45.35 0 22.68 0 45.35 0c15.12 0 63.46 0 78.58 0q22.67 0 45.35 0 22.68 0 45.35 0 22.68 0 45.36 0 20.44 0 40.88 0c1.49 0 3.25 0 4.73-0.01z"/></clipPath><clipPath clipPathUnits="userSpaceOnUse" id="cp3"><path d="m1036.42 499.75c104.86 0 189.87-85.01 189.87-189.88 0-104.87-85.01-189.88-189.87-189.88-104.87 0-189.88 85.01-189.88 189.88 0 104.87 85.01 189.88 189.88 189.88z"/></clipPath><linearGradient id="P" gradientUnits="userSpaceOnUse"/><linearGradient id="g1" x2="1" href="#P" gradientTransform="matrix(0,-520.864,126.586,0,-35.186,570.301)"><stop stop-color="#e5e5e9"/><stop offset=".37" stop-color="#efeff2"/><stop offset=".65" stop-color="#efeff2"/><stop offset="1" stop-color="#e7e7eb"/></linearGradient><linearGradient id="g2" x2="1" href="#P" gradientTransform="matrix(-113.678,325.262,-451.105,-157.659,570.998,111.037)"><stop stop-color="#acacb9"/><stop offset="1" stop-color="#fff"/></linearGradient><linearGradient id="g3" x2="1" href="#P" gradientTransform="matrix(189.879,0,0,189.879,1036.414,309.871)"><stop stop-color="#fff"/><stop offset="1" stop-color="#a596aa"/></linearGradient><linearGradient id="g4" x2="1" href="#P" gradientTransform="matrix(-162.074,-179.092,186.618,-168.885,1198.488,310.229)"><stop/><stop offset="1" stop-color="#252525"/></linearGradient><linearGradient id="g5" x2="1" href="#P" gradientTransform="matrix(-162.074,-179.092,186.618,-168.885,1198.488,310.229)"><stop/><stop offset="1" stop-color="#fff"/></linearGradient></defs><style>.a{fill:#585e79}.b{fill:#00398c}.c{fill:url(#g1)}.d{fill:#d7032c}.e{fill:url(#g2)}.f{fill:url(#g3)}.g{fill:url(#g4)}.h{opacity:.2;mix-blend-mode:screen;fill:url(#g5)}</style><g style="opacity:.5"><path class="a" d="m110.8 270v26.4h63.4v26.6h-63.4v26.7h72.3v26.5h-106v-132.7h103.9v26.5z"/><path class="a" d="m297.6 376.2l-61-81.7v81.7h-31.7v-132.7h29.8l61.2 81.9v-81.9h31.5v132.7z"/></g><g clip-path="url(#cp1)"></g><g clip-path="url(#cp2)"></g><g clip-path="url(#cp3)"><path class="b" d="m973.1 570.3v-520.9h-126.6v520.9z"/><path class="c" d="m1099.7 570.3v-520.9h-126.6v520.9z"/><path class="d" d="m1226.3 570.3v-520.9h-126.6v520.9z"/></g><path class="e" d="m860.7 67.1c-23.3 0-81.6 0-104.9 0q0.2 0.9 0.4 1.9c23.2 0 81.3 0 104.5 0q0-1 0-1.9zm0 1.9c-23.2 0-81.3 0-104.5 0q0.2 0.9 0.3 1.8c23.1 0 81.1 0 104.2 0q0-0.9 0-1.8zm0 1.8c-23.1 0-81.1 0-104.2 0q0.2 0.9 0.4 1.8c22.9 0 80.9 0 103.8 0q0-0.9 0-1.8zm0 1.8c-22.9 0-80.9 0-103.8 0q0.1 0.9 0.3 1.8c22.9 0 80.7 0 103.5 0q0-0.9 0-1.8zm0 1.8c-22.8 0-80.6 0-103.5 0q0.2 0.9 0.4 1.8c22.7 0 80.4 0 103.1 0q0-0.9 0-1.8zm0 1.8c-22.7 0-80.4 0-103.1 0q0.2 0.9 0.4 1.8c22.6 0 80.1 0 102.7 0q0-0.9 0-1.8zm0 1.8c-22.6 0-80.1 0-102.7 0q0.1 0.9 0.3 1.8c22.5 0 79.9 0 102.4 0q0-0.9 0-1.8zm0 1.8c-22.5 0-79.9 0-102.4 0q0.2 0.9 0.4 1.8c22.3 0 79.7 0 102 0q0-0.9 0-1.8zm0 1.8c-22.3 0-79.7 0-102 0q0.2 0.9 0.4 1.8c22.2 0 79.4 0 101.6 0q0-0.9 0-1.8zm0 1.8c-22.2 0-79.4 0-101.6 0q0.1 0.9 0.3 1.8c22.1 0 79.2 0 101.3 0q0-0.9 0-1.8zm0 1.8c-22.1 0-79.2 0-101.3 0q0.2 0.9 0.3 1.8c22 0 79 0 101 0q0-0.9 0-1.8zm0 1.8c-22 0-79 0-101 0q0.2 0.9 0.4 1.8c21.9 0 78.7 0 100.6 0q0-0.9 0-1.8zm0 1.8c-21.9 0-78.7 0-100.6 0q0.2 1 0.4 1.9c21.7 0 78.5 0 100.2 0q0-0.9 0-1.9zm0 1.9c-21.7 0-78.5 0-100.2 0q0.1 0.9 0.3 1.8c21.7 0 78.3 0 99.9 0q0-0.9 0-1.8zm0 1.8c-21.6 0-78.2 0-99.9 0q0.2 0.9 0.3 1.8c21.6 0 78.1 0 99.6 0q0-0.9 0-1.8zm0 1.8c-21.5 0-78 0-99.6 0q0.2 0.9 0.4 1.8c21.4 0 77.8 0 99.2 0q0-0.9 0-1.8zm-104.9-27.2q-35.1 0-70.1 0 0.5 0.9 0.8 1.9 34.9 0 69.7 0-0.2-1-0.4-1.9zm0.4 1.9q-34.8 0-69.7 0 0.4 0.9 0.8 1.8 34.6 0 69.2 0-0.1-0.9-0.3-1.8zm0.3 1.8q-34.6 0-69.2 0 0.3 0.9 0.7 1.8 34.4 0 68.9 0-0.2-0.9-0.4-1.8zm0.4 1.8q-34.5 0-68.9 0 0.3 0.9 0.7 1.8 34.3 0 68.5 0-0.2-0.9-0.3-1.8zm0.3 1.8q-34.2 0-68.5 0 0.4 0.9 0.8 1.8 34 0 68.1 0-0.2-0.9-0.4-1.8zm0.4 1.8q-34.1 0-68.1 0 0.3 0.9 0.6 1.8 33.9 0 67.9 0-0.2-0.9-0.4-1.8zm0.4 1.8q-34 0-67.9 0 0.4 0.9 0.7 1.8 33.8 0 67.5 0-0.2-0.9-0.3-1.8zm0.3 1.8q-33.7 0-67.5 0 0.4 0.9 0.8 1.8 33.5 0 67.1 0-0.2-0.9-0.4-1.8zm0.4 1.8q-33.6 0-67.1 0 0.4 0.9 0.7 1.8 33.4 0 66.8 0-0.2-0.9-0.4-1.8zm0.4 1.8q-33.4 0-66.8 0 0.4 0.9 0.7 1.8 33.2 0 66.4 0-0.2-0.9-0.3-1.8zm0.3 1.8q-33.2 0-66.4 0 0.3 0.9 0.7 1.8 33 0 66 0-0.1-0.9-0.3-1.8zm0.3 1.8q-33 0-66 0 0.3 0.9 0.7 1.8 32.9 0 65.7 0-0.2-0.9-0.4-1.8zm0.4 1.8q-32.8 0-65.7 0 0.4 1 0.7 1.9 32.7 0 65.4 0-0.2-0.9-0.4-1.9zm0.4 1.9q-32.7 0-65.4 0 0.4 0.9 0.7 1.8 32.5 0 65 0-0.2-0.9-0.3-1.8zm0.3 1.8q-32.5 0-65 0 0.3 0.9 0.7 1.8 32.3 0 64.6 0-0.1-0.9-0.3-1.8zm0.3 1.8q-32.3 0-64.6 0 0.3 0.9 0.7 1.8 32.1 0 64.3 0-0.2-0.9-0.4-1.8zm-75.4-27.2q-17.9 0-35.9 0-17.1 0-33.9 2.4 0.6 0.8 1.1 1.7 8.9-1.2 17.9-1.8 7.8-0.4 15.7-0.4 0 0 0 0 0 0 0.1 0 0 0 0.1 0 17.9 0 35.7 0-0.3-1-0.8-1.9zm0.8 1.9q-17.8 0-35.7 0-0.1 0-0.1 0-0.1 0-0.1 0 0 0 0 0-7.9 0-15.7 0.4-9 0.6-17.9 1.8 0.6 0.8 1.2 1.7 8.8-1.2 17.7-1.7 7.8-0.4 15.6-0.4 0 0 0 0 0.1 0 0.2 0 17.8 0 35.6 0-0.4-0.9-0.8-1.8zm0.8 1.8q-17.8 0-35.6 0-0.1 0-0.2 0 0 0 0 0-7.8 0-15.6 0.4-8.9 0.5-17.7 1.7 0.4 0.8 1 1.7 8.8-1.1 17.7-1.6 7.7-0.4 15.5-0.4 0 0 0.1 0 0 0 0 0 17.8 0 35.5 0-0.4-0.9-0.7-1.8zm0.7 1.8q-17.7 0-35.5 0 0 0 0 0-0.1 0-0.1 0-7.8 0-15.5 0.4-8.9 0.5-17.7 1.6 0.5 0.8 1.1 1.7 8.8-1.1 17.7-1.5 7.6-0.4 15.3-0.4 0.1 0 0.1 0 17.7 0 35.3 0-0.4-0.9-0.7-1.8zm0.7 1.8q-17.6 0-35.3 0 0 0-0.1 0-7.7 0-15.3 0.4-8.9 0.4-17.7 1.5 0.5 0.8 1 1.7 8.8-1.1 17.7-1.5 7.6-0.3 15.3-0.3 0 0 0 0 17.6 0 35.2 0-0.4-0.9-0.8-1.8zm0.8 1.8q-17.6 0-35.2 0 0 0 0 0-7.7 0-15.3 0.3-8.9 0.4-17.7 1.5 0.6 0.8 1.1 1.7 8.7-1 17.6-1.4 7.6-0.3 15.2-0.3 0 0 0 0 17.5 0 34.9 0-0.3-0.9-0.6-1.8zm0.6 1.8q-17.4 0-34.9 0 0 0 0 0-7.6 0-15.2 0.3-8.9 0.4-17.6 1.4 0.5 0.8 1 1.7 8.7-1 17.5-1.3 7.6-0.3 15.2-0.3 0 0 0 0 17.4 0 34.7 0-0.3-0.9-0.7-1.8zm0.7 1.8q-17.3 0-34.7 0 0 0 0 0-7.6 0-15.2 0.3-8.8 0.3-17.5 1.3 0.6 0.8 1.1 1.7 8.7-1 17.5-1.2 7.5-0.3 15-0.3 17.3 0 34.6 0-0.4-0.9-0.8-1.8zm0.8 1.8q-17.3 0-34.6 0-7.5 0-15 0.3-8.8 0.2-17.5 1.2 0.6 0.9 1.1 1.7 8.6-0.9 17.4-1.2 0 0 0 0 7.5-0.2 14.9-0.2 0 0 0 0 0 0 0 0 17.2 0 34.4 0-0.3-0.9-0.7-1.8zm0.7 1.8q-17.2 0-34.4 0 0 0 0 0 0 0 0 0-7.4 0-14.9 0.2 0 0 0 0-8.8 0.3-17.4 1.2 0.5 0.8 1 1.7 8.6-0.9 17.3-1.1 0 0 0.1 0 7.4-0.2 14.8-0.2 0 0 0 0 17.1 0 34.2 0-0.3-0.9-0.7-1.8zm0.7 1.8q-17.1 0-34.2 0 0 0 0 0-7.4 0-14.8 0.2-0.1 0-0.1 0-8.7 0.2-17.3 1.1 0.5 0.9 1.1 1.7 8.5-0.8 17.2-1 0 0 0 0 7.4-0.2 14.8-0.2 0 0 0 0 17 0 34 0-0.4-0.9-0.7-1.8zm0.7 1.8q-17 0-34 0 0 0 0 0-7.4 0-14.8 0.2 0 0 0 0-8.7 0.2-17.2 1 0.5 0.8 1 1.7 8.5-0.8 17.1-0.9 0.1 0 0.1 0 7.3-0.2 14.7-0.2 16.9 0 33.8 0-0.4-0.9-0.7-1.8zm0.7 1.8q-16.9 0-33.8 0-7.4 0-14.7 0.2 0 0-0.1 0-8.6 0.1-17.1 0.9 0.6 0.9 1.1 1.7 8.5-0.7 17-0.8 0 0 0.1 0 0 0 0 0 7.3-0.1 14.6-0.1 16.8 0 33.6 0-0.3-0.9-0.7-1.9zm0.7 1.9q-16.8 0-33.6 0-7.3 0-14.6 0.1 0 0 0 0-0.1 0-0.1 0-8.5 0.1-17 0.8 0.5 0.9 1 1.7 8.4-0.7 17-0.8 0 0 0 0 0 0 0.1 0 7.2 0 14.4 0 16.8 0 33.5 0-0.3-0.9-0.7-1.8zm0.7 1.8q-16.7 0-33.5 0-7.2 0-14.4 0-0.1 0-0.1 0 0 0 0 0-8.6 0.1-17 0.8 0.5 0.9 1.1 1.7 8.3-0.7 16.8-0.7 0 0 0 0 0.1 0 0.1 0 7.2 0 14.4 0 16.6 0 33.3 0-0.4-0.9-0.7-1.8zm0.7 1.8q-16.7 0-33.3 0-7.2 0-14.4 0 0 0-0.1 0 0 0 0 0-8.5 0-16.8 0.7 0.5 0.9 1 1.7 8.4-0.6 16.9-0.6 23.7 0 47.4 0-0.4-0.9-0.7-1.8zm-80.6-24.8c-20.9 2.9-41.2 8.5-60.7 16.7q-2.9 1.3-5.8 2.6 0.7 0.7 1.3 1.4 2.9-1.3 5.8-2.5c19.5-8.2 39.8-13.7 60.5-16.5q-0.5-0.9-1.1-1.7zm1.1 1.7c-20.7 2.8-41 8.3-60.5 16.5q-2.9 1.2-5.8 2.5 0.7 0.7 1.4 1.4 2.9-1.3 5.8-2.5c19.4-8.1 39.5-13.5 60.3-16.2q-0.6-0.9-1.2-1.7zm1.2 1.7c-20.8 2.7-40.9 8.1-60.3 16.2q-2.9 1.2-5.8 2.5 0.7 0.7 1.3 1.3 2.9-1.2 5.8-2.4c19.3-8 39.4-13.3 60-15.9q-0.6-0.9-1-1.7zm1 1.7c-20.6 2.6-40.7 7.9-60 15.9q-2.9 1.2-5.8 2.4 0.7 0.7 1.4 1.4 2.8-1.2 5.7-2.4c19.2-7.8 39.2-13.1 59.8-15.6q-0.6-0.9-1.1-1.7zm1.1 1.7c-20.6 2.5-40.6 7.8-59.8 15.6q-2.9 1.2-5.7 2.4 0.7 0.7 1.3 1.4 2.9-1.2 5.7-2.4c19.2-7.7 39.1-12.9 59.5-15.3q-0.5-0.9-1-1.7zm1 1.7c-20.4 2.4-40.3 7.6-59.5 15.3q-2.8 1.2-5.7 2.4 0.7 0.7 1.4 1.4 2.8-1.2 5.7-2.3c19-7.7 38.8-12.7 59.2-15.1q-0.5-0.9-1.1-1.7zm1.1 1.7c-20.4 2.4-40.2 7.4-59.2 15.1q-2.9 1.1-5.7 2.3 0.7 0.7 1.3 1.4 2.9-1.2 5.7-2.3c19-7.6 38.7-12.5 58.9-14.8q-0.5-0.9-1-1.7zm1 1.7c-20.2 2.3-39.9 7.2-58.9 14.8q-2.8 1.1-5.7 2.3 0.7 0.7 1.4 1.4 2.8-1.2 5.6-2.3c18.9-7.5 38.6-12.3 58.7-14.5q-0.5-0.9-1.1-1.7zm1.1 1.7c-20.1 2.2-39.8 7-58.7 14.5q-2.8 1.1-5.6 2.3 0.7 0.7 1.3 1.4 2.8-1.2 5.6-2.3c18.9-7.3 38.4-12.1 58.5-14.2q-0.5-0.8-1.1-1.7zm1.1 1.7c-20.1 2.1-39.6 6.9-58.5 14.2q-2.8 1.1-5.6 2.3 0.7 0.7 1.4 1.4 2.8-1.2 5.6-2.2c18.7-7.3 38.2-12 58.1-14q-0.5-0.9-1-1.7zm1 1.7c-19.9 2-39.4 6.7-58.1 14q-2.8 1-5.6 2.2 0.7 0.7 1.3 1.4 2.8-1.2 5.6-2.2c18.6-7.2 38-11.8 57.9-13.7q-0.6-0.8-1.1-1.7zm1.1 1.7c-19.9 1.9-39.3 6.5-57.9 13.7q-2.8 1-5.6 2.2 0.7 0.7 1.4 1.4 2.7-1.1 5.5-2.2c18.6-7.1 37.9-11.5 57.6-13.4q-0.5-0.9-1-1.7zm1 1.7c-19.7 1.9-39 6.3-57.6 13.4q-2.8 1.1-5.5 2.2 0.7 0.7 1.3 1.4 2.8-1.1 5.5-2.2c18.5-6.9 37.7-11.3 57.4-13.1q-0.5-0.8-1.1-1.7zm1.1 1.7c-19.7 1.8-38.9 6.2-57.4 13.1q-2.7 1.1-5.5 2.2 0.7 0.7 1.4 1.4 2.7-1.1 5.5-2.2c18.3-6.8 37.5-11.1 57-12.8q-0.5-0.8-1-1.7zm1 1.7c-19.5 1.7-38.7 6-57 12.8q-2.8 1.1-5.5 2.2 0.7 0.7 1.3 1.4 2.8-1.1 5.5-2.1c18.3-6.8 37.3-11 56.8-12.6q-0.6-0.8-1.1-1.7zm1.1 1.7c-19.5 1.6-38.5 5.8-56.8 12.6q-2.7 1-5.5 2.1 0.7 0.6 1.4 1.3c19.8-7.8 40.6-12.6 61.9-14.3q-0.5-0.8-1-1.7zm-82.5-6.2c-21.2 9.6-40.7 22.1-58.3 37.2q0.8 0.5 1.6 1c16.2-13.9 34-25.5 53.3-34.6q2.4-1.2 4.7-2.2-0.6-0.7-1.3-1.4zm1.3 1.4q-2.3 1-4.7 2.2c-19.3 9.1-37.1 20.7-53.3 34.6q0.8 0.5 1.6 1.1c16.1-13.8 33.9-25.3 53.1-34.4q2.3-1.1 4.7-2.1-0.7-0.7-1.4-1.4zm1.4 1.4q-2.4 1-4.7 2.1c-19.2 9.1-37 20.6-53.1 34.4q0.7 0.5 1.5 1.1c16.1-13.7 33.8-25.1 52.9-34.1q2.4-1.1 4.7-2.2-0.6-0.6-1.3-1.3zm1.3 1.3q-2.3 1.1-4.7 2.2c-19.1 9-36.8 20.4-52.9 34.1q0.8 0.5 1.5 1.1c16-13.6 33.7-24.9 52.8-33.8q2.3-1.1 4.7-2.2-0.7-0.7-1.4-1.4zm1.4 1.4q-2.4 1.1-4.7 2.2c-19.1 8.9-36.8 20.2-52.8 33.8q0.8 0.4 1.6 1c16-13.5 33.6-24.7 52.6-33.5q2.3-1 4.6-2.1-0.6-0.7-1.3-1.4zm1.3 1.4q-2.3 1.1-4.6 2.1c-19 8.8-36.6 20-52.6 33.5q0.8 0.5 1.6 1c15.9-13.4 33.4-24.4 52.3-33.1q0 0 0 0 2.3-1.1 4.7-2.1-0.7-0.7-1.4-1.4zm1.4 1.4q-2.4 1-4.7 2.1 0 0 0 0c-18.9 8.7-36.4 19.7-52.3 33.1q0.8 0.5 1.5 1.1c15.9-13.3 33.3-24.2 52.2-32.8q0 0 0 0 2.3-1.1 4.6-2.1-0.6-0.7-1.3-1.4zm1.3 1.4q-2.3 1-4.6 2.1 0 0 0 0c-18.9 8.6-36.3 19.5-52.2 32.8q0.8 0.6 1.5 1.1c15.8-13.1 33.3-24.1 52.1-32.6q2.3-1 4.6-2-0.7-0.7-1.4-1.4zm1.4 1.4q-2.3 1-4.6 2c-18.8 8.5-36.3 19.5-52.1 32.6 0.6 0.3 1.1 0.7 1.6 1 15.8-13 33.1-23.8 51.8-32.2q2.3-1 4.6-2-0.6-0.7-1.3-1.4zm1.3 1.4q-2.3 1-4.6 2c-18.7 8.4-36 19.2-51.8 32.2q0.8 0.5 1.6 1c15.7-12.9 32.9-23.5 51.6-31.8q2.3-1.1 4.6-2-0.7-0.7-1.4-1.4zm1.4 1.4q-2.3 0.9-4.6 2c-18.7 8.3-35.9 18.9-51.6 31.8q0.8 0.6 1.5 1.1c15.7-12.8 32.9-23.4 51.5-31.6q0 0 0 0 2.2-1 4.5-1.9-0.6-0.7-1.3-1.4zm1.3 1.4q-2.3 0.9-4.5 1.9 0 0 0 0c-18.6 8.2-35.8 18.8-51.5 31.6q0.8 0.6 1.6 1.1c15.6-12.7 32.7-23.2 51.2-31.3q0 0 0 0 2.3-1 4.6-1.9-0.7-0.7-1.4-1.4zm1.4 1.4q-2.3 0.9-4.6 1.9 0 0 0 0c-18.5 8.1-35.6 18.6-51.2 31.3q0.8 0.5 1.6 1c15.5-12.6 32.6-22.9 51-30.9q0 0 0 0 2.3-1 4.5-1.9-0.6-0.7-1.3-1.4zm1.3 1.4q-2.2 0.9-4.5 1.9 0 0 0 0c-18.4 8-35.5 18.3-51 30.9q0.8 0.5 1.6 1.1c15.4-12.5 32.4-22.8 50.8-30.7q0 0 0 0 2.2-0.9 4.5-1.8-0.7-0.7-1.4-1.4zm1.4 1.4q-2.3 0.9-4.5 1.8 0 0 0 0c-18.4 7.9-35.4 18.2-50.8 30.7q0.8 0.5 1.5 1c15.4-12.4 32.3-22.5 50.6-30.3q2.3-0.9 4.5-1.8-0.6-0.7-1.3-1.4zm1.3 1.4q-2.2 0.9-4.5 1.8c-18.3 7.8-35.2 17.9-50.6 30.3q0.8 0.6 1.6 1.1c15.3-12.3 32.2-22.3 50.4-30q2.2-1 4.5-1.9-0.7-0.7-1.4-1.3zm-78.5 16.3q-6.8 5.9-13.1 12.2c-12.4 12.4-23.2 25.8-32.6 40.2q0.9 0.3 1.8 0.6 11.9-18.3 27-34.3 2.6-2.8 5.4-5.6 0 0 0 0 0 0 0 0 0 0 0.1 0 6.3-6.3 13-12.1-0.8-0.5-1.6-1zm1.6 1q-6.7 5.8-13 12.1-0.1 0-0.1 0 0 0 0 0 0 0 0 0-2.8 2.8-5.4 5.6-15.1 16-27 34.3 0.9 0.4 1.7 0.7 11.8-18.2 26.9-34.1 2.7-2.8 5.4-5.5 0 0 0 0 0 0 0 0 6.4-6.3 13.1-12-0.8-0.6-1.6-1.1zm1.6 1.1q-6.7 5.7-13.1 12 0 0 0 0 0 0 0 0-2.7 2.7-5.4 5.5-15.1 15.9-26.9 34.1 0.8 0.4 1.7 0.8 11.8-18.1 26.8-33.9 2.7-2.8 5.4-5.5 0 0 0 0 0 0 0 0 6.3-6.3 13-11.9-0.8-0.6-1.5-1.1zm1.5 1.1q-6.7 5.6-13 11.9 0 0 0 0 0 0 0 0-2.7 2.7-5.4 5.5-15 15.8-26.8 33.9 0.8 0.4 1.6 0.8c7.8-12 16.8-23.3 26.8-33.7q2.6-2.8 5.4-5.5 0 0 0 0 6.3-6.2 12.9-11.8-0.7-0.6-1.5-1.1zm1.5 1.1q-6.6 5.6-12.9 11.8 0 0 0 0-2.8 2.7-5.4 5.5c-10 10.4-19 21.7-26.8 33.7q0.9 0.3 1.8 0.6 11.7-17.9 26.7-33.5 2.6-2.7 5.3-5.4 0 0 0.1 0 6.2-6.1 12.8-11.7-0.8-0.6-1.6-1zm1.6 1q-6.6 5.6-12.8 11.7-0.1 0-0.1 0-2.7 2.7-5.3 5.4-15 15.6-26.7 33.5 0.9 0.3 1.7 0.7 11.7-17.8 26.6-33.3 2.6-2.7 5.3-5.4 0 0 0.1 0 6.2-6 12.8-11.6-0.8-0.5-1.6-1zm1.6 1q-6.6 5.6-12.8 11.6-0.1 0-0.1 0-2.7 2.7-5.3 5.4-14.9 15.5-26.6 33.3 0.8 0.3 1.7 0.7 11.6-17.6 26.5-33 2.6-2.7 5.3-5.4 0 0 0 0 6.2-6 12.8-11.5-0.7-0.6-1.5-1.1zm1.5 1.1q-6.6 5.5-12.8 11.5 0 0 0 0-2.7 2.7-5.3 5.4-14.9 15.4-26.5 33 0.8 0.4 1.6 0.8c7.8-11.6 16.6-22.6 26.5-32.8q2.6-2.7 5.3-5.3 6.2-6 12.7-11.5-0.7-0.5-1.5-1.1zm1.5 1.1q-6.5 5.5-12.7 11.5-2.7 2.6-5.3 5.3c-9.9 10.2-18.7 21.2-26.5 32.8q0.9 0.3 1.8 0.6 11.6-17.4 26.4-32.6 2.6-2.7 5.3-5.3 6.1-5.9 12.6-11.3c-0.5-0.3-1-0.7-1.6-1zm1.6 1q-6.5 5.4-12.6 11.3-2.7 2.6-5.3 5.3-14.8 15.2-26.4 32.6 0.9 0.3 1.7 0.7 11.6-17.3 26.3-32.4 2.6-2.6 5.3-5.2 6.1-5.9 12.6-11.3-0.8-0.5-1.6-1zm1.6 1q-6.5 5.4-12.6 11.3-2.7 2.6-5.3 5.2-14.7 15.1-26.3 32.4 0.9 0.4 1.7 0.8 11.5-17.2 26.2-32.2 2.6-2.7 5.3-5.2 6.1-5.9 12.5-11.2-0.7-0.5-1.5-1.1zm1.5 1.1q-6.4 5.3-12.5 11.2-2.7 2.5-5.3 5.2-14.7 15-26.2 32.2 0.8 0.4 1.6 0.8c7.7-11.4 16.4-22.1 26.2-32q2.6-2.7 5.2-5.2 6.1-5.8 12.6-11.1-0.8-0.5-1.6-1.1zm1.6 1.1q-6.5 5.3-12.6 11.1-2.6 2.5-5.2 5.2c-9.8 9.9-18.5 20.6-26.2 32q1 0.2 1.8 0.5 11.5-16.9 26.1-31.7 2.6-2.6 5.2-5.1 6.1-5.8 12.5-11-0.8-0.5-1.6-1zm1.6 1q-6.4 5.2-12.5 11-2.6 2.5-5.2 5.1-14.6 14.8-26.1 31.7 0.9 0.3 1.8 0.7 11.4-16.9 25.9-31.5 2.6-2.6 5.3-5.1 6-5.7 12.4-10.8-0.8-0.6-1.6-1.1zm1.6 1.1q-6.4 5.1-12.4 10.8-2.7 2.5-5.3 5.1-14.5 14.6-25.9 31.5 0.8 0.4 1.6 0.8 11.4-16.8 25.9-31.3 2.6-2.6 5.3-5.1 6-5.6 12.3-10.8-0.7-0.5-1.5-1zm1.5 1q-6.3 5.2-12.3 10.8-2.7 2.5-5.3 5.1-14.5 14.5-25.9 31.3 0.9 0.4 1.7 0.8c7.5-11.1 16.1-21.5 25.8-31.1q8.4-8.4 17.6-15.8-0.8-0.5-1.6-1.1zm-69.1 36.6c-7.5 11.7-14 24.1-19.5 37q-5.5 12.8-9.4 26.1 1 0 1.9 0.1c2.6-8.7 5.7-17.2 9.2-25.7q8.2-19.4 19.6-36.9-0.9-0.3-1.8-0.6zm1.8 0.6q-11.4 17.5-19.6 36.9c-3.5 8.5-6.6 17-9.2 25.7q0.9 0.2 1.8 0.5 3.8-12.9 9.1-25.4c5.5-12.9 12-25.3 19.6-37q-0.8-0.3-1.7-0.7zm1.7 0.7c-7.6 11.7-14.1 24.1-19.6 37q-5.3 12.5-9.1 25.4 0.9 0.1 1.8 0.3c2.5-8.5 5.5-16.8 8.9-25q8.3-19.4 19.7-36.9-0.9-0.4-1.7-0.8zm1.7 0.8q-11.4 17.5-19.7 36.9c-3.4 8.2-6.4 16.5-8.9 25q0.8 0.2 1.7 0.5 3.7-12.5 8.8-24.7 8.3-19.4 19.7-36.9-0.8-0.4-1.6-0.8zm1.6 0.8q-11.4 17.5-19.7 36.9-5.1 12.2-8.8 24.7 0.9 0 1.8 0.2 3.7-12.4 8.8-24.4 8.2-19.4 19.7-36.8-0.9-0.3-1.8-0.6zm1.8 0.6q-11.5 17.4-19.7 36.8-5.1 12-8.8 24.4 1 0.1 1.8 0.4 3.6-12.2 8.7-24c5.4-12.9 12.1-25.3 19.7-36.9q-0.8-0.4-1.7-0.7zm1.7 0.7c-7.6 11.6-14.3 24-19.7 36.9q-5.1 11.8-8.7 24 0.9 0.1 1.8 0.3c2.4-8 5.2-15.9 8.5-23.6q8.2-19.4 19.8-36.9-0.9-0.4-1.7-0.7zm1.7 0.7q-11.6 17.5-19.8 36.9c-3.3 7.7-6.1 15.6-8.5 23.6q0.9 0.2 1.7 0.5 3.6-11.8 8.4-23.3c5.5-12.9 12.1-25.3 19.8-36.9q-0.8-0.4-1.6-0.8zm1.6 0.8c-7.7 11.6-14.3 24-19.8 36.9q-4.8 11.5-8.4 23.3 1 0 1.9 0.2 3.5-11.7 8.3-22.9 8.2-19.5 19.8-36.9-0.9-0.3-1.8-0.6zm1.8 0.6q-11.6 17.4-19.8 36.9-4.8 11.2-8.3 22.9 0.9 0.1 1.7 0.4 3.5-11.4 8.2-22.6c5.5-12.9 12.2-25.3 19.9-36.9q-0.8-0.4-1.7-0.7zm1.7 0.7c-7.7 11.6-14.4 24-19.9 36.9q-4.7 11.2-8.2 22.6 1 0.1 1.8 0.3c2.3-7.5 5-14.9 8.1-22.2q8.2-19.4 19.9-36.8-0.8-0.4-1.7-0.8zm1.7 0.8q-11.7 17.4-19.9 36.8c-3.1 7.3-5.8 14.7-8.1 22.2q0.9 0.2 1.8 0.5 3.3-11.1 7.9-21.9c5.5-12.9 12.1-25.2 19.9-36.8q-0.8-0.4-1.6-0.8zm1.6 0.8c-7.8 11.6-14.4 23.9-19.9 36.8q-4.6 10.8-7.9 21.9 0.9 0 1.8 0.2c2.3-7.3 4.9-14.5 7.9-21.6 5.5-12.9 12.1-25.2 19.9-36.8q-0.8-0.3-1.8-0.5zm1.8 0.5c-7.8 11.6-14.4 23.9-19.9 36.8-3 7.1-5.6 14.3-7.9 21.6q1 0.1 1.8 0.4 3.3-10.7 7.7-21.2c5.5-12.9 12.2-25.3 20.1-36.9q-0.9-0.4-1.8-0.7zm1.8 0.7c-7.9 11.6-14.6 24-20.1 36.9q-4.4 10.5-7.7 21.2 0.9 0.1 1.8 0.3c2.2-7.1 4.7-14 7.6-20.8q8.2-19.5 20-36.8-0.8-0.4-1.6-0.8zm1.6 0.8q-11.8 17.3-20 36.8c-2.9 6.8-5.4 13.7-7.6 20.8q0.9 0.2 1.7 0.5 3.2-10.3 7.5-20.4c5.5-13 12.2-25.4 20.1-36.9q-0.8-0.4-1.7-0.8zm-54.5 52.5c-6.5 22.1-9.7 45-9.7 68.4q0.9 0 1.8 0c0-23.3 3.3-46.3 9.8-68.3q-0.9-0.1-1.9-0.1zm1.9 0.1c-6.5 22-9.8 45-9.8 68.3q0.9 0 1.8 0c0-23.2 3.3-45.9 9.8-67.8q-0.9-0.3-1.8-0.5zm1.8 0.5c-6.5 21.9-9.8 44.6-9.8 67.8q0.9 0 1.8 0c0-23.1 3.3-45.8 9.8-67.5q-0.9-0.2-1.8-0.3zm1.8 0.3c-6.5 21.7-9.8 44.4-9.8 67.5q0.9 0 1.8 0c0-22.9 3.2-45.4 9.7-67q-0.9-0.3-1.7-0.5zm1.7 0.5c-6.5 21.6-9.7 44.1-9.7 67q0.9 0 1.8 0c0-22.8 3.3-45.3 9.7-66.8q-0.9-0.2-1.8-0.2zm1.8 0.2c-6.4 21.5-9.7 44-9.7 66.8q0.9 0 1.8 0c0-22.7 3.3-45 9.7-66.4q-0.8-0.3-1.8-0.4zm1.8 0.4c-6.4 21.4-9.7 43.7-9.7 66.4q0.9 0 1.8 0c0-22.6 3.3-44.8 9.7-66.1q-0.9-0.2-1.8-0.3zm1.8 0.3c-6.4 21.3-9.7 43.5-9.7 66.1q0.9 0 1.9 0c0-22.5 3.2-44.4 9.5-65.6q-0.8-0.3-1.7-0.5zm1.7 0.5c-6.3 21.2-9.5 43.1-9.5 65.6q0.9 0 1.8 0c0-22.4 3.2-44.4 9.6-65.4q-0.9-0.2-1.9-0.2zm1.9 0.2c-6.4 21-9.6 43-9.6 65.4q0.9 0 1.8 0c0-22.2 3.2-44 9.5-65q-0.8-0.3-1.7-0.4zm1.7 0.4c-6.3 21-9.5 42.8-9.5 65q0.9 0 1.8 0c0-22.1 3.2-43.9 9.5-64.7q-0.8-0.2-1.8-0.3zm1.8 0.3c-6.3 20.8-9.5 42.6-9.5 64.7q0.9 0 1.8 0c0-22 3.2-43.5 9.5-64.2q-0.9-0.3-1.8-0.5zm1.8 0.5c-6.3 20.7-9.5 42.2-9.5 64.2q0.9 0 1.8 0c0-21.9 3.3-43.4 9.5-64q-0.9-0.2-1.8-0.2zm1.8 0.2c-6.2 20.6-9.5 42.1-9.5 64q0.9 0 1.8 0c0-21.8 3.2-43.1 9.5-63.6q-0.8-0.3-1.8-0.4zm1.8 0.4c-6.3 20.5-9.5 41.8-9.5 63.6q0.9 0 1.8 0c0-21.6 3.3-43 9.5-63.3q-0.9-0.2-1.8-0.3zm1.8 0.3c-6.2 20.3-9.5 41.7-9.5 63.3q0.9 0 1.8 0c0-21.5 3.2-42.5 9.4-62.8q-0.8-0.3-1.7-0.5zm-36.6 63.3c0 23.4 3.2 46.3 9.7 68.4q0.9-0.2 1.8-0.4c-6.5-22-9.7-44.7-9.7-68q-0.9 0-1.8 0zm1.8 0c0 23.3 3.2 46 9.7 68q0.9-0.2 1.8-0.3c-6.5-21.9-9.7-44.6-9.7-67.7q-0.9 0-1.8 0zm1.8 0c0 23.1 3.2 45.8 9.7 67.7q0.9-0.2 1.8-0.4c-6.5-21.7-9.7-44.3-9.7-67.3q-0.9 0-1.8 0zm1.8 0c0 23 3.2 45.6 9.7 67.3q0.9-0.2 1.8-0.4c-6.4-21.6-9.7-44-9.7-66.9q-0.9 0-1.8 0zm1.8 0c0 22.9 3.3 45.3 9.7 66.9q0.9-0.2 1.8-0.3c-6.4-21.5-9.7-43.8-9.7-66.6q-0.9 0-1.8 0zm1.8 0c0 22.8 3.3 45.1 9.7 66.6q0.9-0.2 1.7-0.4c-6.3-21.4-9.6-43.6-9.6-66.2q-0.9 0-1.8 0zm1.8 0c0 22.6 3.3 44.8 9.6 66.2q0.9-0.2 1.8-0.3c-6.3-21.3-9.6-43.4-9.6-65.9q-0.9 0-1.8 0zm1.8 0c0 22.5 3.3 44.6 9.6 65.9q0.9-0.2 1.8-0.4c-6.3-21.1-9.5-43.1-9.5-65.5q-1 0-1.9 0zm1.9 0c0 22.4 3.2 44.4 9.5 65.5q0.9-0.2 1.8-0.3c-6.3-21.1-9.5-42.9-9.5-65.2q-0.9 0-1.8 0zm1.8 0c0 22.3 3.2 44.1 9.5 65.2 0.6-0.2 1.2-0.3 1.8-0.4-6.3-20.9-9.5-42.6-9.5-64.8q-0.9 0-1.8 0zm1.8 0c0 22.2 3.2 43.9 9.5 64.8q0.9-0.2 1.8-0.4c-6.3-20.8-9.5-42.3-9.5-64.4q-0.9 0-1.8 0zm1.8 0c0 22.1 3.2 43.6 9.5 64.4q0.9-0.1 1.8-0.3c-6.3-20.7-9.5-42.2-9.5-64.1q-0.9 0-1.8 0zm1.8 0c0 21.9 3.2 43.4 9.5 64.1q0.9 0 1.8-0.2c-6.3-20.6-9.5-42.1-9.5-63.9q-0.9 0-1.8 0zm1.8 0c0 21.8 3.2 43.3 9.5 63.9q0.9-0.2 1.7-0.5c-6.2-20.4-9.4-41.7-9.4-63.4q-0.9 0-1.8 0zm1.8 0c0 21.7 3.2 43 9.4 63.4q1 0 1.9-0.2c-6.3-20.3-9.5-41.6-9.5-63.2q-0.9 0-1.8 0zm1.8 0c0 21.6 3.2 42.9 9.5 63.2q0.9-0.2 1.7-0.5c-6.2-20.2-9.4-41.2-9.4-62.7q-0.9 0-1.8 0zm-17.4 68.4q3.9 13.2 9.4 26.1 8.2 19.4 19.5 36.9 0.9-0.4 1.7-0.7c-7.5-11.6-14-23.9-19.5-36.7q-0.3-0.9-0.7-1.8-4.9-11.9-8.6-24.2-0.9 0.2-1.8 0.4zm1.8-0.4q3.7 12.3 8.6 24.2 0.4 0.9 0.7 1.8c5.5 12.8 12 25.1 19.5 36.7q0.9-0.4 1.7-0.7c-7.5-11.6-14-23.8-19.4-36.5q-0.4-0.9-0.7-1.7-5-11.9-8.6-24.1-0.9 0.1-1.8 0.3zm1.8-0.3q3.6 12.2 8.6 24.1 0.3 0.8 0.7 1.7c5.4 12.7 11.9 24.9 19.4 36.5q0.9-0.4 1.7-0.7c-7.4-11.5-13.9-23.6-19.4-36.4q-0.3-0.8-0.7-1.6-4.9-11.8-8.5-24-0.9 0.2-1.8 0.4zm1.8-0.4q3.6 12.2 8.5 24 0.4 0.8 0.7 1.6c5.5 12.8 12 24.9 19.4 36.4q0.9-0.4 1.7-0.8-11.2-17.1-19.3-36-0.4-0.9-0.7-1.7-4.9-11.8-8.5-23.9-0.9 0.2-1.8 0.4zm1.8-0.4q3.6 12.1 8.5 23.9 0.3 0.8 0.7 1.7 8.1 18.9 19.3 36 0.9-0.3 1.7-0.7c-7.4-11.3-13.8-23.3-19.2-35.8q-0.4-0.9-0.7-1.7-5-11.7-8.5-23.7-0.9 0.1-1.8 0.3zm1.8-0.3q3.5 12 8.5 23.7 0.3 0.8 0.7 1.7c5.4 12.5 11.8 24.5 19.2 35.8q0.9-0.3 1.7-0.7c-7.4-11.2-13.8-23.2-19.2-35.6q-0.3-0.9-0.7-1.7-4.9-11.6-8.5-23.6-0.8 0.2-1.7 0.4zm1.7-0.4q3.6 12 8.5 23.6 0.4 0.8 0.7 1.7c5.4 12.4 11.8 24.4 19.2 35.6q0.9-0.4 1.7-0.7c-7.4-11.2-13.8-23-19.1-35.4q-0.4-0.9-0.7-1.7 0 0 0 0 0 0 0 0-4.9-11.5-8.5-23.4-0.9 0.1-1.8 0.3zm1.8-0.3q3.6 11.9 8.5 23.4 0 0 0 0 0 0 0 0 0.3 0.8 0.7 1.7c5.3 12.4 11.7 24.2 19.1 35.4q0.9-0.4 1.7-0.7c-7.7-11.6-14.3-23.9-19.8-36.9q-4.8-11.5-8.4-23.3-0.9 0.2-1.8 0.4zm1.8-0.4q3.6 11.8 8.4 23.3c5.5 13 12.1 25.3 19.8 36.9q0.9-0.4 1.7-0.7c-7.7-11.6-14.2-23.8-19.7-36.7q-0.2-0.4-0.4-0.9-4.6-10.9-8-22.2-0.9 0.1-1.8 0.3zm1.8-0.3q3.4 11.3 8 22.2 0.2 0.5 0.4 0.9c5.5 12.9 12 25.1 19.7 36.7q0.9-0.4 1.7-0.7c-7.6-11.5-14.2-23.7-19.6-36.4q-0.2-0.5-0.4-0.9-4.6-11-8-22.2c-0.6 0.1-1.2 0.2-1.8 0.4zm1.8-0.4q3.4 11.2 8 22.2 0.2 0.4 0.4 0.9c5.4 12.7 12 24.9 19.6 36.4q0.9-0.4 1.7-0.7c-7.6-11.4-14.1-23.5-19.6-36.2q-0.2-0.5-0.4-0.9-4.5-10.9-7.9-22.1-0.9 0.2-1.8 0.4zm1.8-0.4q3.4 11.2 7.9 22.1 0.2 0.4 0.4 0.9c5.5 12.7 12 24.8 19.6 36.2q0.9-0.4 1.7-0.7c-7.6-11.4-14.1-23.4-19.5-36q-0.2-0.4-0.4-0.9-4.6-10.8-7.9-21.9-0.9 0.2-1.8 0.3zm1.8-0.3q3.3 11.1 7.9 21.9 0.2 0.5 0.4 0.9c5.4 12.6 11.9 24.6 19.5 36q0.9-0.4 1.7-0.7c-7.6-11.3-14.1-23.3-19.5-35.9q-0.2-0.4-0.4-0.9c-3-7.1-5.6-14.2-7.8-21.5q-0.9 0.2-1.8 0.2zm1.8-0.2c2.2 7.3 4.8 14.4 7.8 21.5q0.2 0.5 0.4 0.9c5.4 12.6 11.9 24.6 19.5 35.9q0.9-0.4 1.8-0.7c-7.7-11.3-14.2-23.3-19.7-36q-0.2-0.4-0.4-0.9-4.4-10.4-7.7-21.2-0.8 0.3-1.7 0.5zm1.7-0.5q3.3 10.8 7.7 21.2 0.2 0.5 0.4 0.9c5.5 12.7 12 24.7 19.7 36q0.8-0.4 1.7-0.7c-7.6-11.3-14.2-23.1-19.6-35.7q-0.2-0.4-0.4-0.9 0-0.1-0.1-0.2c-2.9-6.9-5.4-13.8-7.5-20.8q-0.9 0.2-1.9 0.2zm1.9-0.2c2.1 7 4.6 13.9 7.5 20.8q0.1 0.1 0.1 0.2 0.2 0.5 0.4 0.9c5.4 12.6 12 24.4 19.6 35.7q0.8-0.4 1.7-0.7c-7.9-11.6-14.6-23.9-20.1-36.9q-4.3-10.1-7.5-20.5-0.8 0.3-1.7 0.5zm2 68.2c9.4 14.4 20.2 27.9 32.6 40.2q6.3 6.4 13.1 12.2 0.8-0.5 1.6-1.1-6.8-5.7-13.1-12 0 0 0 0 0-0.1 0-0.1-2.8-2.7-5.5-5.6c-10.1-10.6-19.1-22.1-27-34.3q-0.8 0.3-1.7 0.7zm1.7-0.7c7.9 12.2 16.9 23.7 27 34.3q2.7 2.9 5.5 5.6 0 0 0 0.1 0 0 0 0 6.3 6.3 13.1 12 0.7-0.5 1.5-1-6.7-5.8-13-12 0 0 0 0 0 0 0 0-2.8-2.8-5.4-5.6c-10.1-10.6-19.1-22-27-34.1q-0.8 0.3-1.7 0.7zm1.7-0.7c7.9 12.1 16.9 23.5 27 34.1q2.6 2.8 5.4 5.6 0 0 0 0 0 0 0 0 6.3 6.2 13 12 0.8-0.5 1.6-1.1-6.7-5.7-13-11.9 0 0 0 0 0 0 0 0-2.8-2.7-5.4-5.5 0 0 0 0c-10.1-10.6-19-21.9-26.9-33.9q-0.8 0.3-1.7 0.7zm1.7-0.7c7.9 12 16.8 23.3 26.9 33.9q0 0 0 0 2.6 2.8 5.4 5.5 0 0 0 0 0 0 0 0 6.3 6.2 13 11.9 0.8-0.5 1.5-1-6.6-5.7-12.9-11.9 0 0 0 0-2.8-2.7-5.4-5.4c-10-10.5-18.9-21.8-26.8-33.8q-0.8 0.4-1.7 0.8zm1.7-0.8c7.9 12 16.8 23.3 26.8 33.8q2.6 2.7 5.4 5.4 0 0 0 0 6.3 6.2 12.9 11.9 0.8-0.6 1.6-1.1-6.7-5.6-12.9-11.7 0 0 0 0-2.7-2.7-5.4-5.5 0 0 0 0c-10-10.4-18.9-21.6-26.7-33.5q-0.8 0.4-1.7 0.7zm1.7-0.7c7.8 11.9 16.7 23.1 26.7 33.5q0 0 0 0 2.7 2.8 5.4 5.5 0 0 0 0 6.2 6.1 12.9 11.7 0.8-0.5 1.5-1.1-6.6-5.5-12.8-11.6 0 0 0 0-2.7-2.7-5.4-5.4 0 0 0 0c-9.9-10.3-18.8-21.5-26.6-33.3q-0.8 0.4-1.7 0.7zm1.7-0.7c7.8 11.8 16.7 23 26.6 33.3q0 0 0 0 2.7 2.7 5.4 5.4 0 0 0 0 6.2 6.1 12.8 11.6 0.8-0.5 1.6-1-6.6-5.5-12.8-11.6 0 0 0 0-2.7-2.6-5.3-5.3 0 0 0 0 0 0-0.1 0c-9.9-10.3-18.7-21.3-26.5-33.1q-0.8 0.3-1.7 0.7zm1.7-0.7c7.8 11.8 16.6 22.8 26.5 33.1q0.1 0 0.1 0 0 0 0 0 2.6 2.7 5.3 5.3 0 0 0 0 6.2 6.1 12.8 11.6 0.8-0.6 1.6-1.1-6.6-5.5-12.8-11.4-2.7-2.7-5.3-5.4c-9.9-10.1-18.7-21.1-26.5-32.8q-0.8 0.3-1.7 0.7zm1.7-0.7c7.8 11.7 16.6 22.7 26.5 32.8q2.6 2.7 5.3 5.4 6.2 5.9 12.8 11.4 0.7-0.5 1.5-1.1-6.5-5.4-12.7-11.3-2.7-2.6-5.3-5.3 0 0 0 0c-9.9-10.1-18.7-21-26.4-32.6q-0.8 0.3-1.7 0.7zm1.7-0.7c7.7 11.6 16.5 22.5 26.4 32.6q0 0 0 0 2.6 2.7 5.3 5.3 6.2 5.9 12.7 11.3 0.8-0.5 1.6-1-6.5-5.4-12.7-11.3-2.7-2.5-5.3-5.2 0 0 0 0-14.7-15.1-26.3-32.4-0.8 0.3-1.7 0.7zm1.7-0.7q11.6 17.3 26.3 32.4 0 0 0 0 2.6 2.7 5.3 5.2 6.2 5.9 12.7 11.3 0.7-0.5 1.5-1.1-6.5-5.3-12.6-11.1-2.6-2.6-5.2-5.2 0 0-0.1 0c-9.7-10-18.5-20.8-26.2-32.2q-0.8 0.3-1.7 0.7zm1.7-0.7c7.7 11.4 16.5 22.2 26.2 32.2q0.1 0 0.1 0 2.6 2.6 5.2 5.2 6.1 5.8 12.6 11.1 0.8-0.5 1.6-1-6.5-5.3-12.6-11.1-2.6-2.5-5.2-5.1 0-0.1 0-0.1c-9.8-9.9-18.5-20.6-26.2-31.9q-0.8 0.3-1.7 0.7zm1.7-0.7c7.7 11.3 16.4 22 26.2 31.9q0 0 0 0.1 2.6 2.6 5.2 5.1 6.1 5.8 12.6 11.1 0.8-0.5 1.5-1.1-6.4-5.2-12.4-10.9-2.7-2.5-5.3-5.1 0-0.1 0-0.1 0 0 0 0c-9.7-9.8-18.4-20.4-26.1-31.7q-0.8 0.3-1.7 0.7zm1.7-0.7c7.7 11.3 16.4 21.9 26.1 31.7q0 0 0 0 0 0 0 0.1 2.6 2.6 5.3 5.1 6 5.7 12.4 10.9 0.8-0.5 1.6-1-6.4-5.2-12.4-10.9-2.6-2.5-5.2-5.1 0 0-0.1 0 0 0 0 0c-9.7-9.8-18.3-20.3-25.9-31.5q-0.9 0.3-1.8 0.7zm1.8-0.7c7.6 11.2 16.2 21.7 25.9 31.5q0 0 0 0 0.1 0 0.1 0 2.6 2.6 5.2 5.1 6 5.7 12.4 10.9 0.8-0.5 1.6-1-6.4-5.2-12.4-10.8-2.6-2.5-5.2-5.1 0 0 0 0 0 0 0 0 0 0-0.1 0c-9.6-9.7-18.3-20.2-25.8-31.3q-0.9 0.3-1.7 0.7zm1.7-0.7c7.5 11.1 16.2 21.6 25.8 31.3q0.1 0 0.1 0 0 0 0 0 0 0 0 0 2.6 2.6 5.2 5.1 6 5.6 12.4 10.8 0.8-0.6 1.6-1.1-9.2-7.4-17.6-15.8c-9.7-9.6-18.3-19.9-25.8-31q-0.9 0.3-1.7 0.7zm20.1 63c17.6 15.2 37.1 27.7 58.3 37.2q0.7-0.6 1.4-1.3-2.4-1.1-4.8-2.2c-19.3-9.2-37.1-20.8-53.3-34.8q-0.8 0.6-1.6 1.1zm1.6-1.1c16.2 14 34 25.6 53.3 34.8q2.4 1.1 4.8 2.2 0.6-0.7 1.3-1.4-2.4-1.1-4.7-2.2c-19.2-9.1-37-20.6-53.2-34.4q-0.8 0.5-1.5 1zm1.5-1c16.2 13.8 34 25.3 53.2 34.4q2.3 1.1 4.7 2.2 0.7-0.7 1.4-1.4-2.4-1.1-4.8-2.2c-19.1-9-36.8-20.4-52.9-34.1q-0.8 0.6-1.6 1.1zm1.6-1.1c16.1 13.7 33.8 25.1 52.9 34.1q2.4 1.1 4.8 2.2 0.6-0.7 1.3-1.4-2.4-1.1-4.7-2.1c-19.1-8.9-36.7-20.3-52.8-33.8q-0.7 0.5-1.5 1zm1.5-1c16.1 13.5 33.7 24.9 52.8 33.8q2.3 1 4.7 2.1 0.7-0.7 1.4-1.4-2.4-1-4.7-2.1c-19-8.8-36.7-20-52.6-33.5q-0.8 0.5-1.6 1.1zm1.6-1.1c15.9 13.5 33.6 24.7 52.6 33.5q2.3 1.1 4.7 2.1 0.6-0.7 1.3-1.4-2.4-1-4.7-2.1c-18.9-8.7-36.4-19.8-52.4-33.2q-0.7 0.6-1.5 1.1zm1.5-1.1c16 13.4 33.5 24.5 52.4 33.2q2.3 1.1 4.7 2.1 0.7-0.7 1.3-1.4-2.3-1-4.6-2.1c-18.9-8.6-36.3-19.6-52.2-32.8q-0.8 0.5-1.6 1zm1.6-1c15.9 13.2 33.3 24.2 52.2 32.8q2.3 1.1 4.6 2.1 0.7-0.7 1.4-1.4-2.3-1-4.6-2c-18.8-8.5-36.2-19.4-52-32.6q-0.8 0.5-1.6 1.1zm1.6-1.1c15.8 13.2 33.2 24.1 52 32.6q2.3 1 4.6 2 0.7-0.7 1.4-1.4-2.4-1-4.7-2c-18.7-8.4-36.1-19.2-51.8-32.3q-0.8 0.6-1.5 1.1zm1.5-1.1c15.7 13.1 33.1 23.9 51.8 32.3q2.3 1 4.7 2 0.6-0.7 1.3-1.4-2.3-0.9-4.6-2c-18.7-8.3-35.9-19-51.6-31.9q-0.8 0.5-1.6 1zm1.6-1c15.7 12.9 32.9 23.6 51.6 31.9q2.3 1.1 4.6 2 0.7-0.7 1.4-1.4-2.4-0.9-4.6-1.9c-18.6-8.2-35.9-18.8-51.5-31.7q-0.8 0.6-1.5 1.1zm1.5-1.1c15.6 12.9 32.9 23.5 51.5 31.7q2.2 1 4.6 1.9 0.6-0.7 1.3-1.4-2.3-0.9-4.6-1.9c-18.5-8.1-35.6-18.6-51.2-31.3q-0.8 0.5-1.6 1zm1.6-1c15.6 12.7 32.7 23.2 51.2 31.3q2.3 1 4.6 1.9 0.7-0.7 1.4-1.4-2.3-0.9-4.6-1.9c-18.4-8-35.5-18.3-51.1-31q-0.7 0.6-1.5 1.1zm1.5-1.1c15.6 12.7 32.7 23 51.1 31q2.3 1 4.6 1.9 0.6-0.6 1.3-1.3-2.3-1-4.5-1.9c-18.4-7.9-35.4-18.2-50.9-30.7q-0.8 0.5-1.6 1zm1.6-1c15.5 12.5 32.5 22.8 50.9 30.7q2.2 0.9 4.5 1.9 0.7-0.7 1.4-1.4-2.3-0.9-4.6-1.9c-18.3-7.8-35.2-18-50.6-30.3q-0.8 0.5-1.6 1zm1.6-1c15.4 12.3 32.3 22.5 50.6 30.3q2.3 1 4.6 1.9 0.6-0.7 1.3-1.4-2.3-0.9-4.5-1.9c-18.2-7.7-35.1-17.7-50.4-30q-0.8 0.5-1.6 1.1zm34.9 53q2.9 1.4 5.8 2.6c19.5 8.2 39.8 13.8 60.7 16.7q0.6-0.8 1.2-1.7c-20.8-2.8-41.1-8.3-60.6-16.4q0 0 0 0-2.9-1.3-5.7-2.5-0.7 0.7-1.4 1.3zm1.4-1.3q2.8 1.2 5.7 2.5 0 0 0 0c19.5 8.1 39.8 13.6 60.6 16.4q0.5-0.8 1.1-1.7c-20.8-2.7-40.9-8.1-60.3-16.2q-2.9-1.2-5.8-2.4-0.7 0.7-1.3 1.4zm1.3-1.4q2.9 1.2 5.8 2.4c19.4 8.1 39.5 13.5 60.3 16.2q0.4-0.8 1-1.7c-20.6-2.6-40.7-7.9-60-15.9q0 0 0 0-2.9-1.2-5.7-2.4-0.7 0.7-1.4 1.4zm1.4-1.4q2.8 1.2 5.7 2.4 0 0 0 0c19.3 8 39.4 13.3 60 15.9q0.5-0.8 1.1-1.7c-20.5-2.5-40.5-7.7-59.8-15.6q-2.9-1.2-5.7-2.4-0.7 0.7-1.3 1.4zm1.3-1.4q2.8 1.2 5.7 2.4c19.3 7.9 39.3 13.1 59.8 15.6q0.5-0.8 1-1.7c-20.4-2.4-40.3-7.6-59.5-15.3q-2.8-1.2-5.6-2.4-0.7 0.7-1.4 1.4zm1.4-1.4q2.8 1.2 5.6 2.4c19.2 7.7 39.1 12.9 59.5 15.3q0.6-0.8 1.1-1.7c-20.3-2.3-40.2-7.4-59.2-15q-2.9-1.2-5.7-2.4-0.7 0.7-1.3 1.4zm1.3-1.4q2.8 1.2 5.7 2.4c19 7.6 38.9 12.7 59.2 15q0.5-0.8 1-1.7c-20.2-2.3-39.9-7.2-58.9-14.8q-2.8-1.1-5.7-2.3-0.6 0.7-1.3 1.4zm1.3-1.4q2.9 1.2 5.7 2.3c19 7.6 38.7 12.5 58.9 14.8q0.6-0.8 1.1-1.7c-20.1-2.2-39.8-7-58.7-14.5q-2.8-1.1-5.6-2.3-0.7 0.7-1.4 1.4zm1.4-1.4q2.8 1.2 5.6 2.3c18.9 7.5 38.6 12.3 58.7 14.5q0.6-0.8 1.1-1.7c-20.1-2.1-39.6-6.9-58.5-14.2q0 0 0 0-2.8-1.1-5.5-2.3-0.7 0.7-1.4 1.4zm1.4-1.4q2.7 1.2 5.5 2.3 0 0 0 0c18.9 7.3 38.4 12.1 58.5 14.2q0.5-0.8 1-1.7c-19.9-2-39.4-6.7-58.1-13.9q0 0 0 0-2.8-1.1-5.6-2.3-0.7 0.7-1.3 1.4zm1.3-1.4q2.8 1.2 5.6 2.3 0 0 0 0c18.7 7.2 38.2 11.9 58.1 13.9q0.5-0.8 1.1-1.7c-19.9-1.9-39.3-6.5-57.9-13.7q0 0 0 0-2.8-1-5.5-2.2-0.7 0.7-1.4 1.4zm1.4-1.4q2.7 1.2 5.5 2.2 0 0 0 0c18.6 7.2 38 11.8 57.9 13.7q0.5-0.8 1-1.7c-19.7-1.9-39-6.3-57.6-13.4q-2.8-1-5.5-2.2-0.7 0.7-1.3 1.4zm1.3-1.4q2.7 1.2 5.5 2.2c18.6 7.1 37.9 11.5 57.6 13.4q0.6-0.9 1.1-1.7c-19.7-1.8-38.9-6.2-57.4-13.1q-2.7-1-5.4-2.2-0.7 0.7-1.4 1.4zm1.4-1.4q2.7 1.2 5.4 2.2c18.5 6.9 37.7 11.3 57.4 13.1q0.5-0.8 1-1.7c-19.5-1.7-38.7-6-57-12.8q-2.8-1-5.5-2.1-0.7 0.7-1.3 1.3zm1.3-1.3q2.7 1.1 5.5 2.1c18.3 6.8 37.5 11.1 57 12.8q0.5-0.9 1.1-1.7c-19.5-1.6-38.5-5.8-56.8-12.5q-2.7-1-5.4-2.1-0.7 0.7-1.4 1.4zm1.4-1.4q2.7 1.1 5.4 2.1c18.3 6.7 37.3 10.9 56.8 12.5q0.5-0.9 1-1.7c-21.3-1.7-42-6.5-61.9-14.3q-0.7 0.7-1.3 1.4zm46.2 40.1q16.8 2.4 33.9 2.4 18 0 35.9 0 0.5-0.9 0.8-1.8-17.8 0-35.7 0-8 0-15.9-0.5-9-0.6-17.8-1.8-0.6 0.9-1.2 1.7zm1.2-1.7q8.8 1.2 17.8 1.8 7.9 0.5 15.9 0.5 17.9 0 35.7 0 0.4-0.9 0.8-1.8-17.8 0-35.6 0-7.9 0-15.8-0.5-8.9-0.5-17.7-1.7-0.6 0.9-1.1 1.7zm1.1-1.7q8.8 1.2 17.7 1.7 7.9 0.5 15.8 0.5 17.8 0 35.6 0 0.3-0.9 0.7-1.8-17.8-0.1-35.5-0.1-7.8 0-15.6-0.4-8.9-0.4-17.7-1.6-0.6 0.9-1 1.7zm1-1.7q8.8 1.2 17.7 1.6 7.8 0.4 15.6 0.4 17.7 0 35.5 0.1 0.3-1 0.7-1.9-17.6 0-35.3 0-7.7 0-15.4-0.3-8.9-0.5-17.7-1.6-0.6 0.9-1.1 1.7zm1.1-1.7q8.8 1.1 17.7 1.6 7.7 0.3 15.4 0.3 17.7 0 35.3 0 0.4-0.9 0.8-1.8-17.6 0-35.2 0-7.7 0-15.3-0.3-8.9-0.4-17.7-1.5-0.5 0.9-1 1.7zm1-1.7q8.8 1.1 17.7 1.5 7.6 0.3 15.3 0.3 17.6 0 35.2 0 0.3-0.9 0.6-1.8-17.4 0-34.9 0-7.6 0-15.2-0.3-8.9-0.3-17.6-1.4-0.5 0.9-1.1 1.7zm1.1-1.7q8.7 1.1 17.6 1.4 7.6 0.3 15.2 0.3 17.5 0 34.9 0 0.4-0.9 0.7-1.8-17.3 0-34.7 0-7.6 0-15.2-0.3-8.8-0.3-17.5-1.3-0.5 0.9-1 1.7zm1-1.7q8.7 1 17.5 1.3 7.6 0.3 15.2 0.3 17.4 0 34.7 0 0.4-0.9 0.8-1.8-17.3 0-34.6 0-7.5 0-15-0.2-8.8-0.3-17.5-1.3-0.5 0.9-1.1 1.7zm1.1-1.7q8.7 1 17.5 1.3 7.5 0.2 15 0.2 17.3 0 34.6 0 0.4-0.9 0.7-1.8-17.2 0-34.4 0-7.4 0-14.9-0.2 0 0 0 0-8.8-0.3-17.4-1.2-0.5 0.9-1.1 1.7zm1.1-1.7q8.6 0.9 17.4 1.2 0 0 0 0 7.5 0.2 14.9 0.2 17.2 0 34.4 0 0.4-0.9 0.7-1.8-17.1 0-34.2 0-7.4 0-14.8-0.2-0.1 0-0.1 0-8.7-0.2-17.3-1.1-0.5 0.9-1 1.7zm1-1.7q8.6 0.9 17.3 1.1 0 0 0.1 0 7.4 0.2 14.8 0.2 17.1 0 34.2 0 0.3-0.9 0.7-1.8-17 0-34 0-7.4 0-14.7-0.2-0.1 0-0.1 0-8.7-0.2-17.2-1-0.6 0.9-1.1 1.7zm1.1-1.7q8.5 0.8 17.2 1 0 0 0.1 0 7.3 0.2 14.7 0.2 17 0 34 0 0.3-0.9 0.7-1.8-16.9 0-33.8 0-7.3 0-14.6-0.1-0.1 0-0.2 0-8.6-0.2-17.1-1-0.5 0.9-1 1.7zm1-1.7q8.5 0.8 17.1 1 0.1 0 0.2 0 7.3 0.1 14.6 0.1 16.9 0 33.8 0 0.4-0.9 0.7-1.8-16.8 0-33.6 0-7.3 0-14.5-0.1-0.1 0-0.1 0-0.1 0-0.1 0-8.5-0.1-17-0.9-0.5 0.8-1.1 1.7zm1.1-1.7q8.5 0.8 17 0.9 0 0 0.1 0 0 0 0.1 0 7.2 0.1 14.5 0.1 16.8 0 33.6 0 0.4-0.9 0.7-1.8-16.7 0-33.5 0-7.2 0-14.4-0.1 0 0 0 0-0.1 0-0.1 0-8.6-0.1-17-0.8-0.5 0.9-1 1.7zm1-1.7q8.4 0.7 17 0.8 0 0 0.1 0 0 0 0 0 7.2 0.1 14.4 0.1 16.8 0 33.5 0 0.3-1 0.7-1.9-16.7 0-33.3 0-7.2 0-14.3 0 0 0-0.1 0 0 0 0 0-0.1 0-0.1 0-8.5 0-16.8-0.7-0.6 0.8-1.1 1.7zm1.1-1.7q8.3 0.7 16.8 0.7 0 0 0.1 0 0 0 0 0 0.1 0 0.1 0 7.1 0 14.3 0 16.6 0 33.3 0 0.3-0.9 0.7-1.8-23.7 0-47.4 0-8.5 0-16.9-0.6-0.5 0.8-1 1.7zm53.8 27.9q35 0 70.1 0 0.2-0.9 0.4-1.8c-23.2 0-46.4 0-69.7 0q-0.3 0.9-0.8 1.8zm0.8-1.8c23.3 0 46.5 0 69.7 0q0.2-0.9 0.3-1.8-34.6 0-69.2 0-0.4 0.9-0.8 1.8zm0.8-1.8q34.6 0 69.2 0 0.2-0.9 0.4-1.8-34.5 0-68.9 0-0.4 0.9-0.7 1.8zm0.7-1.8q34.4 0 68.9 0 0.1-1 0.3-1.9-34.2 0-68.5 0-0.4 0.9-0.7 1.9zm0.7-1.9q34.3 0 68.5 0 0.3-0.9 0.4-1.8-34.1 0-68.1 0-0.4 0.9-0.8 1.8zm0.8-1.8q34 0 68.1 0 0.2-0.9 0.4-1.8-34 0-67.9 0-0.3 0.9-0.6 1.8zm0.6-1.8q33.9 0 67.9 0 0.1-0.9 0.3-1.8-33.7 0-67.5 0-0.3 0.9-0.7 1.8zm0.7-1.8q33.8 0 67.5 0 0.2-0.9 0.4-1.8-33.6 0-67.1 0-0.4 0.9-0.8 1.8zm0.8-1.8q33.5 0 67.1 0 0.2-0.9 0.4-1.8-33.4 0-66.8 0-0.3 0.9-0.7 1.8zm0.7-1.8q33.4 0 66.8 0 0.1-0.9 0.3-1.8-33.2 0-66.4 0-0.3 0.9-0.7 1.8zm0.7-1.8q33.2 0 66.4 0 0.2-0.9 0.3-1.8-33 0-66 0-0.4 0.9-0.7 1.8zm0.7-1.8q33 0 66 0 0.2-0.9 0.4-1.8-32.8 0-65.7 0-0.4 0.9-0.7 1.8zm0.7-1.8q32.9 0 65.7 0 0.2-0.9 0.4-1.8-32.7 0-65.4 0-0.3 0.9-0.7 1.8zm0.7-1.8q32.7 0 65.4 0 0.1-0.9 0.3-1.8-32.5 0-65 0-0.3 0.9-0.7 1.8zm0.7-1.8q32.5 0 65 0 0.2-1 0.3-1.9-32.3 0-64.6 0-0.4 0.9-0.7 1.9zm0.7-1.9q32.3 0 64.6 0 0.2-0.9 0.4-1.8-32.1 0-64.3 0-0.4 0.9-0.7 1.8zm59.3 27.2c23.3 0 82.9 0 106.2 0q0-0.9 0-1.8c-23.2 0-82.6 0-105.8 0q-0.2 0.9-0.4 1.8zm0.4-1.8c23.2 0 82.6 0 105.8 0q0-0.9 0-1.8c-23.1 0-82.4 0-105.5 0q-0.1 0.9-0.3 1.8zm0.3-1.8c23.1 0 82.4 0 105.5 0q0-0.9 0-1.8c-23 0-82.2 0-105.1 0q-0.2 0.9-0.4 1.8zm0.4-1.8c22.9 0 82.1 0 105.1 0q0-1 0-1.9c-22.8 0-81.9 0-104.8 0q-0.2 0.9-0.3 1.9zm0.3-1.9c22.9 0 82 0 104.8 0q0-0.9 0-1.8c-22.7 0-81.7 0-104.4 0q-0.1 0.9-0.4 1.8zm0.4-1.8c22.7 0 81.7 0 104.4 0q0-0.9 0-1.8c-22.6 0-81.4 0-104 0q-0.2 0.9-0.4 1.8zm0.4-1.8c22.6 0 81.4 0 104 0q0-0.9 0-1.8c-22.5 0-81.2 0-103.7 0q-0.2 0.9-0.3 1.8zm0.3-1.8c22.5 0 81.2 0 103.7 0q0-0.9 0-1.8c-22.4 0-81 0-103.3 0q-0.2 0.9-0.4 1.8zm0.4-1.8c22.3 0 80.9 0 103.3 0q0-0.9 0-1.8c-22.2 0-80.7 0-102.9 0q-0.2 0.9-0.4 1.8zm0.4-1.8c22.2 0 80.7 0 102.9 0q0-0.9 0-1.8c-22.1 0-80.5 0-102.6 0q-0.2 0.9-0.3 1.8zm0.3-1.8c22.1 0 80.5 0 102.6 0q0-0.9 0-1.8c-22 0-80.3 0-102.3 0q-0.1 0.9-0.3 1.8zm0.3-1.8c22 0 80.3 0 102.3 0q0-0.9 0-1.8c-21.9 0-80 0-101.9 0q-0.2 0.9-0.4 1.8zm0.4-1.8c21.9 0 80 0 101.9 0q0-0.9 0-1.8c-21.8 0-79.8 0-101.5 0q-0.2 0.9-0.4 1.8zm0.4-1.8c21.7 0 79.7 0 101.5 0q0-0.9 0-1.8c-21.7 0-79.5 0-101.2 0q-0.2 0.9-0.3 1.8zm0.3-1.8c21.7 0 79.5 0 101.2 0q0-1 0-1.9c-21.5 0-79.3 0-100.9 0q-0.1 0.9-0.3 1.9zm0.3-1.9c21.6 0 79.4 0 100.9 0q0-0.9 0-1.8c-21.4 0-79.1 0-100.5 0q-0.2 0.9-0.4 1.8zm100.9 27.2c23.4 0 43.7 0 67 0q-0.2-0.9-0.4-1.8c-23.2 0-43.4 0-66.6 0q0 0.9 0 1.8zm0-1.8c23.2 0 43.4 0 66.6 0q-0.2-0.9-0.3-1.8c-23.1 0-43.2 0-66.3 0q0 0.9 0 1.8zm0-1.8c23.1 0 43.2 0 66.3 0q-0.2-0.9-0.4-1.8c-22.9 0-42.9 0-65.9 0q0 0.9 0 1.8zm0-1.8c23 0 43 0 65.9 0q-0.2-1-0.4-1.9c-22.8 0-42.6 0-65.5 0q0 0.9 0 1.9zm0-1.9c22.9 0 42.7 0 65.5 0q-0.2-0.9-0.3-1.8c-22.8 0-42.5 0-65.2 0q0 0.9 0 1.8zm0-1.8c22.7 0 42.4 0 65.2 0q-0.2-0.9-0.4-1.8c-22.6 0-42.2 0-64.8 0q0 0.9 0 1.8zm0-1.8c22.6 0 42.2 0 64.8 0q-0.1-0.9-0.3-1.8c-22.5 0-42 0-64.5 0q0 0.9 0 1.8zm0-1.8c22.5 0 42 0 64.5 0q-0.2-0.9-0.4-1.8c-22.4 0-41.7 0-64.1 0q0 0.9 0 1.8zm0-1.8c22.4 0 41.7 0 64.1 0q-0.2-0.9-0.4-1.8c-22.2 0-41.4 0-63.7 0q0 0.9 0 1.8zm0-1.8c22.3 0 41.5 0 63.7 0q-0.1-0.9-0.3-1.8c-22.1 0-41.3 0-63.4 0q0 0.9 0 1.8zm0-1.8c22.1 0 41.3 0 63.4 0q-0.2-0.9-0.3-1.8c-22.1 0-41.1 0-63.1 0q0 0.9 0 1.8zm0-1.8c22 0 41 0 63.1 0q-0.2-0.9-0.4-1.8c-21.9 0-40.8 0-62.7 0q0 0.9 0 1.8zm0-1.8c21.9 0 40.8 0 62.7 0q-0.2-0.9-0.4-1.8c-21.8 0-40.5 0-62.3 0q0 0.9 0 1.8zm0-1.8c21.8 0 40.5 0 62.3 0q-0.1-0.9-0.3-1.8c-21.7 0-40.3 0-62 0q0 0.9 0 1.8zm0-1.8c21.7 0 40.3 0 62 0q-0.2-1-0.3-1.9c-21.6 0-40.1 0-61.7 0q0 0.9 0 1.9zm0-1.9c21.6 0 40.1 0 61.7 0q-0.2-0.9-0.4-1.8c-21.4 0-39.9 0-61.3 0q0 0.9 0 1.8zm67 27.2q35.1 0 70.1 0-0.5-0.9-0.9-1.8-34.8 0-69.6 0 0.2 0.9 0.4 1.8zm-0.4-1.8q34.8 0 69.6 0-0.3-0.9-0.7-1.8-34.6 0-69.2 0 0.1 0.9 0.3 1.8zm-0.3-1.8q34.6 0 69.2 0-0.3-0.9-0.7-1.8-34.4 0-68.9 0 0.2 0.9 0.4 1.8zm-0.4-1.8q34.5 0 68.9 0-0.3-1-0.7-1.9-34.3 0-68.6 0 0.2 0.9 0.4 1.9zm-0.4-1.9q34.3 0 68.6 0-0.4-0.9-0.8-1.8-34 0-68.1 0 0.1 0.9 0.3 1.8zm-0.3-1.8q34.1 0 68.1 0-0.3-0.9-0.7-1.8-33.9 0-67.8 0 0.2 0.9 0.4 1.8zm-0.4-1.8q33.9 0 67.8 0-0.3-0.9-0.6-1.8-33.8 0-67.5 0 0.2 0.9 0.3 1.8zm-0.3-1.8q33.7 0 67.5 0-0.4-0.9-0.8-1.8-33.5 0-67.1 0 0.2 0.9 0.4 1.8zm-0.4-1.8q33.6 0 67.1 0-0.4-0.9-0.7-1.8-33.4 0-66.8 0 0.2 0.9 0.4 1.8zm-0.4-1.8q33.4 0 66.8 0-0.4-0.9-0.7-1.8-33.2 0-66.4 0 0.2 0.9 0.3 1.8zm-0.3-1.8q33.2 0 66.4 0-0.3-0.9-0.7-1.8-33 0-66 0 0.1 0.9 0.3 1.8zm-0.3-1.8q33 0 66 0-0.3-0.9-0.7-1.8-32.9 0-65.7 0 0.2 0.9 0.4 1.8zm-0.4-1.8q32.8 0 65.7 0-0.4-0.9-0.8-1.8-32.6 0-65.3 0 0.2 0.9 0.4 1.8zm-0.4-1.8q32.7 0 65.3 0-0.3-0.9-0.6-1.8-32.5 0-65 0 0.2 0.9 0.3 1.8zm-0.3-1.8q32.5 0 65 0-0.4-1-0.7-1.9-32.3 0-64.6 0 0.1 0.9 0.3 1.9zm-0.3-1.9q32.3 0 64.6 0-0.3-0.9-0.7-1.8-32.2 0-64.3 0 0.2 0.9 0.4 1.8zm75.4 27.2q17.9 0 35.9 0 17.1 0 33.9-2.4-0.6-0.8-1.2-1.7-8.8 1.2-17.8 1.8-7.9 0.5-15.9 0.5-17.9 0-35.8 0 0.4 0.9 0.9 1.8zm-0.9-1.8q17.9 0 35.8 0 8 0 15.9-0.5 9-0.6 17.8-1.8-0.5-0.8-1.1-1.7-8.8 1.2-17.8 1.7-7.8 0.5-15.7 0.5-17.8 0-35.6 0 0.4 0.9 0.7 1.8zm-0.7-1.8q17.8 0 35.6 0 7.9 0 15.7-0.5 9-0.5 17.8-1.7-0.5-0.8-1-1.7-8.8 1.2-17.7 1.6-7.8 0.4-15.6 0.4-17.8 0-35.5 0.1 0.4 0.9 0.7 1.8zm-0.7-1.8q17.7-0.1 35.5-0.1 7.8 0 15.6-0.4 8.9-0.4 17.7-1.6-0.5-0.8-1.1-1.7-8.8 1.1-17.7 1.6-7.7 0.3-15.4 0.3-17.7 0-35.3 0 0.4 0.9 0.7 1.9zm-0.7-1.9q17.6 0 35.3 0 7.7 0 15.4-0.3 8.9-0.5 17.7-1.6-0.5-0.8-1.1-1.7-8.7 1.1-17.6 1.5-7.6 0.3-15.4 0.3-17.5 0-35.1 0 0.4 0.9 0.8 1.8zm-0.8-1.8q17.6 0 35.1 0 7.8 0 15.4-0.3 8.9-0.4 17.6-1.5-0.5-0.8-1-1.7-8.7 1.1-17.6 1.4-7.6 0.3-15.2 0.3-17.5 0-35 0 0.4 0.9 0.7 1.8zm-0.7-1.8q17.5 0 35 0 7.6 0 15.2-0.3 8.9-0.3 17.6-1.4-0.5-0.8-1-1.7-8.7 1-17.6 1.3-7.5 0.3-15.1 0.3-17.4 0-34.7 0 0.3 0.9 0.6 1.8zm-0.6-1.8q17.3 0 34.7 0 7.6 0 15.1-0.3 8.9-0.3 17.6-1.3-0.6-0.8-1.1-1.7-8.7 1-17.5 1.3-7.5 0.2-15 0.2-17.3 0-34.6 0 0.4 0.9 0.8 1.8zm-0.8-1.8q17.3 0 34.6 0 7.5 0 15-0.2 8.8-0.3 17.5-1.3-0.6-0.8-1.1-1.7-8.6 0.9-17.4 1.2 0 0 0 0-7.5 0.2-14.9 0.2-17.2 0-34.4 0 0.3 0.9 0.7 1.8zm-0.7-1.8q17.2 0 34.4 0 7.4 0 14.9-0.2 0 0 0 0 8.8-0.3 17.4-1.2-0.5-0.8-1-1.7-8.6 0.9-17.3 1.1-0.1 0-0.1 0-7.4 0.2-14.8 0.2-17.1 0-34.2 0 0.3 0.9 0.7 1.8zm-0.7-1.8q17.1 0 34.2 0 7.4 0 14.8-0.2 0 0 0.1 0 8.7-0.2 17.3-1.1-0.5-0.8-1.1-1.7-8.5 0.8-17.2 1 0 0-0.1 0-7.3 0.2-14.7 0.2-17 0-34 0 0.4 0.9 0.7 1.8zm-0.7-1.8q17 0 34 0 7.4 0 14.7-0.2 0.1 0 0.1 0 8.7-0.2 17.2-1-0.5-0.8-1.1-1.7-8.4 0.8-17.1 1 0 0-0.1 0-7.3 0.1-14.6 0.1-16.9 0-33.8 0 0.4 0.9 0.7 1.8zm-0.7-1.8q16.9 0 33.8 0 7.3 0 14.6-0.1 0.1 0 0.1 0 8.7-0.2 17.1-1-0.5-0.9-1-1.7-8.5 0.8-17 0.9-0.1 0-0.1 0 0 0-0.1 0-7.2 0.1-14.5 0.1-16.8 0-33.7 0 0.4 0.9 0.8 1.8zm-0.8-1.8q16.9 0 33.7 0 7.3 0 14.5-0.1 0.1 0 0.1 0 0 0 0.1 0 8.5-0.1 17-0.9-0.6-0.8-1.1-1.7-8.4 0.7-16.9 0.8 0 0-0.1 0 0 0 0 0-7.2 0.1-14.4 0.1-16.8 0-33.5 0 0.3 0.9 0.6 1.8zm-0.6-1.8q16.7 0 33.5 0 7.2 0 14.4-0.1 0 0 0 0 0.1 0 0.1 0 8.5-0.1 16.9-0.8-0.4-0.9-1-1.7-8.3 0.7-16.8 0.7-0.1 0-0.1 0 0 0-0.1 0 0 0 0 0-7.1 0-14.3 0-16.6 0-33.3 0 0.3 0.9 0.7 1.9zm-0.7-1.9q16.7 0 33.3 0 7.2 0 14.3 0 0 0 0 0 0.1 0 0.1 0 0 0 0.1 0 8.5 0 16.8-0.7-0.5-0.9-1-1.7-8.4 0.6-16.9 0.6-23.7 0-47.4 0 0.4 0.9 0.7 1.8zm80.6 24.8c20.8-2.9 41.2-8.5 60.7-16.7q2.9-1.2 5.8-2.6-0.7-0.6-1.4-1.3-2.8 1.2-5.7 2.5 0 0-0.1 0c-19.4 8.1-39.7 13.6-60.5 16.4q0.6 0.9 1.2 1.7zm-1.2-1.7c20.8-2.8 41.1-8.3 60.5-16.4q0.1 0 0.1 0 2.9-1.3 5.7-2.5-0.6-0.7-1.3-1.4-2.9 1.2-5.8 2.4c-19.4 8.1-39.6 13.5-60.3 16.2q0.6 0.9 1.1 1.7zm-1.1-1.7c20.7-2.7 40.9-8.1 60.3-16.2q2.9-1.2 5.8-2.4-0.7-0.7-1.4-1.4-2.8 1.2-5.7 2.4 0 0 0 0c-19.3 8-39.4 13.3-60 15.9q0.5 0.9 1 1.7zm-1-1.7c20.6-2.6 40.7-7.9 60-15.9q0 0 0 0 2.9-1.2 5.7-2.4-0.6-0.7-1.3-1.4-2.9 1.2-5.7 2.4c-19.3 7.9-39.3 13.1-59.8 15.6q0.6 0.9 1.1 1.7zm-1.1-1.7c20.5-2.5 40.5-7.7 59.8-15.6q2.8-1.2 5.7-2.4-0.7-0.7-1.4-1.4-2.8 1.2-5.6 2.4h-0.1c-19.1 7.7-39 12.9-59.5 15.3q0.6 0.9 1.1 1.7zm-1.1-1.7c20.5-2.4 40.4-7.6 59.5-15.3h0.1q2.8-1.2 5.6-2.4-0.6-0.7-1.3-1.4-2.8 1.2-5.7 2.4c-19 7.6-38.9 12.7-59.2 15q0.5 0.9 1 1.7zm-1-1.7c20.3-2.3 40.2-7.4 59.2-15q2.9-1.2 5.7-2.4-0.7-0.7-1.4-1.4-2.8 1.2-5.6 2.3c-19 7.6-38.7 12.5-58.9 14.8q0.5 0.9 1 1.7zm-1-1.7c20.2-2.3 39.9-7.2 58.9-14.8q2.8-1.1 5.6-2.3-0.6-0.7-1.3-1.4-2.8 1.2-5.6 2.3c-18.9 7.5-38.6 12.3-58.7 14.5q0.5 0.9 1.1 1.7zm-1.1-1.7c20.1-2.2 39.8-7 58.7-14.5q2.8-1.1 5.6-2.3-0.7-0.7-1.4-1.4-2.7 1.2-5.6 2.3 0 0 0 0c-18.8 7.3-38.3 12.1-58.4 14.2q0.5 0.9 1.1 1.7zm-1.1-1.7c20.1-2.1 39.6-6.9 58.4-14.2q0 0 0 0 2.9-1.1 5.6-2.3-0.6-0.7-1.3-1.4-2.8 1.2-5.6 2.3 0 0 0 0c-18.7 7.2-38.2 11.9-58.1 13.9q0.5 0.9 1 1.7zm-1-1.7c19.9-2 39.4-6.7 58.1-13.9q0 0 0 0 2.8-1.1 5.6-2.3-0.7-0.7-1.4-1.4-2.7 1.2-5.5 2.2 0 0 0 0c-18.6 7.2-38 11.8-57.9 13.7q0.6 0.9 1.1 1.7zm-1.1-1.7c19.9-1.9 39.3-6.5 57.9-13.7q0 0 0 0 2.8-1 5.5-2.2-0.6-0.7-1.3-1.4-2.8 1.2-5.5 2.2c-18.6 7.1-37.9 11.5-57.7 13.4q0.6 0.9 1.1 1.7zm-1.1-1.7c19.8-1.9 39.1-6.3 57.7-13.4q2.7-1 5.5-2.2-0.7-0.7-1.4-1.4-2.7 1.2-5.5 2.2c-18.4 6.9-37.6 11.3-57.3 13.1q0.5 0.8 1 1.7zm-1-1.7c19.7-1.8 38.9-6.2 57.3-13.1q2.8-1 5.5-2.2-0.6-0.6-1.3-1.3-2.7 1.1-5.5 2.1c-18.4 6.8-37.5 11.1-57.1 12.8q0.5 0.9 1.1 1.7zm-1.1-1.7c19.6-1.7 38.7-6 57.1-12.8q2.8-1 5.5-2.1-0.7-0.7-1.4-1.4-2.7 1.1-5.4 2.1c-18.3 6.7-37.3 10.9-56.8 12.5q0.6 0.8 1 1.7zm-1-1.7c19.5-1.6 38.5-5.8 56.8-12.5q2.7-1 5.4-2.1-0.6-0.7-1.3-1.4c-19.9 7.8-40.6 12.6-61.9 14.3q0.5 0.8 1 1.7zm82.5 6.2c21.2-9.5 40.7-22 58.3-37.2q-0.8-0.5-1.6-1.1c-16.2 14-34 25.6-53.3 34.8q-2.4 1.1-4.8 2.2 0.7 0.7 1.4 1.3zm-1.4-1.3q2.4-1.1 4.8-2.2c19.3-9.2 37.1-20.8 53.3-34.8q-0.8-0.5-1.5-1c-16.2 13.8-34 25.3-53.2 34.4q-2.3 1.1-4.7 2.2 0.7 0.7 1.3 1.4zm-1.3-1.4q2.4-1.1 4.7-2.2c19.2-9.1 37-20.6 53.2-34.4q-0.8-0.5-1.6-1.1c-16.1 13.7-33.8 25.1-52.9 34.1q-2.4 1.1-4.8 2.2 0.7 0.7 1.4 1.4zm-1.4-1.4q2.4-1.1 4.8-2.2c19.1-9 36.8-20.4 52.9-34.1q-0.8-0.5-1.5-1c-16.1 13.5-33.7 24.9-52.8 33.8q-2.3 1-4.7 2.1 0.7 0.7 1.3 1.4zm-1.3-1.4q2.4-1.1 4.7-2.1c19.1-8.9 36.7-20.3 52.8-33.8q-0.8-0.6-1.6-1.1c-16 13.5-33.6 24.7-52.6 33.5q-2.3 1.1-4.7 2.1 0.7 0.7 1.4 1.4zm-1.4-1.4q2.4-1 4.7-2.1c19-8.8 36.6-20 52.6-33.5q-0.8-0.5-1.6-1.1c-15.9 13.4-33.4 24.5-52.3 33.2q-2.4 1.1-4.7 2.1 0.7 0.7 1.3 1.4zm-1.3-1.4q2.3-1 4.7-2.1c18.9-8.7 36.4-19.8 52.3-33.2q-0.7-0.5-1.5-1c-15.9 13.2-33.3 24.2-52.2 32.8q-2.3 1.1-4.7 2.1 0.7 0.7 1.4 1.4zm-1.4-1.4q2.4-1 4.7-2.1c18.9-8.6 36.3-19.6 52.2-32.8q-0.8-0.6-1.6-1.1c-15.8 13.2-33.2 24.1-52 32.6q-2.3 1-4.6 2 0.7 0.7 1.3 1.4zm-1.3-1.4q2.3-1 4.6-2c18.8-8.5 36.2-19.4 52-32.6q-0.7-0.5-1.5-1.1c-15.7 13.1-33.1 23.9-51.8 32.3q-2.3 1-4.7 2 0.7 0.7 1.4 1.4zm-1.4-1.4q2.4-1 4.7-2c18.7-8.4 36.1-19.2 51.8-32.3q-0.8-0.5-1.6-1c-15.7 12.9-32.9 23.6-51.6 31.9q-2.3 1.1-4.6 2 0.7 0.7 1.3 1.4zm-1.3-1.4q2.3-0.9 4.6-2c18.7-8.3 35.9-19 51.6-31.9q-0.8-0.5-1.5-1.1c-15.7 12.9-32.9 23.5-51.5 31.7q-2.3 1-4.6 1.9 0.7 0.7 1.4 1.4zm-1.4-1.4q2.3-0.9 4.6-1.9c18.6-8.2 35.8-18.8 51.5-31.7q-0.8-0.5-1.6-1c-15.6 12.7-32.7 23.2-51.2 31.3q-2.3 1-4.6 1.9 0.7 0.7 1.3 1.4zm-1.3-1.4q2.3-0.9 4.6-1.9c18.5-8.1 35.6-18.6 51.2-31.3q-0.8-0.5-1.6-1.1c-15.5 12.7-32.6 23-51 31q-2.3 1-4.6 1.9 0.7 0.7 1.4 1.4zm-1.4-1.4q2.3-0.9 4.6-1.9c18.4-8 35.5-18.3 51-31q-0.7-0.5-1.5-1c-15.5 12.5-32.5 22.8-50.9 30.7q-2.2 0.9-4.5 1.9 0.7 0.7 1.3 1.3zm-1.3-1.3q2.3-1 4.5-1.9c18.4-7.9 35.4-18.2 50.9-30.7q-0.8-0.5-1.6-1c-15.4 12.3-32.4 22.5-50.6 30.3q-2.3 1-4.6 1.9 0.7 0.7 1.4 1.4zm-1.4-1.4q2.3-0.9 4.6-1.9c18.2-7.8 35.2-18 50.6-30.3q-0.8-0.6-1.6-1.1c-15.3 12.3-32.2 22.3-50.4 30q-2.3 1-4.5 1.9 0.7 0.7 1.3 1.4zm78.6-16.4q6.7-5.8 13.1-12.2c12.4-12.3 23.2-25.8 32.6-40.2q-0.9-0.4-1.7-0.7c-7.9 12.2-17 23.7-27 34.3q-2.7 2.9-5.5 5.6 0 0 0 0.1 0 0 0 0-6.4 6.3-13.1 12 0.8 0.6 1.6 1.1zm-1.6-1.1q6.7-5.7 13.1-12 0 0 0 0 0-0.1 0-0.1 2.8-2.7 5.5-5.6c10-10.6 19.1-22.1 27-34.3q-0.9-0.4-1.7-0.7c-7.9 12.1-16.9 23.5-27 34.1q-2.6 2.8-5.4 5.6 0 0 0 0 0 0 0 0-6.3 6.2-13 12 0.7 0.5 1.5 1zm-1.5-1q6.7-5.8 13-12 0 0 0 0 0 0 0 0 2.8-2.8 5.4-5.6c10.1-10.6 19.1-22 27-34.1q-0.9-0.4-1.7-0.7c-7.9 12-16.9 23.3-26.9 33.9q0 0 0 0-2.6 2.8-5.4 5.5 0 0 0 0 0 0 0 0-6.3 6.2-13 11.9 0.8 0.6 1.6 1.1zm-1.6-1.1q6.7-5.7 13-11.9 0 0 0 0 0 0 0 0 2.8-2.7 5.4-5.5 0 0 0 0c10-10.6 19-21.9 26.9-33.9q-0.9-0.4-1.7-0.8c-7.9 12-16.8 23.3-26.8 33.8q-2.7 2.7-5.4 5.4 0 0 0 0-6.3 6.2-12.9 11.9 0.7 0.5 1.5 1zm-1.5-1q6.6-5.7 12.9-11.9 0 0 0 0 2.7-2.7 5.4-5.4c10-10.5 18.9-21.8 26.8-33.8q-0.9-0.3-1.7-0.7c-7.8 11.9-16.8 23.1-26.7 33.5q0 0 0 0-2.7 2.8-5.4 5.5 0 0 0 0-6.3 6.1-12.9 11.7 0.8 0.5 1.6 1.1zm-1.6-1.1q6.6-5.6 12.9-11.7 0 0 0 0 2.7-2.7 5.4-5.5 0 0 0 0c9.9-10.4 18.9-21.6 26.7-33.5q-0.9-0.3-1.7-0.7c-7.8 11.8-16.7 23-26.6 33.3q0 0 0 0-2.7 2.7-5.4 5.4 0 0 0 0-6.2 6.1-12.9 11.6 0.8 0.6 1.6 1.1zm-1.6-1.1q6.7-5.5 12.9-11.6 0 0 0 0 2.7-2.7 5.4-5.4 0 0 0 0c9.9-10.3 18.8-21.5 26.6-33.3q-0.9-0.4-1.7-0.7c-7.8 11.8-16.7 22.8-26.6 33.1q0 0 0 0 0 0 0 0-2.6 2.7-5.3 5.3 0 0 0 0-6.2 6.1-12.8 11.6 0.8 0.5 1.5 1zm-1.5-1q6.6-5.5 12.8-11.6 0 0 0 0 2.7-2.6 5.3-5.3 0 0 0 0 0 0 0 0c9.9-10.3 18.8-21.3 26.6-33.1q-0.9-0.4-1.7-0.7c-7.8 11.7-16.6 22.7-26.5 32.8q-2.6 2.7-5.3 5.4-6.2 5.9-12.8 11.4 0.8 0.5 1.6 1.1zm-1.6-1.1q6.6-5.5 12.8-11.4 2.7-2.7 5.3-5.4c9.9-10.1 18.7-21.1 26.5-32.8q-0.9-0.4-1.7-0.7c-7.7 11.6-16.6 22.5-26.4 32.6q0 0 0 0-2.6 2.7-5.3 5.3-6.2 5.9-12.7 11.3 0.8 0.6 1.5 1.1zm-1.5-1.1q6.5-5.4 12.7-11.3 2.7-2.6 5.3-5.3 0 0 0 0c9.8-10.1 18.7-21 26.4-32.6q-0.9-0.4-1.7-0.7-11.6 17.3-26.3 32.4 0 0 0 0-2.7 2.7-5.3 5.2-6.2 5.9-12.7 11.3 0.8 0.5 1.6 1zm-1.6-1q6.5-5.4 12.7-11.3 2.6-2.5 5.3-5.2 0 0 0 0 14.7-15.1 26.3-32.4-0.9-0.4-1.7-0.7c-7.7 11.4-16.5 22.2-26.2 32.2q-0.1 0-0.1 0-2.6 2.6-5.3 5.2-6 5.8-12.5 11.1 0.7 0.6 1.5 1.1zm-1.5-1.1q6.5-5.3 12.5-11.1 2.7-2.6 5.3-5.2 0 0 0.1 0c9.7-10 18.5-20.8 26.2-32.2q-0.9-0.4-1.7-0.7c-7.7 11.3-16.4 22-26.2 31.9q0 0 0 0.1-2.6 2.6-5.3 5.1-6 5.8-12.5 11.1 0.8 0.5 1.6 1zm-1.6-1q6.5-5.3 12.5-11.1 2.7-2.5 5.3-5.1 0-0.1 0-0.1c9.8-9.9 18.5-20.6 26.2-31.9q-0.9-0.4-1.8-0.7c-7.6 11.3-16.3 21.9-26 31.7q0 0 0 0 0 0 0 0.1-2.6 2.6-5.3 5.1-6 5.7-12.5 10.9 0.8 0.6 1.6 1.1zm-1.6-1.1q6.5-5.2 12.5-10.9 2.7-2.5 5.3-5.1 0-0.1 0-0.1 0 0 0 0c9.7-9.8 18.4-20.4 26-31.7q-0.8-0.4-1.7-0.7c-7.6 11.2-16.2 21.7-25.9 31.5q0 0-0.1 0 0 0 0 0-2.6 2.6-5.2 5.1-6 5.7-12.4 10.9 0.8 0.5 1.5 1zm-1.5-1q6.4-5.2 12.4-10.9 2.6-2.5 5.2-5.1 0 0 0 0 0.1 0 0.1 0c9.7-9.8 18.3-20.3 25.9-31.5q-0.8-0.4-1.7-0.7c-7.6 11.1-16.2 21.6-25.8 31.3q-0.1 0-0.1 0 0 0 0 0 0 0 0 0-2.6 2.6-5.2 5.1-6 5.6-12.4 10.8 0.8 0.5 1.6 1zm-1.6-1q6.4-5.2 12.4-10.8 2.6-2.5 5.2-5.1 0 0 0 0 0 0 0 0 0 0 0.1 0c9.6-9.7 18.2-20.2 25.8-31.3q-0.8-0.4-1.7-0.7c-7.5 11.1-16.1 21.4-25.8 31q-8.4 8.4-17.6 15.8 0.8 0.5 1.6 1.1zm69.1-36.6q11.3-17.5 19.5-36.9 5.4-12.9 9.3-26.1-0.8-0.2-1.7-0.4-3.7 12.3-8.6 24.2-0.4 0.9-0.7 1.8c-5.5 12.8-12 25.1-19.5 36.7q0.8 0.3 1.7 0.7zm-1.7-0.7c7.5-11.6 14-23.9 19.5-36.7q0.3-0.9 0.7-1.8 4.9-11.9 8.6-24.2-0.9-0.2-1.8-0.3-3.6 12.2-8.6 24.1-0.3 0.8-0.7 1.7c-5.4 12.7-11.9 24.9-19.4 36.5q0.8 0.3 1.7 0.7zm-1.7-0.7c7.5-11.6 14-23.8 19.4-36.5q0.4-0.9 0.7-1.7 5-11.9 8.6-24.1-0.9-0.2-1.8-0.4-3.6 12.2-8.5 24-0.4 0.8-0.8 1.6c-5.4 12.8-11.9 24.9-19.3 36.4q0.8 0.3 1.7 0.7zm-1.7-0.7c7.4-11.5 13.9-23.6 19.3-36.4q0.4-0.8 0.8-1.6 4.9-11.8 8.5-24-0.9-0.2-1.8-0.4-3.6 12.1-8.5 23.9-0.4 0.8-0.7 1.7-8.1 18.9-19.3 36 0.8 0.4 1.7 0.8zm-1.7-0.8q11.2-17.1 19.3-36 0.3-0.9 0.7-1.7 4.9-11.8 8.5-23.9-0.9-0.2-1.8-0.3-3.6 12-8.5 23.7-0.3 0.8-0.7 1.7c-5.4 12.5-11.8 24.5-19.2 35.8q0.8 0.4 1.7 0.7zm-1.7-0.7c7.4-11.3 13.8-23.3 19.2-35.8q0.4-0.9 0.7-1.7 4.9-11.7 8.5-23.7-0.9-0.2-1.8-0.4-3.5 12-8.4 23.6-0.4 0.8-0.7 1.7c-5.4 12.4-11.8 24.4-19.2 35.6q0.8 0.4 1.7 0.7zm-1.7-0.7c7.4-11.2 13.8-23.2 19.2-35.6q0.3-0.9 0.7-1.7 4.9-11.6 8.4-23.6-0.8-0.2-1.7-0.3-3.6 11.9-8.5 23.4 0 0 0 0 0 0 0 0-0.3 0.8-0.7 1.7c-5.4 12.4-11.7 24.2-19.1 35.4q0.8 0.3 1.7 0.7zm-1.7-0.7c7.4-11.2 13.7-23 19.1-35.4q0.4-0.9 0.7-1.7 0 0 0 0 0 0 0 0 4.9-11.5 8.5-23.4-0.9-0.2-1.8-0.4-3.6 11.8-8.4 23.3c-5.5 13-12.1 25.3-19.8 36.9q0.8 0.3 1.7 0.7zm-1.7-0.7c7.7-11.6 14.3-23.9 19.8-36.9q4.8-11.5 8.4-23.3-0.9-0.2-1.8-0.3-3.4 11.3-8 22.2-0.2 0.5-0.4 0.9c-5.5 12.9-12.1 25.1-19.7 36.7q0.8 0.3 1.7 0.7zm-1.7-0.7c7.6-11.6 14.2-23.8 19.7-36.7q0.2-0.4 0.4-0.9 4.6-10.9 8-22.2c-0.6-0.2-1.2-0.3-1.8-0.4q-3.4 11.2-8 22.2-0.2 0.4-0.4 0.9c-5.4 12.7-12 24.9-19.6 36.4q0.8 0.3 1.7 0.7zm-1.7-0.7c7.6-11.5 14.2-23.7 19.6-36.4q0.2-0.5 0.4-0.9 4.6-11 8-22.2-0.9-0.2-1.8-0.4-3.4 11.2-7.9 22.1-0.2 0.4-0.4 0.9c-5.5 12.7-12 24.8-19.6 36.2q0.8 0.3 1.7 0.7zm-1.7-0.7c7.6-11.4 14.1-23.5 19.6-36.2q0.2-0.5 0.4-0.9 4.5-10.9 7.9-22.1-0.9-0.1-1.8-0.3-3.3 11.1-7.9 21.9-0.2 0.5-0.4 0.9c-5.4 12.6-11.9 24.6-19.5 36q0.8 0.3 1.7 0.7zm-1.7-0.7c7.6-11.4 14.1-23.4 19.5-36q0.2-0.4 0.4-0.9 4.6-10.8 7.9-21.9-0.9 0-1.8-0.2c-2.2 7.3-4.8 14.4-7.8 21.5q-0.2 0.5-0.4 0.9c-5.4 12.6-11.9 24.6-19.6 35.9q0.9 0.3 1.8 0.7zm-1.8-0.7c7.7-11.3 14.2-23.3 19.6-35.9q0.2-0.4 0.4-0.9c3-7.1 5.6-14.2 7.8-21.5q-0.9-0.2-1.7-0.5-3.3 10.8-7.8 21.2-0.1 0.5-0.3 0.9c-5.5 12.7-12 24.7-19.7 36q0.9 0.3 1.7 0.7zm-1.7-0.7c7.7-11.3 14.2-23.3 19.7-36q0.2-0.4 0.3-0.9 4.5-10.4 7.8-21.2-1 0-1.9-0.2c-2.1 7-4.6 13.9-7.5 20.8q-0.1 0.1-0.2 0.2-0.1 0.5-0.3 0.9c-5.5 12.6-12 24.4-19.6 35.7q0.9 0.3 1.7 0.7zm-1.7-0.7c7.6-11.3 14.1-23.1 19.6-35.7q0.2-0.4 0.3-0.9 0.1-0.1 0.2-0.2c2.9-6.9 5.4-13.8 7.5-20.8q-0.9-0.2-1.7-0.5-3.2 10.4-7.5 20.5c-5.5 13-12.2 25.3-20.1 36.9q0.9 0.3 1.7 0.7zm54.4-52.4c6.5-22.1 9.8-45 9.8-68.4q-0.9 0-1.8 0c0 23.3-3.3 46-9.7 68q0.9 0.2 1.7 0.4zm-1.7-0.4c6.4-22 9.7-44.7 9.7-68q-0.9 0-1.8 0c0 23.1-3.3 45.8-9.7 67.7q0.9 0.1 1.8 0.3zm-1.8-0.3c6.4-21.9 9.7-44.6 9.7-67.7q-0.9 0-1.8 0c0 23-3.3 45.6-9.7 67.3q0.9 0.2 1.8 0.4zm-1.8-0.4c6.4-21.7 9.7-44.3 9.7-67.3q-0.9 0-1.8 0c0 22.9-3.3 45.3-9.7 66.9q0.9 0.2 1.8 0.4zm-1.8-0.4c6.4-21.6 9.7-44 9.7-66.9q-0.9 0-1.8 0c0 22.8-3.3 45.1-9.7 66.6q0.9 0.1 1.8 0.3zm-1.8-0.3c6.4-21.5 9.7-43.8 9.7-66.6q-0.9 0-1.8 0c0 22.6-3.3 44.8-9.7 66.2q0.9 0.2 1.8 0.4zm-1.8-0.4c6.4-21.4 9.7-43.6 9.7-66.2q-0.9 0-1.9 0c0 22.5-3.2 44.6-9.5 65.9q0.9 0.1 1.7 0.3zm-1.7-0.3c6.3-21.3 9.5-43.4 9.5-65.9q-0.9 0-1.8 0c0 22.4-3.2 44.4-9.5 65.5q0.9 0.2 1.8 0.4zm-1.8-0.4c6.3-21.1 9.5-43.1 9.5-65.5q-0.9 0-1.8 0c0 22.3-3.2 44.1-9.5 65.2q0.9 0.1 1.8 0.3zm-1.8-0.3c6.3-21.1 9.5-42.9 9.5-65.2q-0.9 0-1.8 0c0 22.2-3.2 43.9-9.5 64.8 0.6 0.1 1.2 0.2 1.8 0.4zm-1.8-0.4c6.3-20.9 9.5-42.6 9.5-64.8q-0.9 0-1.8 0c0 22.1-3.2 43.6-9.5 64.4q0.9 0.2 1.8 0.4zm-1.8-0.4c6.3-20.8 9.5-42.3 9.5-64.4q-0.9 0-1.8 0c0 21.9-3.2 43.4-9.5 64.1q0.9 0.2 1.8 0.3zm-1.8-0.3c6.3-20.7 9.5-42.2 9.5-64.1q-0.9 0-1.8 0c0 21.8-3.2 43.3-9.5 63.9q0.9 0.2 1.8 0.2zm-1.8-0.2c6.3-20.6 9.5-42.1 9.5-63.9q-0.9 0-1.8 0c0 21.7-3.2 43-9.4 63.4q0.8 0.3 1.7 0.5zm-1.7-0.5c6.2-20.4 9.4-41.7 9.4-63.4q-0.9 0-1.8 0c0 21.6-3.2 42.9-9.5 63.2q0.9 0.2 1.9 0.2zm-1.9-0.2c6.3-20.3 9.5-41.6 9.5-63.2q-0.9 0-1.9 0c0 21.5-3.1 42.5-9.3 62.7q0.8 0.3 1.7 0.5zm36.6-63.2c0-23.4-3.3-46.3-9.8-68.4q-0.9 0-1.8 0.1c6.5 22 9.8 45 9.8 68.3q0.9 0 1.8 0zm-1.8 0c0-23.3-3.3-46.3-9.8-68.3q-0.9 0.2-1.8 0.5c6.5 21.9 9.8 44.6 9.8 67.8q0.9 0 1.8 0zm-1.8 0c0-23.2-3.3-45.9-9.8-67.8q-0.9 0.1-1.8 0.3c6.5 21.7 9.8 44.4 9.8 67.5q0.9 0 1.8 0zm-1.8 0c0-23.1-3.3-45.8-9.8-67.5q-0.8 0.2-1.7 0.5c6.4 21.6 9.7 44.1 9.7 67q0.9 0 1.8 0zm-1.8 0c0-22.9-3.3-45.4-9.7-67q-0.9 0-1.9 0.2c6.5 21.5 9.8 44 9.8 66.8q0.9 0 1.8 0zm-1.8 0c0-22.8-3.3-45.3-9.8-66.8q-0.9 0.1-1.7 0.4c6.4 21.4 9.7 43.7 9.7 66.4q0.9 0 1.8 0zm-1.8 0c0-22.7-3.3-45-9.7-66.4q-0.9 0.1-1.8 0.3c6.4 21.3 9.6 43.5 9.6 66.1q1 0 1.9 0zm-1.9 0c0-22.6-3.2-44.8-9.6-66.1q-0.9 0.2-1.7 0.5c6.3 21.2 9.5 43.1 9.5 65.6q0.9 0 1.8 0zm-1.8 0c0-22.5-3.2-44.4-9.5-65.6q-1 0-1.9 0.2c6.3 21 9.6 43 9.6 65.4q0.9 0 1.8 0zm-1.8 0c0-22.4-3.3-44.4-9.6-65.4q-0.9 0.1-1.8 0.4c6.4 21 9.6 42.8 9.6 65q0.9 0 1.8 0zm-1.8 0c0-22.2-3.2-44-9.6-65q-0.9 0.1-1.8 0.3c6.4 20.8 9.6 42.6 9.6 64.7q0.9 0 1.8 0zm-1.8 0c0-22.1-3.2-43.9-9.6-64.7q-0.8 0.2-1.7 0.5c6.3 20.7 9.5 42.2 9.5 64.2q0.9 0 1.8 0zm-1.8 0c0-22-3.2-43.5-9.5-64.2q-0.9 0-1.8 0.2c6.2 20.6 9.5 42.1 9.5 64q0.9 0 1.8 0zm-1.8 0c0-21.9-3.3-43.4-9.5-64q-1 0.1-1.8 0.4c6.3 20.5 9.5 41.8 9.5 63.6q0.9 0 1.8 0zm-1.8 0c0-21.8-3.2-43.1-9.5-63.6q-0.9 0.1-1.8 0.3c6.2 20.3 9.5 41.7 9.5 63.3q0.9 0 1.8 0zm-1.8 0c0-21.6-3.3-43-9.5-63.3q-0.9 0.2-1.7 0.5c6.2 20.3 9.3 41.3 9.3 62.8q1 0 1.9 0zm17.3-68.4q-3.9-13.3-9.3-26.1-8.2-19.4-19.5-37-1 0.3-1.8 0.6 11.3 17.5 19.6 36.9c3.5 8.5 6.6 17 9.2 25.7q0.9-0.1 1.8-0.1zm-1.8 0.1c-2.6-8.7-5.7-17.2-9.2-25.7q-8.3-19.4-19.6-36.9-0.9 0.4-1.7 0.7c7.6 11.7 14.1 24.1 19.6 37q5.3 12.5 9.1 25.4 0.9-0.3 1.8-0.5zm-1.8 0.5q-3.8-12.9-9.1-25.4c-5.5-12.9-12-25.3-19.6-37q-0.9 0.4-1.7 0.8 11.4 17.5 19.7 36.9c3.4 8.2 6.4 16.5 8.9 25q0.9-0.2 1.8-0.3zm-1.8 0.3c-2.5-8.5-5.5-16.8-8.9-25q-8.3-19.4-19.7-36.9-0.8 0.4-1.6 0.8 11.4 17.5 19.6 36.9 5.2 12.2 8.9 24.7 0.9-0.3 1.7-0.5zm-1.7 0.5q-3.7-12.5-8.9-24.7-8.2-19.4-19.6-36.9-0.9 0.3-1.8 0.6 11.5 17.4 19.7 36.8 5.1 12 8.7 24.4 1-0.2 1.9-0.2zm-1.9 0.2q-3.6-12.4-8.7-24.4-8.2-19.4-19.7-36.8-0.9 0.3-1.7 0.7c7.6 11.6 14.3 24 19.7 36.9q5 11.8 8.7 24 0.8-0.3 1.7-0.4zm-1.7 0.4q-3.7-12.2-8.7-24c-5.4-12.9-12.1-25.3-19.7-36.9q-0.9 0.3-1.7 0.7 11.5 17.5 19.8 36.9c3.3 7.7 6.1 15.6 8.5 23.6q0.9-0.2 1.8-0.3zm-1.8 0.3c-2.4-8-5.2-15.9-8.5-23.6q-8.3-19.4-19.8-36.9-0.8 0.4-1.6 0.8c7.7 11.6 14.3 24 19.8 36.9q4.8 11.5 8.4 23.3 0.8-0.3 1.7-0.5zm-1.7 0.5q-3.6-11.8-8.4-23.3c-5.5-12.9-12.1-25.3-19.8-36.9q-0.9 0.3-1.8 0.6 11.6 17.4 19.8 36.9 4.8 11.2 8.3 22.9 0.9-0.2 1.9-0.2zm-1.9 0.2q-3.5-11.7-8.3-22.9-8.2-19.5-19.8-36.9-0.9 0.3-1.7 0.7c7.7 11.6 14.4 24 19.9 36.9q4.7 11.2 8.1 22.6 0.9-0.3 1.8-0.4zm-1.8 0.4q-3.4-11.4-8.1-22.6c-5.5-12.9-12.2-25.3-19.9-36.9q-0.9 0.4-1.7 0.8 11.7 17.4 19.9 36.8c3.1 7.3 5.8 14.7 8 22.2q0.9-0.2 1.8-0.3zm-1.8 0.3c-2.2-7.5-4.9-14.9-8-22.2q-8.2-19.4-19.9-36.8-0.8 0.4-1.6 0.8c7.7 11.6 14.4 23.9 19.9 36.8q4.6 10.8 7.9 21.9 0.9-0.3 1.7-0.5zm-1.7 0.5q-3.3-11.1-7.9-21.9c-5.5-12.9-12.2-25.2-19.9-36.8q-1 0.2-1.9 0.5c7.8 11.6 14.5 23.9 20 36.8 3 7.1 5.6 14.3 7.9 21.6q0.9-0.2 1.8-0.2zm-1.8 0.2c-2.3-7.3-4.9-14.5-7.9-21.6-5.5-12.9-12.2-25.2-20-36.8q-0.8 0.3-1.7 0.7c7.8 11.6 14.6 24 20.1 36.9q4.4 10.5 7.7 21.2 0.8-0.3 1.8-0.4zm-1.8 0.4q-3.3-10.7-7.7-21.2c-5.5-12.9-12.3-25.3-20.1-36.9q-0.8 0.4-1.6 0.8 11.7 17.3 20 36.8c2.9 6.8 5.4 13.7 7.6 20.8q0.9-0.2 1.8-0.3zm-1.8 0.3c-2.2-7.1-4.7-14-7.6-20.8q-8.3-19.5-20-36.8-0.9 0.4-1.7 0.8c7.9 11.5 14.6 23.9 20.1 36.9q4.3 10.1 7.5 20.4 0.8-0.3 1.7-0.5zm-2-68.2c-9.4-14.4-20.2-27.8-32.6-40.2q-6.4-6.3-13.1-12.2-0.8 0.5-1.6 1 6.7 5.8 13 12.1 0 0 0.1 0 0 0 0 0 0 0 0 0 2.7 2.8 5.4 5.6 15.1 16 27 34.3 0.8-0.3 1.8-0.6zm-1.8 0.6q-11.9-18.3-27-34.3-2.7-2.8-5.4-5.6 0 0 0 0 0 0 0 0-0.1 0-0.1 0-6.3-6.3-13-12.1-0.8 0.5-1.6 1.1 6.7 5.7 13 12 0 0 0.1 0 0 0 0 0 2.7 2.7 5.4 5.5 15.1 15.9 26.9 34.1 0.8-0.3 1.7-0.7zm-1.7 0.7q-11.8-18.2-26.9-34.1-2.7-2.8-5.4-5.5 0 0 0 0-0.1 0-0.1 0-6.3-6.3-13-12-0.8 0.5-1.5 1.1 6.7 5.6 13 11.9 0 0 0 0 0 0 0 0 2.7 2.7 5.4 5.5 15 15.8 26.8 33.9 0.8-0.4 1.7-0.8zm-1.7 0.8q-11.8-18.1-26.8-33.9-2.7-2.8-5.4-5.5 0 0 0 0 0 0 0 0-6.3-6.3-13-11.9-0.8 0.5-1.5 1.1 6.6 5.6 12.9 11.8 0 0 0 0 2.8 2.7 5.4 5.5c10 10.4 18.9 21.7 26.8 33.7q0.8-0.4 1.6-0.8zm-1.6 0.8c-7.9-12-16.8-23.3-26.8-33.7q-2.6-2.8-5.4-5.5 0 0 0 0-6.3-6.2-12.9-11.8-0.9 0.4-1.6 1 6.6 5.6 12.8 11.7 0.1 0 0.1 0 2.7 2.7 5.3 5.4 15 15.6 26.7 33.5 0.9-0.3 1.8-0.6zm-1.8 0.6q-11.7-17.9-26.7-33.5-2.6-2.7-5.3-5.4 0 0-0.1 0-6.2-6.1-12.8-11.7-0.8 0.5-1.6 1 6.6 5.6 12.8 11.6 0 0 0 0 2.8 2.7 5.4 5.4 14.9 15.5 26.6 33.3 0.8-0.4 1.7-0.7zm-1.7 0.7q-11.7-17.8-26.6-33.3-2.6-2.7-5.4-5.4 0 0 0 0-6.2-6-12.8-11.6-0.8 0.5-1.5 1.1 6.5 5.5 12.8 11.5 0 0 0 0 2.7 2.7 5.3 5.4 14.9 15.4 26.5 33 0.8-0.4 1.7-0.7zm-1.7 0.7q-11.6-17.6-26.5-33-2.6-2.7-5.3-5.4 0 0 0 0-6.3-6-12.8-11.5-0.8 0.6-1.6 1.1 6.6 5.5 12.8 11.5 2.7 2.6 5.3 5.3c9.9 10.2 18.7 21.2 26.5 32.8q0.8-0.4 1.6-0.8zm-1.6 0.8c-7.8-11.6-16.6-22.6-26.5-32.8q-2.6-2.7-5.3-5.3-6.2-6-12.8-11.5c-0.5 0.3-1 0.7-1.6 1q6.6 5.4 12.7 11.3 2.7 2.6 5.3 5.3 14.8 15.2 26.4 32.6 0.9-0.3 1.8-0.6zm-1.8 0.6q-11.6-17.4-26.4-32.6-2.6-2.7-5.3-5.3-6.1-5.9-12.7-11.3-0.7 0.5-1.5 1 6.5 5.4 12.6 11.3 2.7 2.6 5.3 5.2 14.7 15.1 26.3 32.4 0.8-0.4 1.7-0.7zm-1.7 0.7q-11.6-17.3-26.3-32.4-2.6-2.6-5.3-5.2-6.1-5.9-12.6-11.3-0.8 0.6-1.6 1.1 6.5 5.3 12.6 11.2 2.7 2.5 5.3 5.2 14.7 15 26.2 32.2 0.8-0.4 1.7-0.8zm-1.7 0.8q-11.5-17.2-26.2-32.2-2.6-2.7-5.3-5.2-6.1-5.9-12.6-11.2-0.7 0.6-1.5 1.1 6.5 5.3 12.5 11.1 2.7 2.5 5.3 5.2c9.8 9.9 18.5 20.6 26.2 32q0.8-0.4 1.6-0.8zm-1.6 0.8c-7.7-11.4-16.4-22.1-26.2-32q-2.6-2.7-5.3-5.2-6-5.8-12.5-11.1-0.8 0.5-1.6 1 6.4 5.2 12.5 11 2.6 2.5 5.2 5.1 14.6 14.8 26 31.7 0.9-0.3 1.9-0.5zm-1.9 0.5q-11.4-16.9-26-31.7-2.6-2.6-5.2-5.1-6.1-5.8-12.5-11-0.8 0.5-1.6 1.1 6.4 5.1 12.4 10.8 2.7 2.5 5.3 5.1 14.5 14.6 25.9 31.5 0.9-0.4 1.7-0.7zm-1.7 0.7q-11.4-16.9-25.9-31.5-2.6-2.6-5.3-5.1-6-5.7-12.4-10.8-0.8 0.5-1.5 1 6.3 5.2 12.3 10.8 2.7 2.5 5.3 5.1 14.5 14.5 25.9 31.3 0.8-0.4 1.6-0.8zm-1.6 0.8q-11.4-16.8-25.9-31.3-2.6-2.6-5.3-5.1-6-5.6-12.3-10.8-0.8 0.6-1.6 1.1 9.2 7.4 17.6 15.8c9.7 9.6 18.3 20 25.8 31.1q0.8-0.4 1.7-0.8zm-20.1-63c-17.6-15.1-37.1-27.6-58.3-37.2q-0.7 0.7-1.4 1.4 2.4 1 4.8 2.2c19.3 9.1 37.1 20.7 53.3 34.6q0.8-0.5 1.6-1zm-1.6 1c-16.2-13.9-34-25.5-53.3-34.6q-2.4-1.2-4.8-2.2-0.6 0.7-1.3 1.4 2.4 1 4.7 2.1c19.2 9.1 37 20.6 53.1 34.4q0.8-0.6 1.6-1.1zm-1.6 1.1c-16.1-13.8-33.9-25.3-53.1-34.4q-2.3-1.1-4.7-2.1-0.7 0.7-1.4 1.3 2.4 1.1 4.8 2.2c19.1 9 36.8 20.4 52.9 34.1q0.7-0.6 1.5-1.1zm-1.5 1.1c-16.1-13.7-33.8-25.1-52.9-34.1q-2.4-1.1-4.8-2.2-0.6 0.7-1.3 1.4 2.4 1.1 4.7 2.2c19.1 8.9 36.7 20.2 52.8 33.8q0.7-0.6 1.5-1.1zm-1.5 1.1c-16.1-13.6-33.7-24.9-52.8-33.8q-2.3-1.1-4.7-2.2-0.7 0.7-1.4 1.4 2.4 1.1 4.7 2.1c19 8.8 36.6 20 52.6 33.5q0.7-0.6 1.6-1zm-1.6 1c-16-13.5-33.6-24.7-52.6-33.5q-2.3-1-4.7-2.1-0.6 0.7-1.3 1.4 2.3 1 4.7 2.1 0 0 0 0c18.9 8.7 36.4 19.7 52.3 33.1q0.8-0.5 1.6-1zm-1.6 1c-15.9-13.4-33.4-24.4-52.3-33.1q0 0 0 0-2.4-1.1-4.7-2.1-0.7 0.7-1.4 1.4 2.4 1 4.7 2.1 0 0 0 0c18.9 8.6 36.3 19.5 52.2 32.8q0.7-0.6 1.5-1.1zm-1.5 1.1c-15.9-13.3-33.3-24.2-52.2-32.8q0 0 0 0-2.3-1.1-4.7-2.1-0.6 0.7-1.3 1.4 2.3 1 4.6 2c18.8 8.5 36.2 19.5 52 32.6q0.8-0.5 1.6-1.1zm-1.6 1.1c-15.8-13.1-33.2-24.1-52-32.6q-2.3-1-4.6-2-0.7 0.7-1.4 1.4 2.4 1 4.7 2c18.7 8.4 36 19.2 51.7 32.2 0.6-0.3 1.1-0.7 1.6-1zm-1.6 1c-15.7-13-33-23.8-51.7-32.2q-2.3-1-4.7-2-0.6 0.7-1.3 1.4 2.3 0.9 4.6 2c18.7 8.3 35.9 18.9 51.6 31.8q0.8-0.5 1.5-1zm-1.5 1c-15.7-12.9-32.9-23.5-51.6-31.8q-2.3-1.1-4.6-2-0.7 0.7-1.4 1.4 2.3 0.9 4.6 1.9 0 0 0 0c18.6 8.2 35.8 18.8 51.4 31.6q0.8-0.5 1.6-1.1zm-1.6 1.1c-15.6-12.8-32.8-23.4-51.4-31.6q0 0 0 0-2.3-1-4.6-1.9-0.6 0.7-1.3 1.4 2.3 0.9 4.6 1.9 0 0 0 0c18.5 8.1 35.6 18.6 51.2 31.3q0.8-0.5 1.5-1.1zm-1.5 1.1c-15.6-12.7-32.7-23.2-51.2-31.3q0 0 0 0-2.3-1-4.6-1.9-0.7 0.7-1.4 1.4 2.3 0.9 4.6 1.9 0 0 0 0c18.4 8 35.5 18.3 51 30.9q0.8-0.5 1.6-1zm-1.6 1c-15.5-12.6-32.6-22.9-51-30.9q0 0 0 0-2.3-1-4.6-1.9-0.6 0.7-1.3 1.4 2.3 0.9 4.5 1.8 0 0 0 0c18.4 7.9 35.4 18.2 50.8 30.7q0.8-0.6 1.6-1.1zm-1.6 1.1c-15.4-12.5-32.4-22.8-50.8-30.7q0 0 0 0-2.2-0.9-4.5-1.8-0.7 0.7-1.4 1.4 2.3 0.9 4.5 1.8h0.1c18.2 7.8 35.2 17.9 50.6 30.3q0.7-0.5 1.5-1zm-1.5 1c-15.4-12.4-32.4-22.5-50.6-30.3h-0.1q-2.2-0.9-4.5-1.8-0.6 0.6-1.3 1.3 2.2 0.9 4.5 1.9c18.2 7.7 35.1 17.7 50.4 30q0.8-0.5 1.6-1.1zm-34.9-53q-2.9-1.3-5.8-2.6c-19.5-8.2-39.9-13.8-60.7-16.7q-0.6 0.8-1.2 1.7c20.8 2.8 41.1 8.3 60.6 16.5q2.9 1.2 5.7 2.5 0.7-0.7 1.4-1.4zm-1.4 1.4q-2.8-1.3-5.7-2.5c-19.5-8.2-39.8-13.7-60.6-16.5q-0.5 0.8-1.1 1.7c20.7 2.7 40.9 8.1 60.3 16.2q2.9 1.2 5.8 2.5 0.7-0.7 1.3-1.4zm-1.3 1.4q-2.9-1.3-5.8-2.5c-19.4-8.1-39.6-13.5-60.3-16.2q-0.5 0.8-1 1.7c20.6 2.6 40.7 7.9 60 15.9q2.9 1.2 5.7 2.4 0.7-0.6 1.4-1.3zm-1.4 1.3q-2.8-1.2-5.7-2.4c-19.3-8-39.4-13.3-60-15.9q-0.5 0.8-1.1 1.7c20.5 2.5 40.5 7.8 59.8 15.6q2.8 1.2 5.7 2.4 0.7-0.7 1.3-1.4zm-1.3 1.4q-2.9-1.2-5.7-2.4c-19.3-7.8-39.3-13.1-59.8-15.6q-0.5 0.8-1 1.7c20.4 2.4 40.3 7.6 59.5 15.3q2.8 1.2 5.6 2.4 0.7-0.7 1.4-1.4zm-1.4 1.4q-2.8-1.2-5.6-2.4c-19.2-7.7-39.1-12.9-59.5-15.3q-0.6 0.8-1.1 1.7c20.3 2.4 40.2 7.4 59.2 15.1q2.9 1.1 5.7 2.3 0.7-0.7 1.3-1.4zm-1.3 1.4q-2.8-1.2-5.7-2.3c-19-7.7-38.9-12.7-59.2-15.1q-0.5 0.8-1 1.7c20.2 2.3 39.9 7.2 58.9 14.8q2.8 1.1 5.6 2.3 0.7-0.7 1.4-1.4zm-1.4 1.4q-2.8-1.2-5.6-2.3c-19-7.6-38.7-12.5-58.9-14.8q-0.6 0.8-1.1 1.7c20.1 2.2 39.8 7 58.7 14.5q2.8 1.1 5.6 2.3 0.7-0.7 1.3-1.4zm-1.3 1.4q-2.8-1.2-5.6-2.3c-18.9-7.5-38.6-12.3-58.7-14.5q-0.6 0.9-1.1 1.7c20.1 2.1 39.6 6.9 58.4 14.2q2.9 1.1 5.6 2.3 0.7-0.7 1.4-1.4zm-1.4 1.4q-2.7-1.2-5.6-2.3c-18.8-7.3-38.3-12.1-58.4-14.2q-0.5 0.8-1 1.7c19.9 2 39.4 6.7 58.1 14q2.8 1 5.6 2.2 0.7-0.7 1.3-1.4zm-1.3 1.4q-2.8-1.2-5.6-2.2c-18.7-7.3-38.2-12-58.1-14q-0.5 0.9-1.1 1.7c19.9 1.9 39.3 6.5 57.9 13.7q2.8 1 5.5 2.2 0.7-0.7 1.4-1.4zm-1.4 1.4q-2.7-1.2-5.5-2.2c-18.6-7.2-38-11.8-57.9-13.7q-0.5 0.8-1.1 1.7c19.8 1.9 39.1 6.3 57.7 13.4q2.7 1.1 5.5 2.2 0.7-0.7 1.3-1.4zm-1.3 1.4q-2.8-1.1-5.5-2.2c-18.6-7.1-37.9-11.5-57.7-13.4q-0.5 0.9-1 1.7c19.7 1.8 38.9 6.2 57.3 13.1q2.8 1.1 5.5 2.2 0.7-0.7 1.4-1.4zm-1.4 1.4q-2.7-1.1-5.5-2.2c-18.4-6.9-37.6-11.3-57.3-13.1q-0.6 0.9-1 1.7c19.5 1.7 38.6 6 57 12.8q2.8 1.1 5.5 2.2 0.7-0.7 1.3-1.4zm-1.3 1.4q-2.7-1.1-5.5-2.2c-18.4-6.8-37.5-11.1-57-12.8q-0.5 0.9-1.1 1.7c19.5 1.6 38.5 5.8 56.8 12.6q2.7 1 5.4 2.1 0.7-0.7 1.4-1.4zm-1.4 1.4q-2.7-1.1-5.4-2.1c-18.3-6.8-37.3-11-56.8-12.6q-0.5 0.9-1 1.7c21.3 1.7 42 6.5 61.9 14.3q0.7-0.7 1.3-1.3zm-46.2-40.2q-16.8-2.4-33.9-2.4-18 0-35.9 0-0.5 0.9-0.9 1.9 17.9 0 35.8 0 0.1 0 0.1 0 0.1 0 0.1 0 0 0 0 0 7.9 0 15.7 0.4 9 0.6 17.8 1.8 0.6-0.9 1.2-1.7zm-1.2 1.7q-8.8-1.2-17.8-1.8-7.8-0.4-15.7-0.4 0 0 0 0 0 0-0.1 0 0 0-0.1 0-17.9 0-35.8 0-0.3 0.9-0.7 1.8 17.8 0 35.6 0 0.1 0 0.1 0 0.1 0 0.1 0 7.8 0 15.5 0.4 9 0.5 17.8 1.7 0.6-0.9 1.1-1.7zm-1.1 1.7q-8.8-1.2-17.8-1.7-7.7-0.4-15.5-0.4 0 0-0.1 0 0 0-0.1 0-17.8 0-35.6 0-0.3 0.9-0.7 1.8 17.7 0 35.4 0 0.1 0 0.1 0 0.1 0 0.1 0 7.8 0 15.5 0.4 8.9 0.5 17.7 1.6 0.5-0.9 1-1.7zm-1 1.7q-8.8-1.1-17.7-1.6-7.7-0.4-15.5-0.4 0 0-0.1 0 0 0-0.1 0-17.7 0-35.4 0-0.3 0.9-0.7 1.8 17.6 0 35.3 0 0 0 0 0 7.8 0 15.4 0.4 8.9 0.4 17.7 1.5 0.6-0.9 1.1-1.7zm-1.1 1.7q-8.8-1.1-17.7-1.5-7.6-0.4-15.4-0.4 0 0 0 0-17.7 0-35.3 0-0.4 0.9-0.8 1.8 17.6 0 35.1 0 0.1 0 0.1 0 7.7 0 15.3 0.3 8.9 0.4 17.7 1.5 0.5-0.9 1-1.7zm-1 1.7q-8.8-1.1-17.7-1.5-7.6-0.3-15.3-0.3 0 0-0.1 0-17.5 0-35.1 0-0.3 0.9-0.6 1.8 17.4 0 34.9 0 0 0 0 0 7.6 0 15.2 0.3 8.9 0.4 17.6 1.4 0.5-0.9 1.1-1.7zm-1.1 1.7q-8.7-1-17.6-1.4-7.6-0.3-15.2-0.3 0 0 0 0-17.5 0-34.9 0-0.4 0.9-0.7 1.8 17.3 0 34.7 0 0 0 0 0 7.6 0 15.1 0.3 8.9 0.3 17.6 1.3 0.5-0.9 1-1.7zm-1 1.7q-8.7-1-17.6-1.3-7.5-0.3-15.1-0.3 0 0 0 0-17.4 0-34.7 0-0.4 0.9-0.8 1.8 17.3 0 34.6 0 7.5 0 15 0.3 8.8 0.2 17.5 1.2 0.5-0.9 1.1-1.7zm-1.1 1.7q-8.7-1-17.5-1.2-7.5-0.3-15-0.3-17.3 0-34.6 0-0.4 0.9-0.7 1.8 17.2 0 34.3 0 0.1 0 0.1 0 0 0 0 0 7.4 0 14.9 0.2 0 0 0 0 8.8 0.3 17.4 1.2 0.5-0.8 1.1-1.7zm-1.1 1.7q-8.6-0.9-17.4-1.2 0 0 0 0-7.5-0.2-14.9-0.2 0 0 0 0 0 0-0.1 0-17.1 0-34.3 0-0.4 0.9-0.7 1.8 17.1 0 34.2 0 0 0 0 0 7.4 0 14.8 0.2 0 0 0.1 0 8.7 0.2 17.3 1.1 0.5-0.9 1-1.7zm-1 1.7q-8.6-0.9-17.3-1.1-0.1 0-0.1 0-7.4-0.2-14.8-0.2 0 0 0 0-17.1 0-34.2 0-0.3 0.9-0.7 1.8 17 0 34 0 0 0 0 0 7.4 0 14.8 0.2 0 0 0 0 8.7 0.2 17.2 1 0.6-0.8 1.1-1.7zm-1.1 1.7q-8.5-0.8-17.2-1 0 0 0 0-7.4-0.2-14.8-0.2 0 0 0 0-17 0-34 0-0.3 0.9-0.7 1.8 16.9 0 33.8 0 7.4 0 14.7 0.2 0 0 0 0 8.7 0.1 17.1 0.9 0.6-0.9 1.1-1.7zm-1.1 1.7q-8.4-0.8-17.1-0.9 0 0 0 0-7.3-0.2-14.7-0.2-16.9 0-33.8 0-0.4 1-0.8 1.9 16.9 0 33.7 0 7.3 0 14.6 0.1 0 0 0 0 0 0 0.1 0 8.5 0.1 17 0.8 0.5-0.8 1-1.7zm-1 1.7q-8.5-0.7-17-0.8-0.1 0-0.1 0 0 0 0 0-7.3-0.1-14.6-0.1-16.8 0-33.7 0-0.3 0.9-0.6 1.8 16.7 0 33.5 0 7.2 0 14.4 0 0.1 0 0.1 0 0 0 0 0 8.5 0.1 17 0.8 0.4-0.8 1-1.7zm-1 1.7q-8.5-0.7-17-0.8 0 0 0 0 0 0-0.1 0-7.2 0-14.4 0-16.8 0-33.5 0-0.3 0.9-0.7 1.8 16.7 0 33.3 0 7.2 0 14.4 0 0 0 0 0 0.1 0 0.1 0 8.5 0 16.8 0.7 0.6-0.8 1.1-1.7zm-1.1 1.7q-8.3-0.7-16.8-0.7 0 0-0.1 0 0 0 0 0-7.2 0-14.4 0-16.6 0-33.3 0-0.3 0.9-0.7 1.8 23.7 0 47.4 0 8.5 0 16.9 0.6 0.5-0.8 1-1.7zm-53.8-27.9q-35 0-70.1 0-0.2 0.9-0.4 1.9 34.8 0 69.6 0 0.4-1 0.9-1.9zm-0.9 1.9q-34.8 0-69.6 0-0.2 0.9-0.3 1.8 34.6 0 69.2 0 0.4-0.9 0.7-1.8zm-0.7 1.8q-34.6 0-69.2 0-0.2 0.9-0.4 1.8 34.5 0 68.9 0 0.4-0.9 0.7-1.8zm-0.7 1.8q-34.4 0-68.9 0-0.2 0.9-0.4 1.8 34.3 0 68.6 0 0.4-0.9 0.7-1.8zm-0.7 1.8q-34.3 0-68.6 0-0.2 0.9-0.3 1.8 34.1 0 68.1 0 0.4-0.9 0.8-1.8zm-0.8 1.8q-34 0-68.1 0-0.2 0.9-0.4 1.8 33.9 0 67.9 0 0.3-0.9 0.6-1.8zm-0.6 1.8q-34 0-67.9 0-0.1 0.9-0.3 1.8 33.7 0 67.5 0 0.3-0.9 0.7-1.8zm-0.7 1.8q-33.8 0-67.5 0-0.2 0.9-0.4 1.8 33.6 0 67.1 0 0.4-0.9 0.8-1.8zm-0.8 1.8q-33.5 0-67.1 0-0.2 0.9-0.4 1.8 33.4 0 66.8 0 0.3-0.9 0.7-1.8zm-0.7 1.8q-33.4 0-66.8 0-0.1 0.9-0.3 1.8 33.2 0 66.4 0 0.3-0.9 0.7-1.8zm-0.7 1.8q-33.2 0-66.4 0-0.2 0.9-0.3 1.8 33 0 66 0 0.4-0.9 0.7-1.8zm-0.7 1.8q-33 0-66 0-0.2 0.9-0.4 1.8 32.8 0 65.7 0 0.4-0.9 0.7-1.8zm-0.7 1.8q-32.9 0-65.7 0-0.2 1-0.4 1.9 32.7 0 65.3 0 0.4-0.9 0.8-1.9zm-0.8 1.9q-32.6 0-65.3 0-0.1 0.9-0.3 1.8 32.5 0 65 0 0.3-0.9 0.6-1.8zm-0.6 1.8q-32.5 0-65 0-0.2 0.9-0.3 1.8 32.3 0 64.6 0 0.4-0.9 0.7-1.8zm-0.7 1.8q-32.3 0-64.6 0-0.2 0.9-0.4 1.8 32.1 0 64.3 0 0.4-0.9 0.7-1.8zm-59.3-27.2c-23.3 0-44.9 0-68.3 0q0 0.9 0 1.9c23.3 0 44.7 0 67.9 0q0.2-1 0.4-1.9zm-0.4 1.9c-23.2 0-44.6 0-67.9 0q0 0.9 0 1.8c23.1 0 44.5 0 67.6 0q0.1-0.9 0.3-1.8zm-0.3 1.8c-23.1 0-44.5 0-67.6 0q0 0.9 0 1.8c23 0 44.3 0 67.2 0q0.2-0.9 0.4-1.8zm-0.4 1.8c-22.9 0-44.2 0-67.2 0q0 0.9 0 1.8c22.9 0 44 0 66.8 0q0.2-0.9 0.4-1.8zm-0.4 1.8c-22.8 0-43.9 0-66.8 0q0 0.9 0 1.8c22.8 0 43.7 0 66.5 0q0.1-0.9 0.3-1.8zm-0.3 1.8c-22.8 0-43.7 0-66.5 0q0 0.9 0 1.8c22.6 0 43.5 0 66.1 0q0.2-0.9 0.4-1.8zm-0.4 1.8c-22.6 0-43.5 0-66.1 0q0 0.9 0 1.8c22.5 0 43.3 0 65.8 0q0.2-0.9 0.3-1.8zm-0.3 1.8c-22.5 0-43.3 0-65.8 0q0 0.9 0 1.8c22.4 0 43 0 65.4 0q0.2-0.9 0.4-1.8zm-0.4 1.8c-22.4 0-43 0-65.4 0q0 0.9 0 1.8c22.3 0 42.8 0 65 0q0.2-0.9 0.4-1.8zm-0.4 1.8c-22.2 0-42.7 0-65 0q0 0.9 0 1.8c22.2 0 42.6 0 64.7 0q0.2-0.9 0.3-1.8zm-0.3 1.8c-22.1 0-42.5 0-64.7 0q0 0.9 0 1.8c22 0 42.3 0 64.4 0q0.1-0.9 0.3-1.8zm-0.3 1.8c-22.1 0-42.4 0-64.4 0q0 0.9 0 1.8c21.9 0 42.1 0 64 0q0.2-0.9 0.4-1.8zm-0.4 1.8c-21.9 0-42.1 0-64 0q0 1 0 1.9c21.8 0 41.8 0 63.6 0q0.2-0.9 0.4-1.9zm-0.4 1.9c-21.8 0-41.8 0-63.6 0q0 0.9 0 1.8c21.7 0 41.6 0 63.3 0q0.2-0.9 0.3-1.8zm-0.3 1.8c-21.7 0-41.6 0-63.3 0q0 0.9 0 1.8c21.6 0 41.4 0 63 0q0.1-0.9 0.3-1.8zm-0.3 1.8c-21.6 0-41.4 0-63 0q0 0.9 0 1.8c21.5 0 41.2 0 62.6 0q0.2-0.9 0.4-1.8z"/><g style="opacity:.5;mix-blend-mode:multiply"><path class="f" d="m1045.1 309.9q-4.4 0-8.7 0c2.2-0.7 4.6-1.7 7.2-2.7q0.2-0.1 0.5-0.2c2.4-1 5-2.1 7.6-3.2 0.4 1 0.9 1.9 1.3 2.9 0.4 1 0.7 2 0.7 3.2q-4.3 0-8.6 0zm17.2 0q-4.3 0-8.6 0c0-1.2-0.3-2.2-0.7-3.2-0.4-1-0.9-1.9-1.3-2.9 2.7-1.2 5.5-2.5 8.3-3.7q0.1-0.1 0.1-0.1c2.8-1.3 5.6-2.5 8.2-3.7q1.3 3.1 2 6.5 0.7 3.4 0.7 7.1-4.3 0-8.7 0zm34.6 0q-4.3 0-8.6 0-4.4 0-8.7 0-4.3 0-8.6 0 0-3.7-0.7-7.1-0.7-3.4-2-6.5c2.6-1.2 5.4-2.4 8.2-3.7q0.1 0 0.1-0.1c2.8-1.2 5.6-2.5 8.3-3.7 2.6-1.1 5.2-2.2 7.6-3.2q0.3-0.1 0.5-0.2c2.6-1 5-2 7.2-2.7 1.7 4.2 3.1 8.5 4 13.1 0.9 4.5 1.4 9.2 1.4 14.1q-4.4 0-8.7 0zm94.6 0q-3.4 0-6.9 0-3.5 0-7 0-3.4 0-6.9 0-4.1 0-8.2 0-4 0-8.1 0-4.1 0-8.1 0-4.1 0-8.2 0-4.1 0-8.1 0-4.1 0-8.2 0-4 0-8.1 0-4.1 0-8.1 0c0-4.9-0.5-9.6-1.4-14.1-0.9-4.6-2.3-8.9-4-13.1 2-0.7 4.3-1.5 6.7-2.5q0.3-0.1 0.5-0.2c2.3-0.9 4.7-1.9 7.2-2.9 2.5-1.1 5.2-2.3 7.8-3.5q0 0 0.1 0c2.6-1.2 5.2-2.3 7.7-3.4 2.4-1.1 5-2.3 7.6-3.5q0.1 0 0.2 0c2.5-1.2 5.2-2.3 7.8-3.4 2.4-1.1 4.8-2.1 7.1-3q0.3-0.1 0.5-0.2c2.4-1 4.7-1.8 6.7-2.5 1.8-0.6 3.7-1.3 5.8-2.1q0.2-0.1 0.4-0.2c1.9-0.8 4-1.7 6.1-2.6 2.2-0.9 4.5-1.9 6.7-2.9q0 0 0.1-0.1c2.2-1 4.5-2 6.5-2.9 4.2 9.7 7.3 19.9 9.5 30.4 2.1 10.6 3.3 21.5 3.3 32.7q-3.5 0-7 0zm19.1 0q-0.9 0-1.8 0-0.9 0-1.9 0-0.7 0-1.5 0 0 0 0 0-0.7 0-1.4 0-0.6 0-1.2 0-0.7 0-1.4 0-0.7 0-1.4 0-0.8 0-1.5 0c0-11.2-1.2-22.1-3.3-32.7-2.2-10.5-5.3-20.7-9.5-30.4q0.7-0.3 1.4-0.6 0.7-0.3 1.3-0.6 0.7-0.3 1.3-0.6 0.6-0.3 1.2-0.5 0.7-0.4 1.4-0.7 0.1 0 0.1 0 0.7-0.3 1.4-0.6 0.9-0.4 1.8-0.8 0.9-0.4 1.8-0.8 0.8-0.4 1.7-0.8c4.5 10.6 7.8 21.7 10 33.3 2.2 11.6 3.3 23.6 3.3 35.8q-0.9 0-1.8 0zm1.8 0c0-12.2-1.1-24.2-3.3-35.8-2.2-11.6-5.5-22.7-10-33.3q3.1-1.3 6.3-2.6c9.5 22.6 14.1 47.2 14.1 71.7q-3.5 0-7.1 0zm7.1 0c0-24.5-4.6-49.1-14.1-71.7q2.9-1.2 6-2.2c4.8 11.3 8.5 23.2 11 35.6 2.6 12.4 3.9 25.2 3.9 38.3q-3.4 0-6.8 0zm-175.4-2.9q-0.3 0.1-0.5 0.2c-2.6 1-5 2-7.2 2.7 1.5-1.5 3.1-3.1 5-5q0.2-0.2 0.4-0.5 2.6-2.5 5.5-5.4 1.3 1.1 2.6 2.3c0.7 0.7 1.4 1.5 1.8 2.5-2.6 1.1-5.2 2.2-7.6 3.2zm16-7q0 0-0.1 0.1c-2.8 1.2-5.6 2.5-8.3 3.7-0.4-1-1.1-1.8-1.8-2.5q-1.3-1.2-2.6-2.3c2.2-2.2 4.4-4.4 6.7-6.7q0.1-0.1 0.1-0.2c2.3-2.2 4.6-4.5 6.9-6.8q2.5 2.5 4.4 5.5 1.7 2.6 2.9 5.5c-2.6 1.2-5.4 2.4-8.2 3.7zm32.9-14.6q-0.2 0.1-0.5 0.2c-2.4 1-5 2.1-7.6 3.2-2.7 1.2-5.5 2.5-8.3 3.7q0 0.1-0.1 0.1c-2.8 1.3-5.6 2.5-8.2 3.7q-1.2-2.9-2.9-5.5-1.9-3-4.4-5.5c2.3-2.3 4.5-4.6 6.8-6.8q0.1-0.1 0.1-0.2c2.3-2.3 4.6-4.5 6.7-6.6q2.9-2.9 5.5-5.5 0.2-0.2 0.5-0.5c1.8-1.8 3.5-3.5 4.9-4.9 3.4 3.3 6.4 7 8.9 11 2.3 3.4 4.2 7.1 5.8 10.9-2.2 0.7-4.6 1.7-7.2 2.7zm86.2-35.7q-0.1 0.1-0.1 0.1c-2.2 1-4.5 2-6.7 2.9-2.1 0.9-4.2 1.8-6.1 2.6q-0.2 0.1-0.4 0.2c-2.1 0.8-4 1.5-5.8 2.1-2 0.7-4.3 1.5-6.7 2.5q-0.2 0.1-0.5 0.2c-2.3 0.9-4.7 1.9-7.1 3-2.6 1.1-5.3 2.2-7.8 3.4q-0.1 0-0.2 0c-2.6 1.2-5.2 2.4-7.6 3.5-2.5 1.1-5.1 2.2-7.7 3.4q-0.1 0-0.1 0c-2.6 1.2-5.3 2.4-7.8 3.5-2.5 1-4.9 2-7.2 2.9q-0.2 0.1-0.5 0.2c-2.4 1-4.7 1.8-6.7 2.5-1.6-3.8-3.5-7.5-5.8-10.9-2.5-4-5.5-7.7-8.9-11q2.1-2.1 4.7-4.7 0.2-0.2 0.4-0.4 2.4-2.4 5.1-5.1c2-2 4.1-4.1 6.2-6.2q0.1-0.1 0.2-0.2 3.1-3.1 6.3-6.4c2.2-2.1 4.3-4.2 6.4-6.3q0.1-0.1 0.1-0.2c2.2-2.1 4.3-4.2 6.2-6.2q2.8-2.7 5.2-5.1 0.2-0.2 0.4-0.4c1.7-1.8 3.3-3.3 4.7-4.7q1.7-1.7 3.9-3.9 0.2-0.2 0.4-0.4 2.1-2.1 4.4-4.4c1.7-1.7 3.5-3.5 5.3-5.3q0.1-0.1 0.2-0.2 2.7-2.7 5.4-5.4c7.9 7.8 14.9 16.5 21 25.8 5.4 8.1 10 16.7 13.7 25.7-2 0.9-4.3 1.9-6.5 2.9zm18.2-8.1q-0.9 0.4-1.8 0.8-0.9 0.4-1.8 0.8-0.7 0.3-1.4 0.6 0 0-0.1 0-0.7 0.3-1.4 0.7-0.6 0.2-1.2 0.5-0.6 0.3-1.3 0.6-0.6 0.3-1.3 0.6-0.7 0.3-1.4 0.6c-3.7-9-8.3-17.6-13.7-25.7-6.1-9.3-13.1-18-21-25.8q0.6-0.6 1.2-1.2 0.6-0.6 1.2-1.2 0.5-0.5 1.1-1.1 0.5-0.5 1-1 0.5-0.5 1-1 0-0.1 0.1-0.1 0.6-0.6 1.2-1.2 0.7-0.7 1.4-1.4 0.7-0.7 1.4-1.4 0.7-0.7 1.3-1.3c8.6 8.5 16.1 18.1 22.6 28.3 5.6 9 10.5 18.4 14.6 28.1q-0.9 0.4-1.7 0.8zm1.7-0.8c-4.1-9.7-9-19.1-14.6-28.1-6.5-10.2-14-19.8-22.6-28.3 1.5-1.6 3-3 4.5-4.5 16.7 16.6 29.8 36.7 39 58.3q-3.2 1.3-6.3 2.6zm6.3-2.6c-9.2-21.6-22.3-41.7-39-58.3q2.1-2.2 4.3-4.3c9.2 9.2 17.5 19.4 24.6 30.3 6.3 9.5 11.6 19.6 16.1 30.1q-3.1 1-6 2.2zm-163.6 66.2q-0.2 0.3-0.4 0.5c-1.9 1.9-3.5 3.5-5 5 0.7-2.2 1.6-4.6 2.7-7.2q0.1-0.2 0.2-0.5c1-2.4 2.1-5 3.2-7.6q0.9 0.4 1.6 1c1.2 1 2.1 2.3 3.2 3.4q-2.9 2.9-5.5 5.4zm12.3-12.3q0 0.1-0.1 0.2c-2.3 2.3-4.5 4.5-6.7 6.7-1.1-1.1-2-2.4-3.2-3.4q-0.7-0.6-1.6-1c1.2-2.7 2.5-5.6 3.7-8.3q0.1-0.1 0.1-0.1c1.3-2.8 2.5-5.6 3.7-8.2q1.8 0.7 3.4 1.7c2.8 1.5 5.3 3.4 7.6 5.6-2.3 2.3-4.6 4.6-6.9 6.8zm26.5-26.4q-0.3 0.3-0.5 0.5-2.6 2.6-5.5 5.5c-2.1 2.1-4.4 4.3-6.7 6.6q0 0.1-0.1 0.2c-2.3 2.2-4.5 4.5-6.8 6.8-2.3-2.2-4.8-4.1-7.6-5.6q-1.6-1-3.4-1.7c1.2-2.6 2.4-5.4 3.7-8.2q0-0.1 0-0.1c1.3-2.8 2.6-5.6 3.8-8.3 1.1-2.7 2.2-5.2 3.2-7.6q0.1-0.3 0.2-0.6c1-2.5 1.9-5 2.7-7.1q3.5 1.5 6.9 3.3c5.5 3.1 10.6 6.9 15 11.4-1.4 1.4-3.1 3.1-4.9 4.9zm65-65q-0.1 0.1-0.2 0.2c-1.8 1.8-3.6 3.6-5.3 5.3q-2.3 2.3-4.4 4.4-0.2 0.2-0.4 0.4-2.2 2.2-3.9 3.9c-1.4 1.4-3 2.9-4.7 4.7q-0.2 0.2-0.4 0.4-2.4 2.4-5.2 5.1c-1.9 2-4 4.1-6.2 6.2q0 0.1-0.1 0.2c-2.1 2.1-4.2 4.2-6.4 6.3q-3.2 3.3-6.3 6.4-0.1 0.1-0.2 0.2c-2.1 2.1-4.2 4.2-6.2 6.2q-2.7 2.7-5.1 5.1-0.2 0.2-0.4 0.4-2.6 2.6-4.7 4.7c-4.4-4.5-9.5-8.3-15-11.4q-3.4-1.8-6.9-3.3c0.6-2.1 1.5-4.3 2.5-6.8q0-0.2 0.1-0.4c1-2.3 2-4.7 3-7.2 1.1-2.6 2.3-5.2 3.4-7.8q0.1 0 0.1-0.1c1.2-2.6 2.3-5.2 3.4-7.7 1.1-2.4 2.3-5 3.4-7.7q0.1 0 0.1-0.1c1.1-2.6 2.3-5.2 3.4-7.8 1.1-2.4 2.1-4.8 3-7.1q0.1-0.3 0.2-0.5c0.9-2.4 1.8-4.7 2.5-6.7 0.6-1.8 1.3-3.7 2.1-5.8q0.1-0.2 0.2-0.4c0.8-2 1.6-4 2.6-6.1 0.9-2.2 1.9-4.5 2.9-6.7q0 0 0.1-0.1c1-2.3 2-4.5 2.9-6.6q8.4 3.6 16.2 8c12.9 7.2 24.8 16.3 35.3 26.8q-2.7 2.7-5.4 5.4zm15-15q-0.7 0.7-1.4 1.4-0.7 0.7-1.4 1.4-0.6 0.6-1.2 1.2-0.1 0-0.1 0.1-0.5 0.5-1 1-0.5 0.5-1 1-0.6 0.6-1.1 1.1-0.6 0.6-1.2 1.2-0.6 0.6-1.2 1.2c-10.5-10.5-22.4-19.6-35.3-26.8q-7.8-4.4-16.2-8 0.3-0.6 0.6-1.3 0.3-0.7 0.6-1.3 0.3-0.7 0.6-1.4 0.3-0.5 0.5-1.1 0.3-0.7 0.7-1.4 0-0.1 0-0.1 0.3-0.7 0.6-1.4 0.4-0.9 0.8-1.8 0.4-0.9 0.8-1.8 0.4-0.8 0.8-1.7 9 3.8 17.6 8.5c14.2 7.7 27.4 17.3 38.8 28.7q-0.6 0.6-1.3 1.3zm1.3-1.3c-11.4-11.4-24.6-21-38.8-28.7q-8.6-4.7-17.6-8.5 1.3-3.1 2.6-6.3c21.6 9.2 41.7 22.3 58.3 39-1.5 1.5-3 2.9-4.5 4.5zm4.5-4.5c-16.6-16.7-36.7-29.8-58.3-39q1.2-2.9 2.2-6 9.8 4.2 19 9.3c15.2 8.5 29.1 19.1 41.4 31.4q-2.2 2.1-4.3 4.3zm-127.1 122.3q-0.1 0.3-0.2 0.5c-1.1 2.6-2 5-2.7 7.2q0-4.3 0-8.7 0-4.3 0-8.6c1.2 0 2.2 0.3 3.2 0.7 1 0.4 1.9 0.9 2.9 1.3-1.1 2.6-2.2 5.2-3.2 7.6zm7-16q0 0-0.1 0.1c-1.2 2.7-2.5 5.6-3.7 8.3-1-0.4-1.9-0.9-2.9-1.3-1-0.4-2-0.7-3.2-0.7q0-4.3 0-8.7 0-4.3 0-8.6 3.7 0 7.1 0.7 3.4 0.7 6.5 2c-1.2 2.6-2.4 5.4-3.7 8.2zm14.6-33q-0.1 0.3-0.2 0.6c-1 2.4-2.1 4.9-3.2 7.6-1.2 2.7-2.5 5.5-3.8 8.3q0 0 0 0.1c-1.3 2.8-2.5 5.6-3.7 8.2q-3.1-1.3-6.5-2-3.4-0.7-7.1-0.7 0-4.3 0-8.6 0-4.4 0-8.7 0-4.3 0-8.6 0-4.4 0-8.7c4.9 0 9.6 0.5 14.1 1.4 4.5 0.9 8.9 2.3 13.1 4-0.8 2.1-1.7 4.6-2.7 7.1zm35.7-86.1q-0.1 0.1-0.1 0.1c-1 2.2-2 4.5-2.9 6.7-1 2.1-1.8 4.1-2.6 6.1q-0.1 0.2-0.2 0.4c-0.8 2.1-1.5 4-2.1 5.8-0.7 2-1.6 4.3-2.5 6.7q-0.1 0.2-0.2 0.5c-0.9 2.3-1.9 4.7-3 7.1-1.1 2.6-2.3 5.2-3.4 7.8q0 0.1-0.1 0.1c-1.1 2.7-2.3 5.3-3.4 7.7-1.1 2.5-2.2 5.1-3.4 7.7q0 0.1-0.1 0.1c-1.1 2.6-2.3 5.2-3.4 7.8-1 2.5-2 4.9-3 7.2q-0.1 0.2-0.1 0.4c-1 2.5-1.9 4.7-2.5 6.8-4.2-1.7-8.6-3.1-13.1-4-4.5-0.9-9.2-1.4-14.1-1.4q0-4 0-8.1 0-4.1 0-8.2 0-4 0-8.1 0-4.1 0-8.1 0-4.1 0-8.2 0-4 0-8.1 0-4.1 0-8.2 0-4 0-8.1 0-3.5 0-6.9 0-3.5 0-7 0-3.5 0-7 0-3.4 0-6.9c11.2 0 22.1 1.1 32.7 3.3 10.5 2.2 20.7 5.3 30.4 9.4-0.9 2.1-1.9 4.3-2.9 6.6zm8.1-18.2q-0.4 0.9-0.8 1.8-0.4 0.9-0.8 1.8-0.3 0.7-0.6 1.4 0 0 0 0.1-0.4 0.7-0.7 1.4-0.2 0.6-0.5 1.1-0.3 0.7-0.6 1.4-0.3 0.6-0.6 1.3-0.3 0.7-0.6 1.3c-9.7-4.1-19.9-7.2-30.4-9.4-10.6-2.2-21.5-3.3-32.7-3.3q0-0.7 0-1.5 0-0.7 0-1.4 0-0.7 0-1.4 0-0.6 0-1.2 0-0.7 0-1.5 0 0 0 0 0-0.7 0-1.4 0-1 0-1.9 0-0.9 0-1.8 0-0.9 0-1.8c12.2 0 24.2 1.1 35.8 3.3 11.5 2.2 22.7 5.5 33.3 10q-0.4 0.9-0.8 1.7zm0.8-1.7c-10.6-4.5-21.8-7.8-33.3-10-11.6-2.2-23.6-3.3-35.8-3.3q0-3.6 0-7.1c24.5 0 49.1 4.6 71.7 14.1q-1.3 3.2-2.6 6.3zm2.6-6.3c-22.6-9.5-47.2-14.1-71.7-14.1q0-3.4 0-6.8c13.1 0 25.9 1.3 38.3 3.8 12.3 2.6 24.3 6.3 35.6 11.1q-1 3.1-2.2 6zm-71.7 160.3q0 4.4 0 8.7c-0.7-2.2-1.6-4.6-2.7-7.2q-0.1-0.2-0.2-0.5c-1-2.4-2-5-3.2-7.6 1-0.4 2-0.9 2.9-1.3 1-0.4 2-0.7 3.2-0.7q0 4.3 0 8.6zm0-17.3q0 4.4 0 8.7c-1.2 0-2.2 0.3-3.2 0.7-0.9 0.4-1.9 0.9-2.9 1.3-1.2-2.7-2.5-5.6-3.7-8.3q0-0.1-0.1-0.1c-1.2-2.8-2.5-5.6-3.7-8.2q3.2-1.3 6.6-2 3.4-0.7 7-0.7 0 4.3 0 8.6zm0-34.5q0 4.3 0 8.6 0 4.3 0 8.7 0 4.3 0 8.6-3.6 0-7 0.7-3.4 0.7-6.6 2c-1.1-2.6-2.4-5.4-3.7-8.2q0-0.1 0-0.1c-1.3-2.8-2.5-5.6-3.7-8.3-1.2-2.7-2.3-5.2-3.2-7.6q-0.2-0.3-0.3-0.6c-1-2.5-1.9-5-2.6-7.1q6.2-2.6 13-4 6.8-1.4 14.1-1.4 0 4.3 0 8.7zm0-94.7q0 3.5 0 7 0 3.5 0 7 0 3.4 0 6.9 0 4.1 0 8.1 0 4.1 0 8.2 0 4.1 0 8.1 0 4.1 0 8.2 0 4 0 8.1 0 4.1 0 8.1 0 4.1 0 8.2 0 4.1 0 8.1-7.3 0-14.1 1.4-6.8 1.4-13 4c-0.7-2.1-1.6-4.3-2.5-6.8q-0.1-0.2-0.2-0.4c-0.9-2.3-1.9-4.7-3-7.2-1.1-2.6-2.3-5.2-3.4-7.8q0 0-0.1-0.1c-1.1-2.6-2.3-5.2-3.4-7.7-1.1-2.4-2.2-5-3.4-7.7q0 0-0.1-0.1c-1.1-2.6-2.3-5.2-3.4-7.8-1-2.4-2.1-4.8-3-7.1q-0.1-0.3-0.2-0.5c-0.9-2.4-1.8-4.7-2.4-6.7-0.6-1.8-1.4-3.7-2.2-5.8q-0.1-0.2-0.2-0.4c-0.7-2-1.6-4-2.5-6.1-1-2.2-2-4.5-3-6.7q0 0 0-0.1c-1-2.3-2-4.5-3-6.6 9.7-4.1 19.9-7.2 30.5-9.4 10.5-2.2 21.4-3.3 32.6-3.3q0 3.5 0 6.9zm0-19q0 0.9 0 1.8 0 0.9 0 1.9 0 0.7 0 1.4 0 0 0 0 0 0.8 0 1.5 0 0.6 0 1.2 0 0.7 0 1.4 0 0.7 0 1.4 0 0.8 0 1.5c-11.2 0-22.1 1.1-32.6 3.3-10.6 2.2-20.8 5.3-30.5 9.4q-0.3-0.6-0.6-1.3-0.3-0.7-0.6-1.3-0.3-0.7-0.6-1.4-0.2-0.5-0.5-1.1-0.3-0.7-0.6-1.4 0-0.1-0.1-0.1-0.3-0.7-0.6-1.4-0.4-0.9-0.8-1.8-0.4-0.9-0.8-1.8-0.3-0.8-0.7-1.7c10.5-4.5 21.7-7.8 33.3-10 11.6-2.2 23.6-3.3 35.7-3.3q0 0.9 0 1.8zm0-1.8c-12.1 0-24.1 1.1-35.7 3.3-11.6 2.2-22.8 5.5-33.3 10-0.9-2.1-1.8-4.2-2.6-6.3 22.6-9.5 47.1-14.1 71.6-14.1q0 3.5 0 7.1zm0-7.1c-24.5 0-49 4.6-71.6 14.1-0.9-1.9-1.6-4-2.3-6 11.4-4.8 23.3-8.5 35.6-11.1 12.4-2.5 25.2-3.8 38.3-3.8q0 3.4 0 6.8zm-2.9 175.4q0.1 0.3 0.2 0.5c1.1 2.6 2 5 2.7 7.2-1.4-1.5-3.1-3.1-4.9-5q-0.3-0.2-0.5-0.4c-1.7-1.8-3.6-3.6-5.5-5.5 0.8-0.8 1.5-1.7 2.2-2.5 0.8-0.8 1.6-1.5 2.6-1.9 1.2 2.6 2.2 5.2 3.2 7.6zm-7-16q0.1 0 0.1 0.1c1.2 2.7 2.5 5.6 3.7 8.3-1 0.4-1.8 1.1-2.6 1.9-0.7 0.8-1.4 1.7-2.2 2.5-2.1-2.2-4.4-4.4-6.6-6.7q-0.1-0.1-0.2-0.2c-2.3-2.2-4.5-4.5-6.8-6.8q2.3-2.3 5.1-4.2 2.7-1.8 5.8-3.1c1.2 2.6 2.5 5.4 3.7 8.2zm-14.6-33q0.1 0.3 0.3 0.6c0.9 2.4 2 4.9 3.2 7.6 1.2 2.7 2.4 5.5 3.7 8.3q0 0 0 0.1c1.3 2.8 2.6 5.6 3.7 8.2q-3.1 1.3-5.8 3.1-2.8 1.9-5.1 4.2c-2.3-2.3-4.6-4.6-6.9-6.8q0-0.1-0.1-0.2c-2.3-2.3-4.5-4.5-6.7-6.6-1.9-2-3.8-3.8-5.5-5.5q-0.2-0.2-0.4-0.5c-1.9-1.8-3.5-3.5-5-4.9 3.1-3.1 6.5-5.9 10.2-8.4q5.5-3.7 11.8-6.3c0.7 2.1 1.6 4.6 2.6 7.1zm-35.6-86.1q0 0.1 0 0.1c1 2.2 2 4.5 3 6.7 0.9 2.1 1.8 4.1 2.5 6.1q0.1 0.2 0.2 0.4c0.8 2.1 1.6 4 2.2 5.8 0.6 2 1.5 4.3 2.4 6.7q0.1 0.2 0.2 0.5c0.9 2.3 2 4.7 3 7.1 1.1 2.6 2.3 5.2 3.4 7.8q0.1 0.1 0.1 0.1c1.2 2.7 2.3 5.3 3.4 7.7 1.1 2.5 2.3 5.1 3.4 7.7q0.1 0.1 0.1 0.1c1.1 2.6 2.3 5.2 3.4 7.8 1.1 2.5 2.1 4.9 3 7.2q0.1 0.2 0.2 0.4c0.9 2.5 1.8 4.7 2.5 6.8q-6.3 2.6-11.8 6.3c-3.7 2.5-7.1 5.3-10.2 8.4q-2-2.1-4.6-4.7-0.2-0.2-0.5-0.4c-1.6-1.6-3.3-3.3-5.1-5.1-2-2-4.1-4.1-6.2-6.2q-0.1-0.1-0.1-0.2-3.2-3.1-6.4-6.4c-2.1-2.1-4.3-4.2-6.4-6.3q0-0.1-0.1-0.2c-2.1-2.1-4.2-4.2-6.2-6.2q-2.7-2.7-5.1-5.1-0.3-0.2-0.5-0.4c-1.7-1.8-3.3-3.3-4.6-4.7q-1.8-1.7-4-3.9-0.2-0.2-0.4-0.4-2-2.1-4.4-4.4-2.5-2.6-5.3-5.3-0.1-0.1-0.1-0.2-2.7-2.7-5.5-5.4c7.3-7.4 15.4-14 24-19.8 8.6-5.8 17.8-10.9 27.5-15 1 2.1 2 4.3 3 6.6zm-8.2-18.2q0.4 0.9 0.8 1.8 0.4 0.9 0.8 1.8 0.3 0.7 0.6 1.4 0.1 0 0.1 0.1 0.3 0.7 0.6 1.4 0.3 0.6 0.5 1.1 0.3 0.7 0.6 1.4 0.3 0.6 0.6 1.3 0.3 0.7 0.6 1.3c-9.7 4.1-18.9 9.2-27.5 15-8.6 5.8-16.7 12.4-24 19.8q-0.6-0.6-1.2-1.2-0.6-0.6-1.1-1.2-0.6-0.5-1.1-1.1-0.5-0.5-1-1-0.5-0.5-1-1-0.1-0.1-0.2-0.1-0.6-0.6-1.1-1.2-0.8-0.7-1.5-1.4-0.7-0.7-1.4-1.4-0.6-0.7-1.3-1.3c8-8 16.8-15.1 26.3-21.3 9.5-6.1 19.7-11.5 30.2-15.9q0.4 0.9 0.7 1.7zm-0.7-1.7c-10.5 4.4-20.7 9.8-30.2 15.9-9.5 6.2-18.3 13.3-26.3 21.3q-2.2-2.3-4.5-4.5c16.6-16.7 36.7-29.8 58.4-39 0.8 2.1 1.7 4.2 2.6 6.3zm-2.6-6.3c-21.7 9.2-41.8 22.3-58.4 39q-2.1-2.2-4.3-4.3c8.6-8.6 18.1-16.4 28.2-23.2 10.1-6.8 20.8-12.7 32.2-17.5 0.7 2 1.4 4.1 2.3 6zm66.2 163.6q0.2 0.2 0.5 0.4c1.8 1.9 3.5 3.5 4.9 5-2.1-0.7-4.6-1.7-7.1-2.7q-0.3-0.1-0.6-0.2c-2.4-1-4.9-2.1-7.6-3.2 0.5-1.1 1.2-1.9 2-2.6 0.8-0.8 1.6-1.5 2.4-2.2 1.9 1.9 3.8 3.7 5.5 5.5zm-12.3-12.4q0.1 0.1 0.2 0.2c2.2 2.3 4.5 4.5 6.6 6.7-0.8 0.7-1.6 1.4-2.4 2.2-0.8 0.7-1.5 1.5-2 2.6-2.7-1.2-5.5-2.5-8.3-3.7q0-0.1-0.1-0.1c-2.8-1.3-5.6-2.5-8.2-3.7q1.3-3.1 3.2-5.9 1.8-2.7 4.2-5.1c2.3 2.3 4.5 4.6 6.8 6.8zm-26.4-26.4q0.2 0.3 0.4 0.5c1.7 1.7 3.6 3.5 5.5 5.5 2.2 2.1 4.4 4.3 6.7 6.6q0.1 0.1 0.1 0.2c2.3 2.2 4.6 4.5 6.9 6.8q-2.4 2.4-4.2 5.1-1.9 2.8-3.2 5.9c-2.6-1.2-5.4-2.4-8.2-3.7q0 0-0.1-0.1c-2.7-1.2-5.6-2.5-8.3-3.7-2.6-1.1-5.2-2.2-7.6-3.2q-0.3-0.1-0.5-0.2c-2.6-1-5-2-7.2-2.7 1.8-4.1 3.9-8.1 6.3-11.7 2.5-3.7 5.3-7.1 8.4-10.2 1.5 1.4 3.1 3.1 5 4.9zm-65-65q0 0.1 0.1 0.2 2.8 2.7 5.3 5.3 2.4 2.3 4.4 4.4 0.2 0.2 0.4 0.4 2.2 2.2 4 3.9c1.3 1.4 2.9 2.9 4.6 4.7q0.2 0.2 0.5 0.4 2.4 2.4 5.1 5.1c2 2 4.1 4.1 6.2 6.2q0.1 0.1 0.1 0.2c2.1 2.1 4.3 4.2 6.4 6.3q3.2 3.3 6.4 6.4 0 0.1 0.1 0.2c2.1 2.1 4.2 4.2 6.2 6.2 1.8 1.8 3.5 3.5 5.1 5.1q0.3 0.2 0.5 0.4 2.6 2.6 4.6 4.7c-3.1 3.1-5.9 6.5-8.4 10.2-2.4 3.6-4.5 7.6-6.3 11.7-2-0.7-4.3-1.5-6.7-2.5q-0.2-0.1-0.5-0.2c-2.3-0.9-4.7-1.9-7.1-2.9-2.6-1.1-5.2-2.3-7.8-3.5q-0.1 0-0.2 0c-2.6-1.2-5.2-2.3-7.6-3.4-2.5-1.1-5.1-2.3-7.7-3.5q-0.1 0-0.1 0c-2.6-1.2-5.3-2.3-7.8-3.4-2.5-1.1-4.9-2.1-7.2-3q-0.2-0.1-0.5-0.2c-2.4-1-4.7-1.8-6.7-2.5-1.7-0.6-3.7-1.3-5.8-2.1q-0.2-0.1-0.4-0.2c-1.9-0.8-4-1.7-6.1-2.6-2.2-0.9-4.4-1.9-6.7-2.9q0 0-0.1-0.1c-2.2-1-4.4-2-6.5-2.9 4.1-9.7 9.1-18.9 14.9-27.5 5.8-8.7 12.5-16.7 19.8-24q2.8 2.7 5.5 5.4zm-15.1-15q0.7 0.7 1.4 1.4 0.7 0.7 1.5 1.4 0.5 0.6 1.1 1.2 0.1 0 0.2 0.1 0.5 0.5 1 1 0.5 0.5 1 1 0.5 0.6 1.1 1.1 0.5 0.6 1.1 1.2 0.6 0.6 1.2 1.2c-7.3 7.3-14 15.3-19.8 24-5.8 8.6-10.8 17.8-14.9 27.5q-0.7-0.3-1.4-0.6-0.6-0.3-1.3-0.6-0.7-0.3-1.3-0.6-0.6-0.3-1.2-0.5-0.7-0.4-1.4-0.7 0 0-0.1 0-0.7-0.3-1.3-0.6-0.9-0.4-1.9-0.8-0.8-0.4-1.7-0.8-0.9-0.4-1.8-0.8c4.5-10.5 9.8-20.6 16-30.1 6.2-9.5 13.2-18.4 21.2-26.3q0.7 0.6 1.3 1.3zm-1.3-1.3c-8 7.9-15 16.8-21.2 26.3-6.2 9.5-11.5 19.6-16 30.1q-3.1-1.3-6.2-2.6c9.1-21.6 22.2-41.7 38.9-58.3q2.3 2.2 4.5 4.5zm-4.5-4.5c-16.7 16.6-29.8 36.7-38.9 58.3q-3-1.2-6-2.2c4.8-11.4 10.6-22.2 17.5-32.3 6.8-10.1 14.6-19.5 23.1-28.1q2.2 2.1 4.3 4.3zm122.3 127.1q0.3 0.1 0.6 0.2c2.5 1 5 2 7.1 2.7-5 2.3-9.9 4.6-15 6.6-2.6-4.8-2.3-7.8-0.3-12.7 2.7 1.1 5.2 2.2 7.6 3.2zm-16-7q0.1 0 0.1 0.1c2.8 1.2 5.6 2.5 8.3 3.7-2 4.9-2.3 7.9 0.3 12.7-5.6 2.5-11.1 5-16.7 7.4-3.8-8.6-3.8-18.9-0.2-27.6 2.6 1.2 5.4 2.4 8.2 3.7zm-32.9-14.6q0.2 0.1 0.5 0.2c2.4 1 5 2.1 7.6 3.2 2.7 1.2 5.6 2.5 8.3 3.7q0.1 0.1 0.1 0.1c2.8 1.3 5.6 2.5 8.2 3.7-3.6 8.7-3.6 19 0.2 27.6-10.6 4.4-21.3 9-31.7 14.1-7.5-17.4-7.7-37.8-0.4-55.3 2.2 0.7 4.6 1.7 7.2 2.7zm-86.2-35.7q0.1 0.1 0.1 0.1c2.3 1 4.5 2 6.7 2.9 2.1 0.9 4.2 1.8 6.1 2.6q0.2 0.1 0.4 0.2c2.1 0.8 4.1 1.5 5.8 2.1 2 0.7 4.3 1.5 6.7 2.5q0.3 0.1 0.5 0.2c2.3 0.9 4.7 1.9 7.2 3 2.5 1.1 5.2 2.2 7.8 3.4q0 0 0.1 0c2.6 1.2 5.2 2.4 7.7 3.5 2.4 1.1 5 2.2 7.6 3.4q0.1 0 0.2 0c2.6 1.2 5.2 2.4 7.8 3.5 2.4 1 4.8 2 7.1 2.9q0.3 0.1 0.5 0.2c2.4 1 4.7 1.8 6.7 2.5-7.3 17.5-7.1 37.9 0.4 55.3-14.8 7.2-30.2 13.4-45.4 19.7-6.8 2.8-13.3 6.3-20 9.2-6.5 2.8-13.3 5.2-19.2 9-18.2-40.6-18.7-88.1-1.3-129.1 2.1 0.9 4.3 1.9 6.5 2.9zm-18.1-8.1q0.9 0.4 1.7 0.8 1 0.4 1.9 0.8 0.6 0.3 1.3 0.6 0.1 0 0.1 0 0.7 0.3 1.4 0.7 0.6 0.2 1.2 0.5 0.6 0.3 1.3 0.6 0.7 0.3 1.3 0.6 0.7 0.3 1.4 0.6c-17.4 41-16.9 88.5 1.3 129.1-3.9 2.4-9 5.1-13.4 6-19.2-43.6-19.9-97.1-1.3-141.1q0.9 0.4 1.8 0.8zm-1.8-0.8c-18.6 44-17.9 97.5 1.3 141.1-1.3 0.2-4.1 1-6.6 2.1-20.2-45.8-20.6-99.8-0.9-145.8q3.1 1.3 6.2 2.6zm-6.2-2.6c-19.7 46-19.3 100 0.9 145.8-2.4 0.9-4.7 2.1-5.4 3.2q-0.8-1.7-1.5-3.4c-4.8-11.4-8.6-23.3-11.1-35.7-2.5-12.3-3.9-25.1-3.9-38.2 0-13.1 1.4-25.9 3.9-38.3 2.5-12.4 6.3-24.3 11.1-35.6q3 1 6 2.2zm168.9 71.7c-0.7 2.1-1.6 4.6-2.7 7.1q-0.1 0.3-0.2 0.5c-1 2.5-2 5-3.2 7.6-2.8-1.2-7.4-5.9-8.9-8.6 5.1-2 10-4.3 15-6.6zm-15 6.6c1.5 2.7 6.1 7.4 8.9 8.6-1.2 2.8-2.5 5.6-3.7 8.4q0 0-0.1 0.1c-1.2 2.8-2.5 5.5-3.7 8.2-8-3.4-14.6-9.9-18.1-17.9 5.6-2.4 11.1-4.9 16.7-7.4zm-16.7 7.4c3.5 8 10.1 14.5 18.1 17.9-1.1 2.6-2.4 5.3-3.7 8.1q0 0.1 0 0.2c-1.3 2.7-2.5 5.5-3.7 8.3-1.2 2.6-2.3 5.2-3.2 7.6q-0.2 0.2-0.3 0.5c-1 2.6-1.9 5-2.6 7.2-16.2-6.8-29.3-19.7-36.3-35.7 10.4-5.1 21.1-9.7 31.7-14.1zm-97.1 43c6.7-2.9 13.2-6.4 20-9.2 15.2-6.3 30.6-12.5 45.4-19.7 7 16 20.1 28.9 36.3 35.7-0.7 2-1.6 4.3-2.5 6.7q-0.1 0.2-0.2 0.5-1.4 3.4-3 7.1c-1.1 2.6-2.3 5.2-3.4 7.8q0 0.1-0.1 0.1c-1.1 2.7-2.3 5.3-3.4 7.7-1.1 2.5-2.2 5.1-3.4 7.7q0 0.1-0.1 0.1c-1.1 2.6-2.3 5.2-3.4 7.8-1 2.5-2.1 4.9-3 7.2q-0.1 0.2-0.2 0.5c-0.9 2.4-1.8 4.6-2.4 6.7-0.6 1.7-1.4 3.7-2.2 5.7q-0.1 0.2-0.2 0.4c-0.7 2-1.6 4.1-2.5 6.2-1 2.2-2 4.4-3 6.6q0 0.1 0 0.1c-1 2.3-2 4.5-3 6.6-37.6-15.9-68.3-46.1-84.9-83.3 5.9-3.8 12.7-6.2 19.2-9zm-19.2 9c16.6 37.2 47.3 67.4 84.9 83.3q-0.3 0.7-0.6 1.4-0.3 0.6-0.6 1.3-0.3 0.6-0.6 1.3-0.2 0.6-0.5 1.2-0.3 0.7-0.6 1.4 0 0-0.1 0.1-0.3 0.6-0.6 1.3-0.4 0.9-0.8 1.8-0.4 0.9-0.8 1.8-0.3 0.9-0.7 1.8c-41.9-17.7-74.1-49.2-92.4-90.7 4.4-0.9 9.5-3.6 13.4-6zm-13.4 6c18.3 41.5 50.5 73 92.4 90.7q-1.4 3.1-2.6 6.2c-42.9-18.2-77.5-52.4-96.4-94.8 2.5-1.1 5.3-1.9 6.6-2.1zm-6.6 2.1c18.9 42.4 53.5 76.6 96.4 94.8-0.9 2-1.6 4-2.3 6-11.4-4.8-22.1-10.7-32.2-17.5-10.1-6.8-19.6-14.6-28.2-23.2-8.5-8.6-16.3-18-23.1-28.1-6.2-9-11.5-18.7-16-28.8 0.7-1.1 3-2.3 5.4-3.2zm165.1-66.5q0.1-0.2 0.2-0.5c1.1-2.5 2-5 2.7-7.1q0 4.3 0 8.6 0 4.3 0 8.7 0 0 0 0c-2.3-0.1-4.1-1.2-6.1-2.1 1.2-2.6 2.2-5.1 3.2-7.6zm-7 16.1q0.1-0.1 0.1-0.1c1.2-2.8 2.5-5.6 3.7-8.4 2 0.9 3.8 2 6.1 2.1q0 0 0 0 0 4.3 0 8.6 0 4.3 0 8.6 0 0 0 0c-4.6 0-9.3-0.8-13.6-2.6 1.2-2.7 2.5-5.4 3.7-8.2zm-14.6 32.9q0.1-0.3 0.3-0.5c0.9-2.4 2-5 3.2-7.6 1.2-2.8 2.4-5.6 3.7-8.3q0-0.1 0-0.2c1.3-2.8 2.6-5.5 3.7-8.1 4.3 1.8 9 2.6 13.6 2.6q0 0 0 0 0 4.4 0 8.7 0 4.3 0 8.6 0 4.4 0 8.7 0 4.3 0 8.6 0 0-0.1 0c-9.2 0-18.5-1.8-27-5.3 0.7-2.2 1.6-4.6 2.6-7.2zm-35.6 86.1q0 0 0-0.1c1-2.2 2-4.4 3-6.6 0.9-2.1 1.8-4.2 2.5-6.2q0.1-0.2 0.2-0.4c0.8-2 1.6-4 2.2-5.7 0.6-2.1 1.5-4.3 2.4-6.7q0.1-0.3 0.2-0.5c0.9-2.3 2-4.7 3-7.2 1.1-2.6 2.3-5.2 3.4-7.8q0.1 0 0.1-0.1c1.2-2.6 2.3-5.2 3.4-7.7 1.1-2.4 2.3-5 3.4-7.7q0.1 0 0.1-0.1c1.1-2.6 2.3-5.2 3.4-7.8q1.6-3.7 3-7.1 0.1-0.3 0.2-0.5c0.9-2.4 1.8-4.7 2.5-6.7 8.5 3.5 17.8 5.3 27 5.3q0.1 0 0.1 0 0 4.1 0 8.2 0 4 0 8.1 0 4.1 0 8.1 0 4.1 0 8.2 0 4 0 8.1 0 4.1 0 8.2 0 4 0 8.1 0 4.1 0 8.1 0 3.5 0 7 0 3.5 0 6.9 0 3.5 0 7 0 3.5 0 6.9-0.1 0-0.2 0c-21.5 0-43-4.3-62.9-12.7 1-2.1 2-4.3 3-6.6zm-8.2 18.2q0.4-0.9 0.8-1.8 0.4-0.9 0.8-1.8 0.3-0.7 0.6-1.3 0.1-0.1 0.1-0.1 0.3-0.7 0.6-1.4 0.3-0.6 0.5-1.2 0.3-0.7 0.6-1.3 0.3-0.7 0.6-1.3 0.3-0.7 0.6-1.4c19.9 8.4 41.4 12.7 62.9 12.7q0.1 0 0.2 0 0 0.8 0 1.5 0 0.7 0 1.4 0 0.7 0 1.4 0 0.6 0 1.2 0 0.8 0 1.5 0 0.7 0 1.5 0 0.9 0 1.8 0 0.9 0 1.8 0 0.9 0 1.8-0.1 0-0.2 0c-23.5 0-47.2-4.1-68.8-13.2q0.4-0.9 0.7-1.8zm-0.7 1.8c21.6 9.1 45.3 13.2 68.8 13.2q0.1 0 0.2 0 0 3.6 0 7.2-0.1 0-0.2 0c-24.5-0.1-48.9-4.7-71.4-14.2q1.2-3.1 2.6-6.2zm-2.6 6.2c22.5 9.5 46.9 14.1 71.4 14.2q0.1 0 0.2 0 0 3.4 0 6.7-0.1 0-0.2 0c-13.1 0-25.8-1.3-38.1-3.8-12.3-2.5-24.2-6.3-35.6-11.1 0.7-2 1.4-4 2.3-6zm71.6-160.3q0-4.3 0-8.6c0.7 2.1 1.6 4.6 2.7 7.1q0.1 0.3 0.2 0.5c1 2.5 2.1 5 3.2 7.6-1 0.5-1.9 1-2.9 1.4-1 0.4-2 0.7-3.2 0.7q0-4.4 0-8.7zm0 17.3q0-4.3 0-8.6c1.2 0 2.2-0.3 3.2-0.7 1-0.4 1.9-0.9 2.9-1.4 1.2 2.8 2.5 5.6 3.7 8.4q0.1 0 0.1 0.1c1.3 2.8 2.5 5.5 3.7 8.2q-3.1 1.3-6.5 1.9c-2.3 0.5-4.7 0.7-7.1 0.7q0-4.3 0-8.6zm0 34.6q0-4.3 0-8.7 0-4.3 0-8.6 0-4.3 0-8.7c2.4 0 4.8-0.2 7.1-0.7q3.4-0.6 6.5-1.9c1.2 2.6 2.4 5.3 3.7 8.1q0 0.1 0 0.2c1.3 2.7 2.6 5.5 3.8 8.3 1.1 2.6 2.2 5.2 3.2 7.6q0.1 0.2 0.2 0.5c1 2.6 1.9 5 2.7 7.2-4.2 1.7-8.6 3-13.1 3.9-4.5 0.9-9.2 1.4-14.1 1.4q0-4.3 0-8.6zm0 94.6q0-3.5 0-7 0-3.4 0-6.9 0-3.5 0-7 0-4 0-8.1 0-4.1 0-8.1 0-4.1 0-8.2 0-4.1 0-8.1 0-4.1 0-8.2 0-4 0-8.1 0-4.1 0-8.1 0-4.1 0-8.2c4.9 0 9.6-0.5 14.1-1.4 4.5-0.9 8.9-2.2 13.1-3.9 0.6 2 1.5 4.3 2.5 6.7q0 0.2 0.1 0.5c1 2.3 2 4.7 3 7.1 1.1 2.6 2.3 5.2 3.4 7.8q0.1 0.1 0.1 0.1c1.2 2.7 2.3 5.3 3.4 7.7 1.1 2.5 2.3 5.1 3.4 7.7q0.1 0.1 0.1 0.1c1.1 2.6 2.3 5.2 3.4 7.8 1.1 2.5 2.1 4.9 3 7.2q0.1 0.2 0.2 0.5c0.9 2.4 1.8 4.6 2.5 6.7 0.6 1.7 1.3 3.7 2.1 5.7q0.1 0.2 0.2 0.4c0.8 2 1.6 4.1 2.6 6.2 0.9 2.2 1.9 4.4 2.9 6.6q0 0.1 0.1 0.1c1 2.3 2 4.5 2.9 6.6-9.7 4.1-19.9 7.3-30.4 9.5-10.6 2.1-21.5 3.2-32.7 3.2q0-3.4 0-6.9zm0 19q0-0.9 0-1.8 0-0.9 0-1.8 0-0.8 0-1.5 0-0.7 0-1.5 0-0.6 0-1.2 0-0.7 0-1.4 0-0.7 0-1.4 0-0.7 0-1.5c11.2 0 22.1-1.1 32.7-3.2 10.5-2.2 20.7-5.4 30.4-9.5q0.3 0.7 0.6 1.4 0.3 0.6 0.6 1.3 0.3 0.6 0.6 1.3 0.3 0.6 0.5 1.2 0.3 0.7 0.7 1.4 0 0 0 0.1 0.3 0.6 0.6 1.3 0.4 0.9 0.8 1.8 0.4 0.9 0.8 1.8 0.4 0.9 0.8 1.8c-10.6 4.4-21.8 7.7-33.3 9.9-11.6 2.3-23.6 3.3-35.8 3.3q0-0.9 0-1.8zm0 1.8c12.2 0 24.2-1 35.8-3.3 11.5-2.2 22.7-5.5 33.3-9.9 0.8 2 1.7 4.1 2.6 6.2-22.6 9.6-47.2 14.2-71.7 14.2q0-3.6 0-7.2zm0 7.2c24.5 0 49.1-4.6 71.7-14.2 0.8 2 1.5 4 2.2 6-11.3 4.8-23.3 8.6-35.6 11.1-12.4 2.5-25.2 3.8-38.3 3.8q0-3.3 0-6.7zm2.9-175.5q-0.1-0.2-0.2-0.5c-1.1-2.5-2-5-2.7-7.1 5.1 2 10 4.4 15.1 6.5-1.5 2.8-6 7.5-9 8.7-1.1-2.6-2.2-5.1-3.2-7.6zm7 16.1q0-0.1-0.1-0.1c-1.2-2.8-2.5-5.6-3.7-8.4 3-1.2 7.5-5.9 9-8.7 5.5 2.5 11 5.2 16.6 7.6-3.5 8-10 14.4-18.1 17.8-1.2-2.7-2.4-5.4-3.7-8.2zm14.6 32.9q-0.1-0.3-0.2-0.5c-1-2.4-2.1-5-3.2-7.6-1.2-2.8-2.5-5.6-3.8-8.3q0-0.1 0-0.2c-1.3-2.8-2.5-5.5-3.7-8.1 8.1-3.4 14.6-9.8 18.1-17.8 10.6 4.4 21 9.6 31.7 14-7 16-20.1 28.9-36.2 35.7-0.8-2.2-1.7-4.6-2.7-7.2zm35.7 86.1q-0.1 0-0.1-0.1c-1-2.2-2-4.4-2.9-6.6-1-2.1-1.8-4.2-2.6-6.2q-0.1-0.2-0.2-0.4c-0.8-2-1.5-4-2.1-5.7-0.7-2.1-1.6-4.3-2.5-6.7q-0.1-0.3-0.2-0.5c-0.9-2.3-1.9-4.7-3-7.2-1.1-2.6-2.3-5.2-3.4-7.8q0 0-0.1-0.1c-1.1-2.6-2.3-5.2-3.4-7.7-1.1-2.4-2.2-5-3.4-7.7q0 0-0.1-0.1c-1.1-2.6-2.3-5.2-3.4-7.8-1-2.4-2-4.8-3-7.1q-0.1-0.3-0.1-0.5c-1-2.4-1.9-4.7-2.5-6.7 16.1-6.8 29.2-19.7 36.2-35.7 15.1 6.3 30 13.2 44.9 19.9 5.4 0 12.8 5.5 17.6 7.7 7.5 3.3 15.1 6.2 22.2 10.2-16.6 37.2-47.4 67.5-85 83.4-0.9-2.1-1.9-4.3-2.9-6.6zm8.1 18.2q-0.4-0.9-0.8-1.8-0.4-0.9-0.8-1.8-0.3-0.7-0.6-1.3 0-0.1 0-0.1-0.4-0.7-0.7-1.4-0.2-0.6-0.5-1.2-0.3-0.7-0.6-1.3-0.3-0.7-0.6-1.3-0.3-0.7-0.6-1.4c37.6-15.9 68.4-46.2 85-83.4 4.2 2.2 8.8 4.7 13.4 6-18.4 41.6-50.6 73.1-92.4 90.8q-0.4-0.9-0.8-1.8zm0.8 1.8c41.8-17.7 74-49.2 92.4-90.8 1.6 0.4 4.1 1.2 6.5 2.2-18.9 42.4-53.5 76.6-96.3 94.8-0.9-2.1-1.8-4.2-2.6-6.2zm2.6 6.2c42.8-18.2 77.4-52.4 96.3-94.8 2.2 0.9 4.4 1.9 5.6 3.1-5.1 11.2-11.2 22-18.3 32-6.2 8.9-13.3 17.3-21 25-8.6 8.6-18 16.4-28.1 23.2-10.1 6.8-20.9 12.7-32.3 17.5-0.7-2-1.4-4-2.2-6zm-71.7-168.9q4.3 0 8.7 0 4.3 0 8.6 0c0 2.3-1.2 4.6-2.2 6.5-5.1-2.1-10-4.5-15.1-6.5zm15.1 6.5c1-1.9 2.2-4.2 2.2-6.5q4.3 0 8.6 0 4.4 0 8.7 0c0 4.8-1 9.6-2.9 14.1-5.6-2.4-11.1-5.1-16.6-7.6zm16.6 7.6c1.9-4.5 2.9-9.3 2.9-14.1q4.3 0 8.6 0 4.3 0 8.7 0 4.3 0 8.6 0 4.3 0 8.7 0c0 9.6-2 19.3-5.8 28.1-10.7-4.4-21.1-9.6-31.7-14zm94.2 41.6c-4.8-2.2-12.2-7.7-17.6-7.7-14.9-6.7-29.8-13.6-44.9-19.9 3.8-8.8 5.8-18.5 5.8-28.1q4 0 8.1 0 4.1 0 8.1 0 4.1 0 8.2 0 4 0 8.1 0 4.1 0 8.2 0 4 0 8.1 0 4.1 0 8.1 0 4.1 0 8.2 0 3.5 0 6.9 0 3.5 0 7 0 3.5 0 6.9 0 3.5 0 7 0c0 22.6-4.8 45.2-14 65.9-7.1-4-14.7-6.9-22.2-10.2zm22.2 10.2c9.2-20.7 14-43.3 14-65.9q0.7 0 1.5 0 0.7 0 1.4 0 0.7 0 1.4 0 0.6 0 1.2 0 0.7 0 1.4 0 0 0 0 0 0.8 0 1.5 0 1 0 1.9 0 0.9 0 1.8 0 0.9 0 1.8 0c0 24.6-4.6 49.3-14.5 71.9-4.6-1.3-9.2-3.8-13.4-6zm13.4 6c9.9-22.6 14.5-47.3 14.5-71.9q3.6 0 7.1 0c0.1 25.4-4.8 50.8-15.1 74.1-2.4-1-4.9-1.8-6.5-2.2zm6.5 2.2c10.3-23.3 15.2-48.7 15.1-74.1q3.4 0 6.8 0c0 13.1-1.3 25.9-3.9 38.2-2.5 12.4-6.2 24.3-11 35.7q-0.7 1.6-1.4 3.3c-1.2-1.2-3.4-2.2-5.6-3.1z"/></g><g style="mix-blend-mode:color-dodge"><path fill-rule="evenodd" class="g" d="m1074.7 123.9c12.3 2.5 24.3 6.2 35.6 11q9.8 4.2 19 9.4c15.2 8.5 29.1 19.1 41.4 31.4 9.2 9.2 17.5 19.4 24.6 30.3 6.3 9.6 11.6 19.7 16.1 30.2 4.8 11.4 8.5 23.3 11 35.7 2.6 12.4 3.9 25.2 3.9 38.3-4.4 0-6.7 0-11.1 0l-16.1-16-0.4-0.2c-0.2-0.3-0.3-0.6-0.5-0.7q0.1 0.2 0.1 0.5c-38.9-39.2-135.1-135.8-144.3-145q0 0 0 0l-0.7-0.7q0 0 0.7 0.7-8.6-0.9-17.6-1 0-0.3 0-0.6c-88.9 0-162.7 74.2-162.7 163q0.3 0 0.6 0c0-11.2 1.2-22.1 3.3-32.7 2.2-10.6 5.4-20.8 9.5-30.5 4.1-9.7 9.1-18.9 14.9-27.6 5.8-8.6 12.5-16.6 19.8-24 7.3-7.3 15.4-14 24-19.8 8.6-5.9 17.8-10.9 27.5-15 9.7-4.1 19.9-7.3 30.5-9.5 10.5-2.1 21.4-3.3 32.6-3.3q0-0.3 0-0.6c-88.9 0-162.7 74.2-162.7 163q-0.4 0-0.9 0-0.7 0-1.5 0-0.8 0-1.6 0-0.7 0-1.4 0-0.9 0-1.8 0-0.9 0-1.8 0-1.2 0-2.3 0-1.1 0-2.1 0-1.1 0-2 0-0.3 0-0.6 0-0.6 0-1.1 0 0 0 0 0-0.8 0-1.6 0-0.7 0-1.3 0 0 0-0.1 0-0.6 0-1.3 0-0.6 0-1.2 0-0.1 0-0.1 0-0.6 0-1.3 0-0.7 0-1.5 0 0 0 0 0-0.8 0-1.7 0c0-13.1 1.4-25.9 3.9-38.3 2.5-12.4 6.3-24.3 11.1-35.7 4.8-11.4 10.6-22.2 17.5-32.3 6.8-10.2 14.6-19.6 23.1-28.2 8.6-8.6 18.1-16.4 28.2-23.2 10.1-6.9 20.8-12.7 32.2-17.6 11.4-4.8 23.3-8.5 35.6-11 12.4-2.6 25.2-3.9 38.3-3.9 13.1 0 25.9 1.3 38.3 3.9zm123.6 169.9l0.4 0.2c0.2 0.3 0.3 0.5 0.4 0.7 9.6 9.6 15.5 15.5 15.4 15.5-4.6 0-10.9 0-15.4 0q0-8.3-0.8-16.4z"/></g><path fill-rule="evenodd" class="h" d="m1074.7 123.9c12.3 2.5 24.3 6.2 35.6 11q9.8 4.2 19 9.4c15.2 8.5 29.1 19.1 41.4 31.4 9.2 9.2 17.5 19.4 24.6 30.3 6.3 9.6 11.6 19.7 16.1 30.2 4.8 11.4 8.5 23.3 11 35.7 2.6 12.4 3.9 25.2 3.9 38.3-4.4 0-6.7 0-11.1 0l-16.1-16-0.4-0.2c-0.2-0.3-0.3-0.6-0.5-0.7q0.1 0.2 0.1 0.5c-38.9-39.2-135.1-135.8-144.3-145q0 0 0 0l-0.7-0.7q0 0 0.7 0.7-8.6-0.9-17.6-1 0-0.3 0-0.6c-88.9 0-162.7 74.2-162.7 163q0.3 0 0.6 0c0-11.2 1.2-22.1 3.3-32.7 2.2-10.6 5.4-20.8 9.5-30.5 4.1-9.7 9.1-18.9 14.9-27.6 5.8-8.6 12.5-16.6 19.8-24 7.3-7.3 15.4-14 24-19.8 8.6-5.9 17.8-10.9 27.5-15 9.7-4.1 19.9-7.3 30.5-9.5 10.5-2.1 21.4-3.3 32.6-3.3q0-0.3 0-0.6c-88.9 0-162.7 74.2-162.7 163q-0.4 0-0.9 0-0.7 0-1.5 0-0.8 0-1.6 0-0.7 0-1.4 0-0.9 0-1.8 0-0.9 0-1.8 0-1.2 0-2.3 0-1.1 0-2.1 0-1.1 0-2 0-0.3 0-0.6 0-0.6 0-1.1 0 0 0 0 0-0.8 0-1.6 0-0.7 0-1.3 0 0 0-0.1 0-0.6 0-1.3 0-0.6 0-1.2 0-0.1 0-0.1 0-0.6 0-1.3 0-0.7 0-1.5 0 0 0 0 0-0.8 0-1.7 0c0-13.1 1.4-25.9 3.9-38.3 2.5-12.4 6.3-24.3 11.1-35.7 4.8-11.4 10.6-22.2 17.5-32.3 6.8-10.2 14.6-19.6 23.1-28.2 8.6-8.6 18.1-16.4 28.2-23.2 10.1-6.9 20.8-12.7 32.2-17.6 11.4-4.8 23.3-8.5 35.6-11 12.4-2.6 25.2-3.9 38.3-3.9 13.1 0 25.9 1.3 38.3 3.9zm123.6 169.9l0.4 0.2c0.2 0.3 0.3 0.5 0.4 0.7 9.6 9.6 15.5 15.5 15.4 15.5-4.6 0-10.9 0-15.4 0q0-8.3-0.8-16.4z"/><path class="a" d="m1396.1 270v30.8h59.5v26.5h-59.5v48.9h-33.8v-132.7h98.4v26.5z"/><path fill-rule="evenodd" class="a" d="m1537.1 338.9h-26.5v37.3h-33.8v-132.7h59.4c35.1 0 55.2 16.7 55.2 46.3 0 20.3-8.6 34.9-24.1 42.6l27.9 43.8h-38.3zm-1-26.5c14.6 0 23.2-7.4 23.2-21.4 0-13.9-8.6-20.9-23.2-20.9h-25.6v42.3z"/></svg>